<?xml version="1.0" encoding="UTF-8"?>
<svg version="1.1" xmlns="http://www.w3.org/2000/svg" width="500" height="500">
<path d="M0 0 C165 0 330 0 500 0 C500 165 500 330 500 500 C335 500 170 500 0 500 C0 335 0 170 0 0 Z " fill="#FEFEFE" transform="translate(0,0)"/>
<path d="M0 0 C0.81625854 0.00054382 1.63251709 0.00108765 2.47351074 0.00164795 C15.68161643 0.04204861 28.33097305 0.82860485 41.125 4.375 C41.84349121 4.57335449 42.56198242 4.77170898 43.30224609 4.97607422 C48.38588401 6.45083371 53.25627371 8.30476848 58.125 10.375 C59.00800781 10.75011719 59.89101563 11.12523438 60.80078125 11.51171875 C99.75013563 28.40220485 128.48217233 57.98720373 145.21484375 96.91015625 C146.37914632 99.86651899 147.125 102.17448857 147.125 105.375 C152.735 105.375 158.345 105.375 164.125 105.375 C164.125 107.355 164.125 109.335 164.125 111.375 C128.485 111.375 92.845 111.375 56.125 111.375 C56.125 109.395 56.125 107.415 56.125 105.375 C66.025 105.375 75.925 105.375 86.125 105.375 C80.94105199 97.22879599 76.58456529 91.13772178 70.125 84.375 C69.59648437 83.77171875 69.06796875 83.1684375 68.5234375 82.546875 C54.34515016 66.98711351 30.91994802 57.51806303 10.15283203 56.18408203 C-0.45835982 55.78754036 -10.5064995 55.98442619 -20.875 58.375 C-21.86628906 58.56320313 -22.85757813 58.75140625 -23.87890625 58.9453125 C-37.46438614 61.89056158 -50.23480628 68.50286242 -60.875 77.375 C-61.85984375 78.18582031 -62.8446875 78.99664062 -63.859375 79.83203125 C-71.87633399 86.676087 -79.12642253 94.87784507 -83.875 104.375 C-69.025 104.87 -69.025 104.87 -53.875 105.375 C-53.875 107.355 -53.875 109.335 -53.875 111.375 C-89.515 111.375 -125.155 111.375 -161.875 111.375 C-161.875 109.395 -161.875 107.415 -161.875 105.375 C-156.265 105.375 -150.655 105.375 -144.875 105.375 C-144.71 104.22 -144.545 103.065 -144.375 101.875 C-142.64643802 94.16295425 -138.61928119 87.26721472 -134.875 80.375 C-134.53049805 79.73723633 -134.18599609 79.09947266 -133.83105469 78.44238281 C-115.14369968 44.35707402 -81.44558427 16.77422339 -43.95263672 5.81298828 C-39.29346508 4.52284281 -34.60935809 3.35574821 -29.875 2.375 C-29.03710938 2.19549805 -28.19921875 2.01599609 -27.3359375 1.83105469 C-18.23403584 0.08141128 -9.23391177 -0.02312332 0 0 Z " fill="#FBFBFB" transform="translate(248.875,95.625)"/>
<path d="M0 0 C30.03 0 60.06 0 91 0 C91 1.65 91 3.3 91 5 C86.71 5.33 82.42 5.66 78 6 C92.74846654 29.28504666 114.03687036 45.4626335 141 52 C147.98966548 53.20751696 154.99605124 53.25363066 162.07910156 53.29516602 C163.43239849 53.3066319 164.78565213 53.32699782 166.13867188 53.35668945 C190.03481625 53.8783248 213.59541321 43.20066049 231 27 C237.16675277 20.81534664 242.38427689 14.40945026 247 7 C243.04 6.67 239.08 6.34 235 6 C235 4.02 235 2.04 235 0 C264.7 0 294.4 0 325 0 C325 1.65 325 3.3 325 5 C319.72 5 314.44 5 309 5 C308.58878906 6.46050781 308.17757813 7.92101562 307.75390625 9.42578125 C301.56756049 29.98064722 289.30054278 47.31755997 275 63 C274.32453125 63.74765625 273.6490625 64.4953125 272.953125 65.265625 C255.62516534 83.48219798 232.572096 96.16595525 208.875 103.875 C208.04226563 104.14908691 207.20953125 104.42317383 206.3515625 104.70556641 C191.96424393 109.14919567 177.72609188 110.55998596 162.75 110.4375 C161.94362091 110.43412628 161.13724182 110.43075256 160.306427 110.42727661 C116.54205133 110.16288993 79.11806985 91.39150327 48.58984375 60.56640625 C36.8253146 47.9304305 17 24.12107496 17 6 C11.39 6 5.78 6 0 6 C0 4.02 0 2.04 0 0 Z " fill="#FAFAFA" transform="translate(87,294)"/>
<path d="M0 0 C30.03 0 60.06 0 91 0 C91 1.65 91 3.3 91 5 C86.71 5.33 82.42 5.66 78 6 C92.74846654 29.28504666 114.03687036 45.4626335 141 52 C147.98966548 53.20751696 154.99605124 53.25363066 162.07910156 53.29516602 C163.43239849 53.3066319 164.78565213 53.32699782 166.13867188 53.35668945 C190.03481625 53.8783248 213.59541321 43.20066049 231 27 C237.16675277 20.81534664 242.38427689 14.40945026 247 7 C243.04 6.67 239.08 6.34 235 6 C235 4.02 235 2.04 235 0 C264.7 0 294.4 0 325 0 C325 1.65 325 3.3 325 5 C319.72 5 314.44 5 309 5 C308.58878906 6.46050781 308.17757813 7.92101562 307.75390625 9.42578125 C301.56756049 29.98064722 289.30054278 47.31755997 275 63 C274.32453125 63.74765625 273.6490625 64.4953125 272.953125 65.265625 C255.62516534 83.48219798 232.572096 96.16595525 208.875 103.875 C208.04226563 104.14908691 207.20953125 104.42317383 206.3515625 104.70556641 C191.96424393 109.14919567 177.72609188 110.55998596 162.75 110.4375 C161.94362091 110.43412628 161.13724182 110.43075256 160.306427 110.42727661 C116.54205133 110.16288993 79.11806985 91.39150327 48.58984375 60.56640625 C36.8253146 47.9304305 17 24.12107496 17 6 C11.39 6 5.78 6 0 6 C0 4.02 0 2.04 0 0 Z M24 6 C24.51397489 9.54102967 25.08483768 12.67169805 26.6015625 15.91796875 C26.92334473 16.60963135 27.24512695 17.30129395 27.57666016 18.01391602 C27.9226123 18.73119873 28.26856445 19.44848145 28.625 20.1875 C28.98255371 20.93636475 29.34010742 21.68522949 29.70849609 22.45678711 C32.7014592 28.61016569 36.07328259 34.39040369 40 40 C40.56074219 40.80695313 41.12148437 41.61390625 41.69921875 42.4453125 C43.73689905 45.31469487 43.73689905 45.31469487 46 48 C46.66 48 47.32 48 48 48 C48.66 46.68 49.32 45.36 50 44 C50.2475 45.0725 50.495 46.145 50.75 47.25 C52.01476975 51.04430924 52.77984355 52.69988825 56 55 C58.62694422 55.41780879 58.62694422 55.41780879 61 55 C62.2452818 53.96338918 62.2452818 53.96338918 62.25 51.71484375 C61.94935121 48.4499858 60.98267414 47.13722266 59 44.5625 C56.94520702 41.64304236 56.03468151 40.20808907 55.4375 36.625 C56 34 56 34 57.0625 32.125 C60.12519649 30.3466601 62.53076932 30.64111407 66 31 C70.12628003 32.86665049 72.90868888 35.73204253 76 39 C75.34 39.99 74.68 40.98 74 42 C73.731875 41.071875 73.46375 40.14375 73.1875 39.1875 C71.86240553 35.4469862 71.86240553 35.4469862 69 33 C65.87450983 32.74951364 65.87450983 32.74951364 63 33 C62.75798925 35.91421273 62.67737614 37.51030307 64.3125 39.9921875 C64.869375 40.61351562 65.42625 41.23484375 66 41.875 C68.3399031 44.81374086 68.98371964 45.90231785 69.625 49.75 C69 53 69 53 67.4375 55.4375 C64.09108591 57.58263724 61.9130136 57.41189617 58 57 C55.0625 56 55.0625 56 53 55 C56.19094454 60.45119693 60.15962208 63.99785391 65 68 C65.76957031 68.67933594 66.53914063 69.35867188 67.33203125 70.05859375 C83.38562066 83.89279292 102.48930828 93.45179732 122.75 99.375 C123.5644458 99.61387939 124.3788916 99.85275879 125.21801758 100.09887695 C162.43061817 110.32854718 203.70933232 103.92724985 237 85 C250.60801709 77.08008422 262.09244047 67.28731982 273 56 C272.34 55.67 271.68 55.34 271 55 C268.98074133 55.76600582 268.98074133 55.76600582 266.875 56.9375 C266.15054688 57.31777344 265.42609375 57.69804687 264.6796875 58.08984375 C264.12539063 58.39019531 263.57109375 58.69054687 263 59 C263.33 58.01 263.66 57.02 264 56 C260.6561535 48.74448401 253.77075372 44.66704872 247 41 C246.01 40.67 245.02 40.34 244 40 C247.3 38.02 250.6 36.04 254 34 C254.33 35.32 254.66 36.64 255 38 C256.53448429 39.54435789 256.53448429 39.54435789 258.4375 40.75 C259.05496094 41.17796875 259.67242187 41.6059375 260.30859375 42.046875 C261.96682153 43.16364326 261.96682153 43.16364326 264 43 C264 39.04 264 35.08 264 31 C263.01 30.67 262.02 30.34 261 30 C263.475 29.01 263.475 29.01 266 28 C265.94199219 29.134375 265.88398438 30.26875 265.82421875 31.4375 C265.3385072 43.08445045 265.3385072 43.08445045 271 53 C275.25533861 52.85670163 276.69239881 52.32376709 279.67578125 49.18359375 C280.57529726 47.94965954 281.45314227 46.69973095 282.3125 45.4375 C283.01753662 44.43626099 283.01753662 44.43626099 283.73681641 43.41479492 C296.29213729 25.9173768 296.29213729 25.9173768 302 6 C295.5287186 5.56544734 289.06122916 5.26997271 282.57861328 5.06616211 C280.37959375 4.9811626 278.18152147 4.86549558 275.98583984 4.7175293 C263.85779697 3.52553958 263.85779697 3.52553958 252.88345337 7.60360718 C249.22203757 11.57883255 246.75348064 16.05153702 244.28260803 20.82290649 C235.88194936 35.08214937 218.70265348 45.42704903 204 52 C207.10540926 53.21081851 207.10540926 53.21081851 211 53 C211.0825 54.155 211.165 55.31 211.25 56.5 C212.03684285 63.81646415 214.1274578 70.90175864 216 78 C212.7 78.66 209.4 79.32 206 80 C206.33 79.67 206.66 79.34 207 79 C206.94636663 72.7248957 206.50513453 59.50513453 202 55 C197.1784417 54.71637892 193.49507119 55.24582588 189 57 C189.66 57.99 190.32 58.98 191 60 C191.4492926 64.94221855 191.14589369 67.22326747 188 71 C189.11962199 72.64949657 190.24586845 74.29449838 191.375 75.9375 C192.00148438 76.85402344 192.62796875 77.77054687 193.2734375 78.71484375 C194.79771071 81.08387164 194.79771071 81.08387164 197 82 C193.48791125 82.63599193 190.48493586 82.86110334 187 82 C184.04890808 78.99621001 182.11225659 75.61732016 180 72 C179.67 72 179.34 72 179 72 C178.97301811 73.62490954 178.95361243 75.24994633 178.9375 76.875 C178.92009766 78.23238281 178.92009766 78.23238281 178.90234375 79.6171875 C178.83750743 82.0168585 178.83750743 82.0168585 180 84 C177.03 84 174.06 84 171 84 C171.01740234 82.89205078 171.01740234 82.89205078 171.03515625 81.76171875 C171.09690746 74.81911881 171.04542958 67.8791848 170 61 C168.99530377 59.7754822 168.99530377 59.7754822 166.96875 59.8671875 C166.1540625 59.86976563 165.339375 59.87234375 164.5 59.875 C163.6853125 59.87242187 162.870625 59.86984375 162.03125 59.8671875 C160.00469623 59.7754822 160.00469623 59.7754822 159 61 C158.79588517 64.52287081 158.65359392 68.03884316 158.5703125 71.56640625 C158.38126261 76.12723488 158.00201163 79.32929384 155 83 C150.5208651 84.49304497 146.00784049 84.72076325 141.5625 83.125 C140 82 140 82 139 80 C138.84777027 78.33434251 138.75082785 76.66343504 138.68359375 74.9921875 C138.64169922 74.00605469 138.59980469 73.01992188 138.55664062 72.00390625 C138.51732422 70.97136719 138.47800781 69.93882812 138.4375 68.875 C138.39431641 67.83472656 138.35113281 66.79445313 138.30664062 65.72265625 C138.2003712 63.14857472 138.09833417 60.57439492 138 58 C136.02 57.34 134.04 56.68 132 56 C131.67 58.31 131.34 60.62 131 63 C130.34 63 129.68 63 129 63 C128.896875 62.236875 128.79375 61.47375 128.6875 60.6875 C127.94342109 57.77882791 127.51982932 56.61989028 125 55 C122.48250172 54.85231087 122.48250172 54.85231087 120 56 C114.68380076 61.46809065 113.78217115 66.33318337 113.63671875 73.6953125 C113.83316459 76.05086559 113.83316459 76.05086559 115.29296875 77.82421875 C117.15521812 79.37365497 117.15521812 79.37365497 120.625 78.6875 C121.73875 78.460625 122.8525 78.23375 124 78 C124.33 78 124.66 78 125 78 C121.29512168 79.85243916 117.04385812 79.4585162 113 79 C109.78274987 77.1902968 108.45677461 75.82654453 106.6875 72.625 C105.645942 68.64814217 105.16132885 65.72572718 107.015625 61.91015625 C109.10735295 58.42604313 110.56540331 56.28973113 114 54 C116.04296875 53.5859375 116.04296875 53.5859375 118.1875 53.375 C119.445625 53.25125 120.70375 53.1275 122 53 C119.67489652 50.67489652 117.5430234 49.76255186 114.5625 48.375 C100.15538411 41.26611247 82.89626744 28.50021342 75.83303833 13.52601624 C73.34373858 8.2184349 73.34373858 8.2184349 68.64868164 5.11897278 C65.76203472 4.84144517 63.028936 4.87352554 60.1328125 5.0234375 C59.09808807 5.03758698 58.06336365 5.05173645 56.99728394 5.0663147 C53.70353463 5.12214623 50.41667903 5.24754603 47.125 5.375 C44.88811935 5.42517605 42.65113165 5.47080075 40.4140625 5.51171875 C34.94037016 5.62176536 29.47067732 5.78890815 24 6 Z " fill="#0A0A0A" transform="translate(87,294)"/>
<path d="M0 0 C2.79351532 2.79351532 1.3735624 10.91808576 1.3828125 14.66235352 C1.24307608 24.15787973 -0.40809491 32.2401934 -4 41 C-4.27875977 41.68674805 -4.55751953 42.37349609 -4.84472656 43.08105469 C-12.19464032 60.57270991 -24.81240433 71.97153003 -40.67578125 82.06640625 C-43.64356038 83.25850577 -44.98263629 83.00113148 -48 82 C-66.0223999 72.69811618 -80.35464218 56.09010778 -86.71582031 36.83300781 C-89.49600081 27.34793734 -91.15010066 17.96137493 -91.0625 8.0625 C-91.05798828 7.37865234 -91.05347656 6.69480469 -91.04882812 5.99023438 C-91.0371956 4.32678396 -91.01926694 2.6633795 -91 1 C-63.77792609 -14.96679335 -27.96113636 -12.56897554 0 0 Z " fill="#194167" transform="translate(295,172)"/>
<path d="M0 0 C0.81625854 0.00054382 1.63251709 0.00108765 2.47351074 0.00164795 C15.68161643 0.04204861 28.33097305 0.82860485 41.125 4.375 C41.84349121 4.57335449 42.56198242 4.77170898 43.30224609 4.97607422 C48.38588401 6.45083371 53.25627371 8.30476848 58.125 10.375 C59.00800781 10.75011719 59.89101563 11.12523438 60.80078125 11.51171875 C99.75013563 28.40220485 128.48217233 57.98720373 145.21484375 96.91015625 C146.37914632 99.86651899 147.125 102.17448857 147.125 105.375 C152.735 105.375 158.345 105.375 164.125 105.375 C164.125 107.355 164.125 109.335 164.125 111.375 C128.485 111.375 92.845 111.375 56.125 111.375 C56.125 109.395 56.125 107.415 56.125 105.375 C66.025 105.375 75.925 105.375 86.125 105.375 C80.94105199 97.22879599 76.58456529 91.13772178 70.125 84.375 C69.59648437 83.77171875 69.06796875 83.1684375 68.5234375 82.546875 C54.34515016 66.98711351 30.91994802 57.51806303 10.15283203 56.18408203 C-0.45835982 55.78754036 -10.5064995 55.98442619 -20.875 58.375 C-21.86628906 58.56320313 -22.85757813 58.75140625 -23.87890625 58.9453125 C-37.46438614 61.89056158 -50.23480628 68.50286242 -60.875 77.375 C-61.85984375 78.18582031 -62.8446875 78.99664062 -63.859375 79.83203125 C-71.87633399 86.676087 -79.12642253 94.87784507 -83.875 104.375 C-69.025 104.87 -69.025 104.87 -53.875 105.375 C-53.875 107.355 -53.875 109.335 -53.875 111.375 C-89.515 111.375 -125.155 111.375 -161.875 111.375 C-161.875 109.395 -161.875 107.415 -161.875 105.375 C-156.265 105.375 -150.655 105.375 -144.875 105.375 C-144.71 104.22 -144.545 103.065 -144.375 101.875 C-142.64643802 94.16295425 -138.61928119 87.26721472 -134.875 80.375 C-134.53049805 79.73723633 -134.18599609 79.09947266 -133.83105469 78.44238281 C-115.14369968 44.35707402 -81.44558427 16.77422339 -43.95263672 5.81298828 C-39.29346508 4.52284281 -34.60935809 3.35574821 -29.875 2.375 C-29.03710938 2.19549805 -28.19921875 2.01599609 -27.3359375 1.83105469 C-18.23403584 0.08141128 -9.23391177 -0.02312332 0 0 Z M-39.875 11.375 C-41.24186051 11.76417115 -42.60903195 12.15225244 -43.9765625 12.5390625 C-53.4823322 15.43212284 -62.18325301 19.62762304 -70.875 24.375 C-71.52001465 24.72578613 -72.1650293 25.07657227 -72.82958984 25.43798828 C-82.44832109 30.74445538 -90.84021982 36.89386532 -98.875 44.375 C-99.48907715 44.94524902 -100.1031543 45.51549805 -100.73583984 46.10302734 C-117.85798592 62.18668086 -130.70499725 81.26793374 -138.875 103.375 C-138.875 104.035 -138.875 104.695 -138.875 105.375 C-132.31067463 105.6546998 -125.74789031 105.84683896 -119.17895508 105.97924805 C-116.94660033 106.03445386 -114.71464139 106.10944181 -112.48364258 106.20483398 C-100.02518238 107.32421306 -100.02518238 107.32421306 -88.94873047 103.05322266 C-87.14983377 100.20245712 -86.0350846 97.52855251 -84.875 94.375 C-77.1206076 83.2592013 -67.35478566 73.56946355 -55.875 66.375 C-54.97394531 65.79105469 -54.07289063 65.20710938 -53.14453125 64.60546875 C-45.12343674 59.63693652 -36.81722242 56.25855924 -27.875 53.375 C-26.83601563 53.03210938 -25.79703125 52.68921875 -24.7265625 52.3359375 C-8.44755753 47.94839712 12.06037193 48.30626239 28.125 53.375 C29.32382812 53.7153125 30.52265625 54.055625 31.7578125 54.40625 C44.80542625 58.37143857 56.7921428 64.38407231 67.125 73.375 C67.93324219 74.05175781 68.74148438 74.72851562 69.57421875 75.42578125 C78.60968504 83.21593059 85.59930196 92.10383607 91.8125 102.2578125 C92.95562165 104.28176207 92.95562165 104.28176207 94.125 105.375 C95.59854348 105.46804018 97.07650591 105.49246265 98.55297852 105.48852539 C99.49387833 105.48844986 100.43477814 105.48837433 101.40419006 105.48829651 C102.42709641 105.48313522 103.45000275 105.47797394 104.50390625 105.47265625 C105.54570541 105.4712413 106.58750458 105.46982635 107.66087341 105.46836853 C111.00311094 105.4627508 114.34528257 105.4501953 117.6875 105.4375 C119.94726466 105.43248728 122.20703037 105.42792398 124.46679688 105.42382812 C130.01955391 105.41277561 135.57227225 105.39602024 141.125 105.375 C140.66346263 103.95516064 140.19882045 102.53633035 139.73291016 101.11791992 C139.47450348 100.32769943 139.2160968 99.53747894 138.94985962 98.72331238 C137.72646738 95.24040806 136.17008106 91.97494914 134.5 88.6875 C134.15517578 88.0054248 133.81035156 87.32334961 133.45507812 86.62060547 C116.82655522 54.38604962 90.07861871 30.35800887 56.75 16.4375 C55.8223584 16.04731689 54.8947168 15.65713379 53.93896484 15.25512695 C48.59940433 13.0995978 43.87301745 11.79903407 38.125 11.375 C41.87592881 14.63449696 46.19740903 16.23306118 50.75 18.0625 C51.52601563 18.38283203 52.30203125 18.70316406 53.1015625 19.03320312 C56.99318943 20.7576528 56.99318943 20.7576528 61.125 21.375 C60.135 23.685 59.145 25.995 58.125 28.375 C57.75375 26.9828125 57.75375 26.9828125 57.375 25.5625 C56.03574151 22.14739085 55.26657515 21.13058611 52.125 19.375 C50.79788808 19.01770064 49.46497127 18.6805583 48.125 18.375 C47.28680842 19.99749941 46.4545884 21.62308497 45.625 23.25 C45.1609375 24.15492187 44.696875 25.05984375 44.21875 25.9921875 C42.98594411 28.24096859 42.98594411 28.24096859 43.125 30.375 C46.84099191 30.57586443 47.89708445 30.5269437 51.125 28.375 C49.145 32.83 49.145 32.83 47.125 37.375 C46.135 35.725 45.145 34.075 44.125 32.375 C40.79124167 33.10549461 40.79124167 33.10549461 39.375 36.625 C37.88594233 41.07618976 37.88594233 41.07618976 39.125 45.375 C42.22343778 47.78489605 45.31310317 47.77207259 49.125 47.375 C51.46761608 45.99573227 51.46761608 45.99573227 53.125 44.375 C52.63 45.15875 52.135 45.9425 51.625 46.75 C49.95962035 49.16052327 49.95962035 49.16052327 50.125 51.375 C49.44397217 51.07207031 48.76294434 50.76914063 48.0612793 50.45703125 C44.98085137 49.09063824 41.89675434 47.73273243 38.8125 46.375 C37.74064453 45.89804688 36.66878906 45.42109375 35.56445312 44.9296875 C34.53642578 44.47851562 33.50839844 44.02734375 32.44921875 43.5625 C31.50135498 43.14355469 30.55349121 42.72460938 29.5769043 42.29296875 C27.0930933 41.19968868 27.0930933 41.19968868 24.125 41.375 C24.89932373 41.14014893 25.67364746 40.90529785 26.47143555 40.66333008 C29.70351706 39.09412462 30.2143338 38.02629165 31.58203125 34.76171875 C31.97197266 33.84326172 32.36191406 32.92480469 32.76367188 31.97851562 C33.3447168 30.53508789 33.3447168 30.53508789 33.9375 29.0625 C34.34419922 28.11181641 34.75089844 27.16113281 35.16992188 26.18164062 C37.03332506 21.70007766 38.37681267 18.288913 38.125 13.375 C37.135 12.88 37.135 12.88 36.125 12.375 C36.455 11.715 36.785 11.055 37.125 10.375 C35.10507005 9.8920393 33.08400646 9.41381888 31.0625 8.9375 C29.93714844 8.67066406 28.81179688 8.40382813 27.65234375 8.12890625 C5.98628076 3.49817518 -18.80813305 4.84970133 -39.875 11.375 Z " fill="#0A0A0A" transform="translate(248.875,95.625)"/>
<path d="M0 0 C0.495 5.94 0.495 5.94 1 12 C2.32 12.33 3.64 12.66 5 13 C5 9.04 5 5.08 5 1 C15.75 2.875 15.75 2.875 18 4 C18.0269501 6.93756119 18.04681474 9.87487555 18.0625 12.8125 C18.07087891 13.64587891 18.07925781 14.47925781 18.08789062 15.33789062 C18.09111328 16.14033203 18.09433594 16.94277344 18.09765625 17.76953125 C18.10289307 18.50792236 18.10812988 19.24631348 18.11352539 20.00708008 C18 22 18 22 17 25 C-1.81 25 -20.62 25 -40 25 C-40 26.65 -40 28.3 -40 30 C-39.14390137 29.75552124 -39.14390137 29.75552124 -38.27050781 29.50610352 C-35.98346733 28.99631481 -34.01035544 28.88564032 -31.671875 28.90234375 C-30.47304687 28.90717773 -30.47304687 28.90717773 -29.25 28.91210938 C-28.425 28.92048828 -27.6 28.92886719 -26.75 28.9375 C-25.90953125 28.94201172 -25.0690625 28.94652344 -24.203125 28.95117188 C-22.13538599 28.96292039 -20.06768376 28.98085478 -18 29 C-18 30.32 -18 31.64 -18 33 C-7.44 33 3.12 33 14 33 C13.34 34.65 12.68 36.3 12 38 C6.80387722 38.02473982 1.60778882 38.04287892 -3.58837891 38.05493164 C-5.35563759 38.05995687 -7.12289212 38.06677809 -8.89013672 38.07543945 C-11.43197657 38.08758428 -13.9737614 38.09324645 -16.515625 38.09765625 C-17.69865204 38.10539818 -17.69865204 38.10539818 -18.90557861 38.11329651 C-22.44536403 38.11365758 -25.59500794 37.95395888 -29 37 C-29 38.32 -29 39.64 -29 41 C-16.46 41.33 -3.92 41.66 9 42 C5.36933919 51.07665203 -2.9078416 59.99598112 -12 64 C-20.11843054 63.59407847 -25.71307697 57.70431169 -31 52 C-31.45890625 51.54625 -31.9178125 51.0925 -32.390625 50.625 C-40.99744614 41.56518827 -47 27.54068279 -47 15 C-45.94039062 14.95101562 -44.88078125 14.90203125 -43.7890625 14.8515625 C-42.40101503 14.77653291 -41.01299549 14.70098515 -39.625 14.625 C-38.57699219 14.57859375 -38.57699219 14.57859375 -37.5078125 14.53125 C-33.29814173 14.40500502 -33.29814173 14.40500502 -30 12 C-27.25514407 11.85492305 -24.61519457 11.81347577 -21.875 11.875 C-21.12089844 11.88402344 -20.36679688 11.89304688 -19.58984375 11.90234375 C-17.72642746 11.9259313 -15.86317407 11.96180281 -14 12 C-14 14.64 -14 17.28 -14 20 C-12.35 20 -10.7 20 -9 20 C-9 16.37 -9 12.74 -9 9 C-17.58 9 -26.16 9 -35 9 C-35.33 10.32 -35.66 11.64 -36 13 C-39.96 13 -43.92 13 -48 13 C-48 10.03 -48 7.06 -48 4 C-33.1703958 -1.56110158 -15.40616569 -5.03058472 0 0 Z " fill="#F7F8F9" transform="translate(265,176)"/>
<path d="M0 0 C1 1 1 1 1.11352539 3.22485352 C1.10567017 4.66235962 1.10567017 4.66235962 1.09765625 6.12890625 C1.09282227 7.68061523 1.09282227 7.68061523 1.08789062 9.26367188 C1.07532227 10.8965918 1.07532227 10.8965918 1.0625 12.5625 C1.05798828 13.65498047 1.05347656 14.74746094 1.04882812 15.87304688 C1.03699826 18.58208495 1.02051543 21.29101599 1 24 C0.01 22.02 0.01 22.02 -1 20 C-1.66 20 -2.32 20 -3 20 C-3.268125 20.5775 -3.53625 21.155 -3.8125 21.75 C-5.05085045 24.09634823 -6.19121484 26.05207752 -8 28 C-9.32 28 -10.64 28 -12 28 C-12 28.66 -12 29.32 -12 30 C-29.16 30.33 -46.32 30.66 -64 31 C-58.39 31.33 -52.78 31.66 -47 32 C-47 33.32 -47 34.64 -47 36 C-36.77 36 -26.54 36 -16 36 C-16 36.33 -16 36.66 -16 37 C-26.56 37 -37.12 37 -48 37 C-48 35.68 -48 34.36 -48 33 C-55.26 33.33 -62.52 33.66 -70 34 C-70 32.35 -70 30.7 -70 29 C-51.19 29 -32.38 29 -13 29 C-12.67 22.07 -12.34 15.14 -12 8 C-16.29 7.01 -20.58 6.02 -25 5 C-25 8.96 -25 12.92 -25 17 C-26.65 16.67 -28.3 16.34 -30 16 C-30 12.04 -30 8.08 -30 4 C-46.20048696 1.35502254 -61.3399497 3.75873638 -77 8 C-77.33 9.98 -77.66 11.96 -78 14 C-79.32 14 -80.64 14 -82 14 C-82.36783439 7.50159236 -82.36783439 7.50159236 -80.625 5.125 C-79 4 -79 4 -77 3 C-78.65 3 -80.3 3 -82 3 C-82 2.34 -82 1.68 -82 1 C-80.73160474 0.49384702 -79.46016898 -0.00469099 -78.1875 -0.5 C-77.47980469 -0.7784375 -76.77210938 -1.056875 -76.04296875 -1.34375 C-74 -2 -74 -2 -71 -2 C-71 -2.66 -71 -3.32 -71 -4 C-71.99 -4.66 -72.98 -5.32 -74 -6 C-48.06589656 -11.36916985 -24.57902925 -11.0486646 0 0 Z " fill="#1C83C2" transform="translate(295,172)"/>
<path d="M0 0 C-1 3 -1 3 -2.7421875 3.94921875 C-3.44601563 4.19285156 -4.14984375 4.43648437 -4.875 4.6875 C-5.57367188 4.93886719 -6.27234375 5.19023437 -6.9921875 5.44921875 C-9 6 -9 6 -12 6 C-12 6.66 -12 7.32 -12 8 C-9.36 7.67 -6.72 7.34 -4 7 C-6.35953094 9.35953094 -7.77895617 9.49141413 -11 10 C-11.33 12.97 -11.66 15.94 -12 19 C-10.68 19 -9.36 19 -8 19 C-8 19.99 -8 20.98 -8 22 C-4.04 22 -0.08 22 4 22 C4.33 20.35 4.66 18.7 5 17 C17.87 17.495 17.87 17.495 31 18 C31 21.63 31 25.26 31 29 C29.35 29 27.7 29 26 29 C26 26.36 26 23.72 26 21 C23.37405216 21.1136515 20.74988453 21.24039054 18.125 21.375 C17.37863281 21.4059375 16.63226563 21.436875 15.86328125 21.46875 C11.46526812 21.55643831 11.46526812 21.55643831 8 24 C5.41935871 24.14497985 2.95056116 24.18677545 0.375 24.125 C-0.68460938 24.11146484 -0.68460938 24.11146484 -1.765625 24.09765625 C-3.51056098 24.07407603 -5.25532295 24.03820461 -7 24 C-4.06390104 38.04221241 0.0101779 50.2792153 10 61 C10 61.66 10 62.32 10 63 C10.57878906 63.268125 11.15757812 63.53625 11.75390625 63.8125 C14.04022394 65.02126622 15.91279678 66.39627467 17.9375 68 C20.8484605 70.23082954 23.46102751 71.8940711 27 73 C24.94180879 74.54364341 23.55338609 75.07629206 20.98828125 74.72265625 C15.33125 73.33125 15.33125 73.33125 14 72 C12.33382885 71.95936168 10.66611905 71.957279 9 72 C8.67 72.66 8.34 73.32 8 74 C8.66 74 9.32 74 10 74 C10 75.32 10 76.64 10 78 C-2.62596848 72.4009009 -11.21804757 56.21781158 -16 44 C-19.28843311 33.91657823 -21.15641572 23.67497647 -21.0625 13.0625 C-21.05798828 12.37865234 -21.05347656 11.69480469 -21.04882812 10.99023438 C-21.0371956 9.32678396 -21.01926694 7.6633795 -21 6 C-19.44148245 5.17988688 -17.87798284 4.36923787 -16.3125 3.5625 C-15.44238281 3.11003906 -14.57226562 2.65757812 -13.67578125 2.19140625 C-9.08262293 0.14627736 -4.99022126 -0.11605166 0 0 Z " fill="#195385" transform="translate(225,167)"/>
<path d="M0 0 C3.3956697 -0.08745946 6.79104773 -0.14054444 10.1875 -0.1875 C11.14720703 -0.21263672 12.10691406 -0.23777344 13.09570312 -0.26367188 C21.94572693 -0.35554063 21.94572693 -0.35554063 26 3 C26.66 3.66 27.32 4.32 28 5 C27.53846154 11.46153846 27.53846154 11.46153846 25 14 C24.01 14 23.02 14 22 14 C22 14.66 22 15.32 22 16 C22.598125 16.103125 23.19625 16.20625 23.8125 16.3125 C26.46039822 17.14469658 27.50490966 17.63933104 29 20 C29 23.4375 29 23.4375 28 27 C24.1299815 30.77078725 21.51901008 32.12963259 16.2109375 32.09765625 C15.26992187 32.09443359 14.32890625 32.09121094 13.359375 32.08789062 C12.37453125 32.07951172 11.3896875 32.07113281 10.375 32.0625 C8.88613281 32.05573242 8.88613281 32.05573242 7.3671875 32.04882812 C4.9113984 32.03702145 2.45572896 32.020554 0 32 C0.66 31.34 1.32 30.68 2 30 C2.31198539 27.11912077 2.31198539 27.11912077 2.265625 23.75 C2.26820313 22.5021875 2.27078125 21.254375 2.2734375 19.96875 C2.26570312 18.6590625 2.25796875 17.349375 2.25 16 C2.25773438 14.6903125 2.26546875 13.380625 2.2734375 12.03125 C2.27085937 10.7834375 2.26828125 9.535625 2.265625 8.25 C2.26336914 7.10015625 2.26111328 5.9503125 2.25878906 4.765625 C2.28343676 1.85800168 2.28343676 1.85800168 0 0 Z " fill="#101010" transform="translate(234,103)"/>
<path d="M0 0 C6.62651565 5.2166187 16.20754801 13.05661009 17.375 21.8125 C17 25 17 25 14.875 27.875 C11.53730231 30.34199395 10.05263598 30.54035146 6 30 C5.34 29.67 4.68 29.34 4 29 C2.88482498 34.98729887 1.80499864 40.96251023 1 47 C-0.66666667 45.33333333 -2.33333333 43.66666667 -4 42 C-4.61875 41.566875 -5.2375 41.13375 -5.875 40.6875 C-7.52153888 38.21769168 -6.9943255 36.09631597 -6.52734375 33.2734375 C-5.63048407 29.40697575 -4.34199502 25.73424702 -3 22 C-6.96 25.465 -6.96 25.465 -11 29 C-10.67 30.65 -10.34 32.3 -10 34 C-13.88397689 32.44997253 -16.02979619 29.99523379 -18.75 26.875 C-19.54921875 25.96492188 -20.3484375 25.05484375 -21.171875 24.1171875 C-21.77515625 23.41851562 -22.3784375 22.71984375 -23 22 C-21 21 -21 21 -18.61328125 20.6640625 C-15.4569482 19.86200478 -14.37034352 18.7554483 -12.1875 16.375 C-8.83777721 12.80834278 -5.33412077 9.7339436 -1.46875 6.73828125 C0.26158737 5.03230508 0.26158737 5.03230508 0.21875 2.29296875 C0.1465625 1.53628906 0.074375 0.77960938 0 0 Z " fill="#0B0B0B" transform="translate(331,131)"/>
<path d="M0 0 C1.16660156 0.00322266 2.33320313 0.00644531 3.53515625 0.00976562 C4.75847656 0.01814453 5.98179687 0.02652344 7.2421875 0.03515625 C8.47324219 0.03966797 9.70429688 0.04417969 10.97265625 0.04882812 C14.02088142 0.06064295 17.06901064 0.07711597 20.1171875 0.09765625 C20.1171875 2.40765625 20.1171875 4.71765625 20.1171875 7.09765625 C12.1971875 7.09765625 4.2771875 7.09765625 -3.8828125 7.09765625 C-3.8828125 8.74765625 -3.8828125 10.39765625 -3.8828125 12.09765625 C-2.65304688 12.05125 -1.42328125 12.00484375 -0.15625 11.95703125 C1.4765381 11.91949589 3.10935261 11.88309763 4.7421875 11.84765625 C5.55042969 11.81414062 6.35867187 11.780625 7.19140625 11.74609375 C12.67519505 11.65692645 15.78205052 12.40526828 20.1171875 16.09765625 C21.64933638 19.16195401 21.34657298 21.71422045 21.1171875 25.09765625 C19.42144542 28.91307592 17.98365249 30.60678061 14.1171875 32.09765625 C11.27636719 32.32470703 11.27636719 32.32470703 8.0390625 32.29296875 C6.29882812 32.28330078 6.29882812 32.28330078 4.5234375 32.2734375 C3.316875 32.25667969 2.1103125 32.23992187 0.8671875 32.22265625 C-0.96585938 32.20912109 -0.96585938 32.20912109 -2.8359375 32.1953125 C-5.85176032 32.17175138 -8.86718742 32.13885331 -11.8828125 32.09765625 C-11.8828125 29.78765625 -11.8828125 27.47765625 -11.8828125 25.09765625 C-3.9628125 24.76765625 3.9571875 24.43765625 12.1171875 24.09765625 C12.4471875 22.44765625 12.7771875 20.79765625 13.1171875 19.09765625 C11.14685547 19.18466797 11.14685547 19.18466797 9.13671875 19.2734375 C7.40107727 19.32034673 5.66539727 19.36584564 3.9296875 19.41015625 C3.06537109 19.45205078 2.20105469 19.49394531 1.31054688 19.53710938 C-3.31613866 19.6257432 -5.21055138 19.63908038 -8.93359375 16.640625 C-9.57683594 15.80144531 -10.22007812 14.96226562 -10.8828125 14.09765625 C-11.2128125 13.76765625 -11.5428125 13.43765625 -11.8828125 13.09765625 C-12.28319804 8.93364663 -12.32465578 6.77514929 -10.0078125 3.22265625 C-6.6367598 -0.14839645 -4.66400314 -0.02264079 0 0 Z " fill="#475865" transform="translate(219.8828125,258.90234375)"/>
<path d="M0 0 C4.21676248 4.87563162 6.46680717 11.12966692 9 17 C9.47179687 18.08023437 9.94359375 19.16046875 10.4296875 20.2734375 C14 28.60416667 14 28.60416667 14 32 C11.69 32 9.38 32 7 32 C6.34 30.35 5.68 28.7 5 27 C0.05 27 -4.9 27 -10 27 C-10.99 29.475 -10.99 29.475 -12 32 C-14.64 32 -17.28 32 -20 32 C-18.96341885 25.68726419 -16.18760418 20.13092564 -13.625 14.3125 C-13.13 13.15943359 -12.635 12.00636719 -12.125 10.81835938 C-11.40183594 9.1699707 -11.40183594 9.1699707 -10.6640625 7.48828125 C-10.22529785 6.48321533 -9.7865332 5.47814941 -9.33447266 4.44262695 C-7.12074259 0.39060183 -4.44981171 -0.86825594 0 0 Z " fill="#415361" transform="translate(265,259)"/>
<path d="M0 0 C1.15693359 0.01289063 2.31386719 0.02578125 3.50585938 0.0390625 C4.70404297 0.07257813 5.90222656 0.10609375 7.13671875 0.140625 C8.96299805 0.16769531 8.96299805 0.16769531 10.82617188 0.1953125 C13.82632297 0.24237369 16.82486764 0.3081119 19.82421875 0.390625 C19.82421875 2.700625 19.82421875 5.010625 19.82421875 7.390625 C7.44921875 7.885625 7.44921875 7.885625 -5.17578125 8.390625 C-5.19640625 10.659375 -5.21703125 12.928125 -5.23828125 15.265625 C-5.24988281 16.54179687 -5.26148438 17.81796875 -5.2734375 19.1328125 C-5.40754694 22.27727152 -5.40754694 22.27727152 -4.17578125 24.390625 C3.74421875 24.720625 11.66421875 25.050625 19.82421875 25.390625 C19.82421875 27.700625 19.82421875 30.010625 19.82421875 32.390625 C15.61625189 32.53633022 11.40893709 32.62483587 7.19921875 32.703125 C6.00941406 32.74501953 4.81960937 32.78691406 3.59375 32.83007812 C-6.30096802 32.96827251 -6.30096802 32.96827251 -9.88671875 30.18359375 C-13.75585803 25.46271561 -14.46705646 21.94676457 -14.48828125 15.890625 C-14.50503906 14.7871875 -14.52179688 13.68375 -14.5390625 12.546875 C-14.00142489 7.87578698 -12.31365379 5.47533525 -8.94970703 2.26855469 C-5.64493904 0.03124828 -3.95032647 -0.07783895 0 0 Z " fill="#455663" transform="translate(162.17578125,258.609375)"/>
<path d="M0 0 C0.99 0 1.98 0 3 0 C3.20753906 0.92039063 3.41507813 1.84078125 3.62890625 2.7890625 C6.69277774 15.37785666 11.02181063 26.36486995 20 36 C20 36.66 20 37.32 20 38 C20.57878906 38.268125 21.15757812 38.53625 21.75390625 38.8125 C24.04022394 40.02126622 25.91279678 41.39627467 27.9375 43 C30.8484605 45.23082954 33.46102751 46.8940711 37 48 C34.94180879 49.54364341 33.55338609 50.07629206 30.98828125 49.72265625 C25.33125 48.33125 25.33125 48.33125 24 47 C22.33382885 46.95936168 20.66611905 46.957279 19 47 C18.67 47.66 18.34 48.32 18 49 C18.66 49 19.32 49 20 49 C20 50.32 20 51.64 20 53 C11.39160024 49.18252782 5.99691884 40.62030123 1 33 C2.485 32.505 2.485 32.505 4 32 C4 31.01 4 30.02 4 29 C3.34 29 2.68 29 2 29 C1.32243118 27.44219668 0.65840543 25.87849904 0 24.3125 C-0.37125 23.44238281 -0.7425 22.57226562 -1.125 21.67578125 C-2.01870488 18.9427998 -2.16449676 16.85299066 -2 14 C-1.01 15.485 -1.01 15.485 0 17 C0 11.39 0 5.78 0 0 Z " fill="#205684" transform="translate(215,192)"/>
<path d="M0 0 C3.85358472 -0.1753878 7.70613439 -0.28121462 11.5625 -0.375 C13.19155273 -0.45041016 13.19155273 -0.45041016 14.85351562 -0.52734375 C20.11167946 -0.62323732 24.00227686 -0.65086903 28.23828125 2.70703125 C30.21065491 4.74968524 30.95269023 5.84425249 31.7890625 8.59765625 C31.20754717 17.33423181 31.20754717 17.33423181 28 21 C24.12041439 23.77390371 19.8075366 23.22325535 15.25 23.125 C14.45722656 23.11597656 13.66445313 23.10695313 12.84765625 23.09765625 C10.89830719 23.07417012 8.94911425 23.03830137 7 23 C7 25.97 7 28.94 7 32 C4.69 32 2.38 32 0 32 C0 26.72 0 21.44 0 16 C1.57652344 15.93941406 3.15304687 15.87882812 4.77734375 15.81640625 C6.83073943 15.73202013 8.88412431 15.64737117 10.9375 15.5625 C12.49887695 15.50352539 12.49887695 15.50352539 14.09179688 15.44335938 C15.57583008 15.38051758 15.57583008 15.38051758 17.08984375 15.31640625 C18.00628662 15.27974854 18.92272949 15.24309082 19.86694336 15.20532227 C21.9820728 15.22996136 21.9820728 15.22996136 23 14 C23 12.02 23 10.04 23 8 C11.615 7.505 11.615 7.505 0 7 C0 4.69 0 2.38 0 0 Z " fill="#435562" transform="translate(284,259)"/>
<path d="M0 0 C0.78375 0.185625 1.5675 0.37125 2.375 0.5625 C4.97089775 1.25962266 4.97089775 1.25962266 7 0 C12.47774199 -0.3591962 15.4757251 -0.42341413 20 3 C20.56762695 5.4519043 20.56762695 5.4519043 20.48828125 8.32421875 C20.47216797 9.35224609 20.45605469 10.38027344 20.43945312 11.43945312 C20.39755859 12.51130859 20.35566406 13.58316406 20.3125 14.6875 C20.28994141 15.77095703 20.26738281 16.85441406 20.24414062 17.97070312 C20.1851579 20.64851905 20.10290307 23.32357027 20 26 C19.01 24.02 19.01 24.02 18 22 C17.34 22 16.68 22 16 22 C15.731875 22.5775 15.46375 23.155 15.1875 23.75 C13.94914955 26.09634823 12.80878516 28.05207752 11 30 C9.68 30 8.36 30 7 30 C7 30.66 7 31.32 7 32 C-10.16 32.33 -27.32 32.66 -45 33 C-39.39 33.33 -33.78 33.66 -28 34 C-28 35.32 -28 36.64 -28 38 C-17.77 38 -7.54 38 3 38 C3 38.33 3 38.66 3 39 C-7.56 39 -18.12 39 -29 39 C-29 37.68 -29 36.36 -29 35 C-39.89 35.495 -39.89 35.495 -51 36 C-51 34.35 -51 32.7 -51 31 C-32.19 31 -13.38 31 6 31 C6.33 24.07 6.66 17.14 7 10 C4.525 9.01 4.525 9.01 2 8 C2.33 7.01 2.66 6.02 3 5 C1.68 5 0.36 5 -1 5 C-0.67 3.35 -0.34 1.7 0 0 Z " fill="#196EA8" transform="translate(276,170)"/>
<path d="M0 0 C3.87460078 -0.14584726 7.74849117 -0.23425444 11.625 -0.3125 C12.71941406 -0.35439453 13.81382812 -0.39628906 14.94140625 -0.43945312 C24.06740277 -0.5777258 24.06740277 -0.5777258 27.7265625 2.11328125 C30.4127545 5.52409893 30.81035056 7.19499346 30.75 11.5 C30.76546875 12.6034375 30.7809375 13.706875 30.796875 14.84375 C29.9245016 18.29903287 28.74899285 19.97393403 25.8671875 22.09326172 C22.37874647 23.78730853 18.92068053 23.5215841 15.125 23.3125 C14.34125 23.28994141 13.5575 23.26738281 12.75 23.24414062 C10.8324974 23.18568018 8.9159894 23.09601283 7 23 C7 25.97 7 28.94 7 32 C4.69 32 2.38 32 0 32 C0 26.72 0 21.44 0 16 C7.26 15.67 14.52 15.34 22 15 C22 12.69 22 10.38 22 8 C14.74 7.67 7.48 7.34 0 7 C0 4.69 0 2.38 0 0 Z " fill="#40525F" transform="translate(322,259)"/>
<path d="M0 0 C1.75841232 0.87920616 3.50521401 1.78155343 5.25 2.6875 C11.36359743 5.75562019 17.69921632 8.34517542 24 11 C23.40138258 13.35171131 22.73075648 15.6859378 22 18 C21.01 18.495 21.01 18.495 20 19 C19.814375 17.906875 19.62875 16.81375 19.4375 15.6875 C18.42483472 12.0509502 18.42483472 12.0509502 16.30859375 10.8671875 C14.16349857 9.94073788 14.16349857 9.94073788 11 9 C9.35 12.63 7.7 16.26 6 20 C9.40312738 18.94124926 12.01353231 17.99097846 15 16 C12.10933941 25.59453303 12.10933941 25.59453303 9 29 C8.34 27.02 7.68 25.04 7 23 C6.34 23 5.68 23 5 23 C4.2575 24.60875 4.2575 24.60875 3.5 26.25 C3.2215625 26.85328125 2.943125 27.4565625 2.65625 28.078125 C1.78457076 30.29242836 1.78457076 30.29242836 2 34 C5.41557022 36.10188936 8.02173 36.4871351 12 36 C14.84920053 34.12230858 14.84920053 34.12230858 17 32 C15.94124926 35.40312738 14.99097846 38.01353231 13 41 C4.09945121 38.24892128 -4.41643491 34.59701637 -13 31 C-12.67 30.34 -12.34 29.68 -12 29 C-11.01 29 -10.02 29 -9 29 C-7.51283485 25.60761453 -6.03669824 22.21053813 -4.5625 18.8125 C-4.14162109 17.85279297 -3.72074219 16.89308594 -3.28710938 15.90429688 C-2.88427734 14.97294922 -2.48144531 14.04160156 -2.06640625 13.08203125 C-1.69459229 12.22843018 -1.32277832 11.3748291 -0.93969727 10.49536133 C-0.00129898 8.00344942 0.5546206 5.62096539 1 3 C0.01 2.67 -0.98 2.34 -2 2 C-1.34 1.34 -0.68 0.68 0 0 Z " fill="#0B0B0B" transform="translate(286,106)"/>
<path d="M0 0 C0.66 0.33 1.32 0.66 2 1 C1.67 1.66 1.34 2.32 1 3 C0.73436671 6.01413288 0.76837227 9.03796541 0.75 12.0625 C0.729375 12.88427734 0.70875 13.70605469 0.6875 14.55273438 C0.64976509 20.54786847 1.77749672 25.44122766 4 31 C5.65 30.67 7.3 30.34 9 30 C9 30.66 9 31.32 9 32 C6.54595776 33.19716659 4.08748321 34.3829346 1.625 35.5625 C0.92632812 35.90474609 0.22765625 36.24699219 -0.4921875 36.59960938 C-2.30052216 37.46030712 -4.14851956 38.23652436 -6 39 C-6.66 38.67 -7.32 38.34 -8 38 C-6.515 37.505 -6.515 37.505 -5 37 C-6.60713123 31.00265662 -8.09522376 27.06992071 -13 23 C-13.7940625 22.33742187 -14.588125 21.67484375 -15.40625 20.9921875 C-20.85682364 16.46368933 -20.85682364 16.46368933 -27 13 C-25.23628182 11.96692229 -23.46374967 10.94887951 -21.6875 9.9375 C-20.70136719 9.36902344 -19.71523437 8.80054687 -18.69921875 8.21484375 C-16 7 -16 7 -13 8 C-12.70351562 8.60328125 -12.40703125 9.2065625 -12.1015625 9.828125 C-10.68076474 12.6294142 -8.88366259 13.88642208 -6.375 15.75 C-4.209375 17.35875 -4.209375 17.35875 -2 19 C-2 14.05 -2 9.1 -2 4 C-3.32 3.67 -4.64 3.34 -6 3 C-4.03533587 1.93224776 -2.03144641 0.93446535 0 0 Z " fill="#0C0C0C" transform="translate(209,108)"/>
<path d="M0 0 C2.64 1.98 5.28 3.96 8 6 C5.2116015 6.92946617 3.78150067 7.05976545 0.9375 6.9375 C-3.00724787 6.54338439 -3.00724787 6.54338439 -5 9 C-5.62422637 12.8345334 -5.12447613 15.29327161 -3.0625 18.5 C0.20343815 22.64487335 4.17263217 25.84536564 9 28 C11.71155101 28.188371 13.35301312 27.78846418 16 27 C16.66 23.37 17.32 19.74 18 16 C18.66 16.33 19.32 16.66 20 17 C20.41915884 23.07780319 20.15476946 26.20603524 16 31 C12.54603846 34.31405424 9.88785243 35.84247779 5.125 36.6875 C-0.76922632 36.27467481 -5.66688464 32.68339541 -9.45703125 28.32421875 C-12.23870793 24.04849664 -12.94074721 19.91710141 -12 15 C-10.17837318 9.79381212 -7.13068964 6.96384552 -2.48828125 4.140625 C-0.68050625 2.97587719 -0.68050625 2.97587719 0 0 Z " fill="#0C0C0C" transform="translate(163,135)"/>
<path d="M0 0 C0.45510807 6.67491831 -1.2327574 12.59374557 -3 19 C-3.495 17.02 -3.495 17.02 -4 15 C-8.455 15.495 -8.455 15.495 -13 16 C-13.433125 17.2065625 -13.433125 17.2065625 -13.875 18.4375 C-15 21 -15 21 -17 22 C-16.67 20.35 -16.34 18.7 -16 17 C-26.23 17 -36.46 17 -47 17 C-47 15.68 -47 14.36 -47 13 C-52.94 13 -58.88 13 -65 13 C-64.67 12.34 -64.34 11.68 -64 11 C-46.84 11 -29.68 11 -12 11 C-12 10.34 -12 9.68 -12 9 C-10.68 9 -9.36 9 -8 9 C-7.773125 8.443125 -7.54625 7.88625 -7.3125 7.3125 C-5.959128 4.92798742 -3.0264068 0 0 0 Z " fill="#214D72" transform="translate(295,191)"/>
<path d="M0 0 C7.18216433 2.27435204 14.0758202 5.03584181 21 8 C20.625 10.9375 20.625 10.9375 20 14 C19.01 14.495 19.01 14.495 18 15 C17.79375 14.05125 17.5875 13.1025 17.375 12.125 C16.29166667 8.70833333 16.29166667 8.70833333 12.875 7.625 C11.92625 7.41875 10.9775 7.2125 10 7 C8.68 9.97 7.36 12.94 6 16 C9.77639718 15.48967606 11.44722581 14.79233071 14 12 C13.54554036 13.41791408 13.08625056 14.83428046 12.625 16.25 C12.24214844 17.43335938 12.24214844 17.43335938 11.8515625 18.640625 C11.04826333 20.86627958 10.10288338 22.90931672 9 25 C8.67 25 8.34 25 8 25 C7.67 23.02 7.34 21.04 7 19 C6.34 19 5.68 19 5 19 C3.50178941 22.37097383 3 24.20442119 3 28 C6.05693322 29.52846661 8.62984547 29.23242445 12 29 C14.40083438 27.64114884 14.40083438 27.64114884 16 26 C14.87548273 28.9719385 13.77706209 31.33440687 12 34 C4.81783567 31.72564796 -2.0758202 28.96415819 -9 26 C-8.40832031 25.16597656 -7.81664062 24.33195312 -7.20703125 23.47265625 C-4.875976 19.96938971 -3.247065 16.33445817 -1.6875 12.4375 C-1.41099609 11.79103516 -1.13449219 11.14457031 -0.84960938 10.47851562 C0.71815089 6.59663063 1.31965495 4.02070308 0 0 Z " fill="#0A0A0A" transform="translate(169,334)"/>
<path d="M0 0 C4.92908146 3.87792288 8.5423711 7.76116833 12 13 C11.34 13.33 10.68 13.66 10 14 C9.505 13.01 9.505 13.01 9 12 C5.8471507 13.36486983 4.02974498 14.83759259 1.875 17.5 C-2.39013248 22.71539516 -2.39013248 22.71539516 -4.875 23.875 C-7.51648198 25.27343164 -9.17025189 26.6281043 -11 29 C-10.85974801 31.70705512 -10.85974801 31.70705512 -10 34 C-13.88397689 32.44997253 -16.02979619 29.99523379 -18.75 26.875 C-19.54921875 25.96492188 -20.3484375 25.05484375 -21.171875 24.1171875 C-21.77515625 23.41851562 -22.3784375 22.71984375 -23 22 C-21 21 -21 21 -18.61328125 20.6640625 C-15.4569482 19.86200478 -14.37034352 18.7554483 -12.1875 16.375 C-8.83777721 12.80834278 -5.33412077 9.7339436 -1.46875 6.73828125 C0.26158737 5.03230508 0.26158737 5.03230508 0.21875 2.29296875 C0.1465625 1.53628906 0.074375 0.77960938 0 0 Z " fill="#0A0A0A" transform="translate(331,131)"/>
<path d="M0 0 C4.62 0 9.24 0 14 0 C13.67 4.62 13.34 9.24 13 14 C13.66 14.33 14.32 14.66 15 15 C14.01 15.33 13.02 15.66 12 16 C12.28151916 18.12636813 12.57553263 20.25108528 12.875 22.375 C13.03742188 23.55835937 13.19984375 24.74171875 13.3671875 25.9609375 C13.7302585 29.09566659 13.7302585 29.09566659 16 31 C11.71 31 7.42 31 3 31 C2.95101562 28.92976563 2.90203125 26.85953125 2.8515625 24.7265625 C2.79594311 22.72426441 2.74025603 20.72196754 2.68261719 18.71972656 C2.64430673 17.32691428 2.60945741 15.93400235 2.578125 14.54101562 C2.53252093 12.54013692 2.47348377 10.53957854 2.4140625 8.5390625 C2.3826416 7.33459473 2.3512207 6.13012695 2.31884766 4.88916016 C2.29084774 1.8739982 2.29084774 1.8739982 0 0 Z " fill="#0B0B0B" transform="translate(234,103)"/>
<path d="M0 0 C1.125 4.75 1.125 4.75 0 7 C-0.99 7 -1.98 7 -3 7 C-3 8.32 -3 9.64 -3 11 C-2.01 11.33 -1.02 11.66 0 12 C0 13.65 0 15.3 0 17 C-0.66 17 -1.32 17 -2 17 C-1.67 17.66 -1.34 18.32 -1 19 C-0.01 19 0.98 19 2 19 C2.13277344 19.92683594 2.26554688 20.85367188 2.40234375 21.80859375 C2.57894531 23.00613281 2.75554687 24.20367187 2.9375 25.4375 C3.11152344 26.63246094 3.28554687 27.82742187 3.46484375 29.05859375 C3.68985213 31.87955676 3.68985213 31.87955676 5 33 C5.04080783 34.99958364 5.04254356 37.00045254 5 39 C4.34 38.67 3.68 38.34 3 38 C3.2165625 38.61488281 3.433125 39.22976562 3.65625 39.86328125 C3.9346875 40.67152344 4.213125 41.47976562 4.5 42.3125 C4.7784375 43.11300781 5.056875 43.91351563 5.34375 44.73828125 C6 47 6 47 6 50 C6.66 50 7.32 50 8 50 C8 50.99 8 51.98 8 53 C6.21875 52.89453125 6.21875 52.89453125 4 52 C2.58476856 49.87404927 1.5405735 47.99215357 0.5 45.6875 C0.19956787 45.02814453 -0.10086426 44.36878906 -0.41040039 43.68945312 C-5.712231 31.31137163 -9.10541623 15.46707679 -7 2 C-4 0 -4 0 0 0 Z " fill="#224669" transform="translate(211,171)"/>
<path d="M0 0 C0.66 1.98 1.32 3.96 2 6 C1.34 6 0.68 6 0 6 C-0.33 5.34 -0.66 4.68 -1 4 C-3.32156597 3.59270772 -5.6568787 3.25561323 -8 3 C-7.63648438 3.93851807 -7.63648438 3.93851807 -7.265625 4.89599609 C-6.17362937 7.7210098 -5.08675568 10.54796664 -4 13.375 C-3.6184375 14.35984375 -3.236875 15.3446875 -2.84375 16.359375 C-2.4828125 17.30039062 -2.121875 18.24140625 -1.75 19.2109375 C-1.41484375 20.08024902 -1.0796875 20.94956055 -0.734375 21.84521484 C0 24 0 24 0 26 C1.32 26.33 2.64 26.66 4 27 C2.04578965 27.86355778 0.08648653 28.71559934 -1.875 29.5625 C-2.96554687 30.03816406 -4.05609375 30.51382812 -5.1796875 31.00390625 C-6.11039062 31.33261719 -7.04109375 31.66132813 -8 32 C-8.66 31.67 -9.32 31.34 -10 31 C-9.67 30.67 -9.34 30.34 -9 30 C-9.25550599 23.35684439 -11.43495305 17.8783866 -13.94140625 11.7578125 C-15 9 -15 9 -15 7 C-17.53744315 7.54708727 -17.53744315 7.54708727 -20 9 C-20.89830839 12.05272465 -20.89830839 12.05272465 -21 15 C-23.35953094 12.64046906 -23.49141413 11.22104383 -24 8 C-5.02766798 0 -5.02766798 0 0 0 Z " fill="#0C0C0C" transform="translate(328,336)"/>
<path d="M0 0 C1.18836889 3.00063144 0.97879859 4.95484884 0 8 C-0.66 8 -1.32 8 -2 8 C-2.391875 7.030625 -2.78375 6.06125 -3.1875 5.0625 C-4.67594887 1.77823609 -4.67594887 1.77823609 -7.6875 1.125 C-8.450625 1.08375 -9.21375 1.0425 -10 1 C-15.10061912 6.9507223 -16.21945541 11.09418942 -16.265625 18.79296875 C-16.20564923 21.20604886 -16.20564923 21.20604886 -14 23 C-10.46782421 22.67889311 -7.36550494 22.12183498 -4 21 C-4 21.66 -4 22.32 -4 23 C-8.56131079 25.61697324 -12.85371712 25.79548221 -18 25 C-21.44072683 23.30070226 -23.48634339 20.91057308 -25.375 17.5625 C-26.62046857 12.45607887 -26.44414159 9.33865787 -23.75 4.8125 C-20.67272821 0.32088323 -18.74036074 -1.58703304 -13.3125 -2.875 C-8.6695101 -3.30264381 -4.01382871 -2.43288961 0 0 Z " fill="#0C0C0C" transform="translate(218,349)"/>
<path d="M0 0 C4.10989226 1.95709155 8.92366467 4.84732933 11 9 C9.68 10.65 8.36 12.3 7 14 C6.896875 12.906875 6.79375 11.81375 6.6875 10.6875 C6.26670395 7.16452291 6.26670395 7.16452291 4.8125 5.125 C2.30025086 3.56567295 -0.09150946 3.32316562 -3 3 C-1.9969719 6.73855927 -0.7655893 9.44418422 1.625 12.4375 C3.60786706 15.11082969 4.02935322 16.17024869 4.625 19.625 C3.81545413 23.99654771 2.62467025 25.45501876 -1 28 C-4.8125 28.3125 -4.8125 28.3125 -8 28 C-8.33 27.34 -8.66 26.68 -9 26 C-7.68 25.34 -6.36 24.68 -5 24 C-4.64251017 19.762256 -5.42955496 17.90050849 -8 14.5625 C-10.0098625 11.69535018 -10.96591034 10.18067519 -11.625 6.6875 C-10.10854893 0.16676038 -6.21275997 -0.76297052 0 0 Z " fill="#090909" transform="translate(153,324)"/>
<path d="M0 0 C3.96 0 7.92 0 12 0 C11.93997273 3.08540148 11.85294971 6.16598466 11.75 9.25 C11.72873047 10.55904297 11.72873047 10.55904297 11.70703125 11.89453125 C11.46119332 18.33548489 11.46119332 18.33548489 9.18359375 21.6171875 C7 23 7 23 3.3125 22.875 C2.219375 22.58625 1.12625 22.2975 0 22 C-3.02316413 15.95367174 -0.73878447 6.46436407 0 0 Z " fill="#F3F3F3" transform="translate(233,354)"/>
<path d="M0 0 C-0.33 1.32 -0.66 2.64 -1 4 C-1.89924194 4.12060791 -1.89924194 4.12060791 -2.81665039 4.24365234 C-5.56601347 4.61546743 -8.31423278 4.99517304 -11.0625 5.375 C-12.47692383 5.56449219 -12.47692383 5.56449219 -13.91992188 5.7578125 C-19.10996155 6.48116298 -24.00581892 7.40684931 -29 9 C-28.40316406 8.9278125 -27.80632812 8.855625 -27.19140625 8.78125 C-18.45272839 7.8463543 -9.77484168 7.90741668 -1 8 C-1 8.33 -1 8.66 -1 9 C-2.25554687 9.12117187 -3.51109375 9.24234375 -4.8046875 9.3671875 C-13.30439517 10.21045623 -21.66080618 11.08608666 -30 13 C-30.33 13.99 -30.66 14.98 -31 16 C-31.825 16.268125 -32.65 16.53625 -33.5 16.8125 C-34.325 17.204375 -35.15 17.59625 -36 18 C-36.89830839 21.05272465 -36.89830839 21.05272465 -37 24 C-38.32 24 -39.64 24 -41 24 C-41.36783439 17.50159236 -41.36783439 17.50159236 -39.625 15.125 C-38 14 -38 14 -36 13 C-37.65 13 -39.3 13 -41 13 C-41 12.34 -41 11.68 -41 11 C-39.73160474 10.49384702 -38.46016898 9.99530901 -37.1875 9.5 C-36.47980469 9.2215625 -35.77210938 8.943125 -35.04296875 8.65625 C-33 8 -33 8 -30 8 C-30 7.34 -30 6.68 -30 6 C-30.99 5.34 -31.98 4.68 -33 4 C-21.90845043 1.70370263 -11.37998363 -0.20987675 0 0 Z " fill="#1474B2" transform="translate(254,162)"/>
<path d="M0 0 C0.99 0 1.98 0 3 0 C3.20753906 0.92039063 3.41507813 1.84078125 3.62890625 2.7890625 C6.69277774 15.37785666 11.02181063 26.36486995 20 36 C20 36.66 20 37.32 20 38 C20.61875 38.268125 21.2375 38.53625 21.875 38.8125 C24 40 24 40 26 43 C23.17004013 43.53061747 21.72764788 43.72840597 19 43 C8.45528987 34.65896952 2.56149851 20.82301679 0 8 C-0.24847198 5.22200185 -0.22299374 2.7874218 0 0 Z " fill="#248EC9" transform="translate(215,192)"/>
<path d="M0 0 C-1.98 0.99 -1.98 0.99 -4 2 C-3.34 2.33 -2.68 2.66 -2 3 C-2 7.95 -2 12.9 -2 18 C-5.34291179 16.32854411 -7.49328776 14.9095707 -10.25 12.5 C-11.30960938 11.58734375 -11.30960938 11.58734375 -12.390625 10.65625 C-14 9 -14 9 -14 7 C-18.9723422 8.49170266 -23.41845739 10.60457417 -28 13 C-28 11.68 -28 10.36 -28 9 C-25.12709627 7.70363485 -22.25131838 6.41376901 -19.375 5.125 C-18.56675781 4.76019531 -17.75851563 4.39539063 -16.92578125 4.01953125 C-4.26669408 -1.64103618 -4.26669408 -1.64103618 0 0 Z " fill="#F6F6F6" transform="translate(209,109)"/>
<path d="M0 0 C12.87 0.495 12.87 0.495 26 1 C26 4.63 26 8.26 26 12 C24.35 12 22.7 12 21 12 C21 9.36 21 6.72 21 4 C18.37405216 4.1136515 15.74988453 4.24039054 13.125 4.375 C12.37863281 4.4059375 11.63226563 4.436875 10.86328125 4.46875 C6.46526812 4.55643831 6.46526812 4.55643831 3 7 C-0.2578125 7.1953125 -0.2578125 7.1953125 -4.125 7.125 C-6.04699219 7.09792969 -6.04699219 7.09792969 -8.0078125 7.0703125 C-9.48894531 7.03550781 -9.48894531 7.03550781 -11 7 C-11.33 6.34 -11.66 5.68 -12 5 C-8.37 5 -4.74 5 -1 5 C-0.67 3.35 -0.34 1.7 0 0 Z " fill="#466781" transform="translate(230,184)"/>
<path d="M0 0 C0.66 0.66 1.32 1.32 2 2 C2.99 2 3.98 2 5 2 C5.13277344 2.92683594 5.26554688 3.85367188 5.40234375 4.80859375 C5.57894531 6.00613281 5.75554687 7.20367187 5.9375 8.4375 C6.11152344 9.63246094 6.28554687 10.82742187 6.46484375 12.05859375 C6.68985213 14.87955676 6.68985213 14.87955676 8 16 C8.04080783 17.99958364 8.04254356 20.00045254 8 22 C7.34 21.67 6.68 21.34 6 21 C6.2165625 21.61488281 6.433125 22.22976562 6.65625 22.86328125 C6.9346875 23.67152344 7.213125 24.47976562 7.5 25.3125 C7.7784375 26.11300781 8.056875 26.91351563 8.34375 27.73828125 C9 30 9 30 9 33 C9.66 33 10.32 33 11 33 C11 33.99 11 34.98 11 36 C9.12231445 35.70239258 9.12231445 35.70239258 7 35 C5.51907867 32.54953337 4.33677533 30.28491084 3.1875 27.6875 C2.86330078 27.01009766 2.53910156 26.33269531 2.20507812 25.63476562 C0.52561539 21.95577123 -0.26031584 19.84663862 1 16 C1.66 16 2.32 16 3 16 C2.7834375 15.34773437 2.566875 14.69546875 2.34375 14.0234375 C0.81497692 9.22478868 -0.40269324 5.10078102 0 0 Z " fill="#224D74" transform="translate(208,188)"/>
<path d="M0 0 C0.66 0.33 1.32 0.66 2 1 C1.01 3.31 0.02 5.62 -1 8 C-18.16 8.33 -35.32 8.66 -53 9 C-47.39 9.33 -41.78 9.66 -36 10 C-36 11.32 -36 12.64 -36 14 C-25.77 14 -15.54 14 -5 14 C-5 14.33 -5 14.66 -5 15 C-15.56 15 -26.12 15 -37 15 C-37 13.68 -37 12.36 -37 11 C-47.89 11.495 -47.89 11.495 -59 12 C-59 10.35 -59 8.7 -59 7 C-40.19 7 -21.38 7 -2 7 C-1.67 5.02 -1.34 3.04 -1 1 C-0.67 0.67 -0.34 0.34 0 0 Z " fill="#5C7992" transform="translate(284,194)"/>
<path d="M0 0 C7.26 0 14.52 0 22 0 C22 1.98 22 3.96 22 6 C14.74 6 7.48 6 0 6 C0 4.02 0 2.04 0 0 Z " fill="#4C5C68" transform="translate(183,275)"/>
<path d="M0 0 C-0.33 1.32 -0.66 2.64 -1 4 C-4.33316217 4.48036217 -7.66656013 4.95906904 -11 5.4375 C-11.93457031 5.57220703 -12.86914062 5.70691406 -13.83203125 5.84570312 C-19.21578507 6.6175 -24.60086513 7.34420885 -30 8 C-30 7.34 -30 6.68 -30 6 C-30.99 5.34 -31.98 4.68 -33 4 C-21.90845043 1.70370263 -11.37998363 -0.20987675 0 0 Z " fill="#3179AA" transform="translate(254,162)"/>
<path d="M0 0 C-1.22585774 8.46425584 -11.60360468 15.93618704 -18 21 C-22.26210826 24.0997151 -22.26210826 24.0997151 -25.3125 23.6875 C-25.869375 23.460625 -26.42625 23.23375 -27 23 C-26.67 22.34 -26.34 21.68 -26 21 C-25.01 21 -24.02 21 -23 21 C-23 20.01 -23 19.02 -23 18 C-20.07324289 16.08512946 -17.01577642 14.53513748 -13.91796875 12.9140625 C-9.98138904 10.33183485 -8.58468409 7.6760944 -7.0625 3.3125 C-6 1 -6 1 -4 -0.375 C-2 -1 -2 -1 0 0 Z " fill="#1F4061" transform="translate(283,226)"/>
<path d="M0 0 C0.45510807 6.67491831 -1.2327574 12.59374557 -3 19 C-3.33 17.68 -3.66 16.36 -4 15 C-6.31 15.33 -8.62 15.66 -11 16 C-11 14.68 -11 13.36 -11 12 C-11.66 11.67 -12.32 11.34 -13 11 C-12.67 10.34 -12.34 9.68 -12 9 C-10.68 9 -9.36 9 -8 9 C-7.773125 8.443125 -7.54625 7.88625 -7.3125 7.3125 C-5.959128 4.92798742 -3.0264068 0 0 0 Z " fill="#19507D" transform="translate(295,191)"/>
<path d="M0 0 C1.26348267 0.11746582 1.26348267 0.11746582 2.55249023 0.23730469 C8.63523735 0.88523735 8.63523735 0.88523735 10.875 3.125 C10.8515625 5.2890625 10.8515625 5.2890625 10.5 7.75 C10.38914062 8.56726563 10.27828125 9.38453125 10.1640625 10.2265625 C10.02097656 11.16628906 10.02097656 11.16628906 9.875 12.125 C9.545 12.125 9.215 12.125 8.875 12.125 C8.875 9.155 8.875 6.185 8.875 3.125 C-2.54968687 1.259745 -13.59654944 1.61147656 -24.84570312 4.14550781 C-28.24557394 4.89237036 -30.81582983 5.39002455 -34.125 4.125 C-32.125 1.125 -32.125 1.125 -30.1640625 0.39453125 C-19.99170376 -1.53130366 -10.24587887 -0.99472688 0 0 Z " fill="#3691C9" transform="translate(256.125,172.875)"/>
<path d="M0 0 C3.71599191 -0.20086443 4.77208445 -0.1519437 8 2 C9.9896995 2.39013716 11.99019869 2.73202649 14 3 C14 3.66 14 4.32 14 5 C13.01 5.495 13.01 5.495 12 6 C11.67 6.99 11.34 7.98 11 9 C9.4375 10.6875 9.4375 10.6875 8 12 C5.08482708 10.92598892 3.22189824 10.22189824 1 8 C0.875 5.375 0.875 5.375 1 3 C0.34 3 -0.32 3 -1 3 C-0.67 2.01 -0.34 1.02 0 0 Z " fill="#184A76" transform="translate(234,238)"/>
<path d="M0 0 C0.99 0.33 1.98 0.66 3 1 C3.8125 3.6875 3.8125 3.6875 4 7 C1.875 9.875 1.875 9.875 -1 12 C-3.8125 12.3125 -3.8125 12.3125 -6 12 C-6.66 10.68 -7.32 9.36 -8 8 C-5.36 5.36 -2.72 2.72 0 0 Z " fill="#F4F4F4" transform="translate(338,142)"/>
<path d="M0 0 C1.7790973 2.66864595 2.77003287 4.84004711 3.875 7.8125 C5.50108124 11.98773867 7.34789897 15.40072003 10 19 C9.67 19.66 9.34 20.32 9 21 C7.68 20.34 6.36 19.68 5 19 C5 18.34 5 17.68 5 17 C4.38640625 16.93296875 3.7728125 16.8659375 3.140625 16.796875 C1 16 1 16 -0.265625 13.890625 C-0.75289062 12.58351562 -0.75289062 12.58351562 -1.25 11.25 C-1.58515625 10.38890625 -1.9203125 9.5278125 -2.265625 8.640625 C-3.01079114 5.96119783 -3.13926696 3.76544393 -3 1 C-2.01 2.485 -2.01 2.485 -1 4 C-0.67 2.68 -0.34 1.36 0 0 Z " fill="#185482" transform="translate(216,205)"/>
<path d="M0 0 C1.33732543 0.31693781 2.6701198 0.65314624 4 1 C6.90959378 1.08378506 9.79421241 1.11617895 12.703125 1.09765625 C13.54091492 1.0962413 14.37870483 1.09482635 15.24188232 1.09336853 C17.91129157 1.08778197 20.5806162 1.07523194 23.25 1.0625 C25.06249879 1.05748326 26.87499889 1.05292066 28.6875 1.04882812 C33.12503248 1.03781694 37.56250191 1.02056155 42 1 C42 1.66 42 2.32 42 3 C31.77 3 21.54 3 11 3 C11 3.99 11 4.98 11 6 C7.37 6 3.74 6 0 6 C-0.33 4.35 -0.66 2.7 -1 1 C-0.67 0.67 -0.34 0.34 0 0 Z " fill="#61788F" transform="translate(236,212)"/>
<path d="M0 0 C1.125 4.75 1.125 4.75 0 7 C-0.99 7 -1.98 7 -3 7 C-3.2165625 8.36125 -3.2165625 8.36125 -3.4375 9.75 C-3.86409473 12.21476956 -4.35074221 14.58847107 -5 17 C-5.66 17 -6.32 17 -7 17 C-7.08076963 14.54101345 -7.14037143 12.08466258 -7.1875 9.625 C-7.21263672 8.92632812 -7.23777344 8.22765625 -7.26367188 7.5078125 C-7.29296875 5.4765625 -7.29296875 5.4765625 -7 2 C-4 0 -4 0 0 0 Z " fill="#2E4F6E" transform="translate(211,171)"/>
<path d="M0 0 C0 4.31593134 -2.17808975 5.89531792 -4.984375 9.00390625 C-7.75924503 11.751888 -10.78350521 13.79260161 -14 16 C-14.66 16.99 -15.32 17.98 -16 19 C-17.32 19 -18.64 19 -20 19 C-19.67 17.68 -19.34 16.36 -19 15 C-19.66 14.67 -20.32 14.34 -21 14 C-17.37 11.69 -13.74 9.38 -10 7 C-10.33 8.32 -10.66 9.64 -11 11 C-6.86378916 7.6189962 -3.18683431 4.33409466 0 0 Z " fill="#18517F" transform="translate(275,224)"/>
<path d="M0 0 C1.32 0 2.64 0 4 0 C4 0.66 4 1.32 4 2 C9.28 2 14.56 2 20 2 C20 2.33 20 2.66 20 3 C15.05 3 10.1 3 5 3 C4.34 4.32 3.68 5.64 3 7 C-1.62 7 -6.24 7 -11 7 C-11.33 6.34 -11.66 5.68 -12 5 C-8.37 5 -4.74 5 -1 5 C-0.67 3.35 -0.34 1.7 0 0 Z " fill="#2F587A" transform="translate(230,184)"/>
<path d="M0 0 C0.66 0.66 1.32 1.32 2 2 C2.99 2 3.98 2 5 2 C5.13277344 2.92683594 5.26554688 3.85367188 5.40234375 4.80859375 C5.57894531 6.00613281 5.75554687 7.20367187 5.9375 8.4375 C6.11152344 9.63246094 6.28554687 10.82742187 6.46484375 12.05859375 C6.68985213 14.87955676 6.68985213 14.87955676 8 16 C8.04080783 17.99958364 8.04254356 20.00045254 8 22 C3.93762203 19.58476268 3.04679444 17.14909038 1.75 12.6875 C1.41484375 11.57761719 1.0796875 10.46773437 0.734375 9.32421875 C0.02094783 6.09482236 -0.13952141 3.29370196 0 0 Z " fill="#1A4A79" transform="translate(208,188)"/>
<path d="M0 0 C2.475 0.495 2.475 0.495 5 1 C6.50934217 4.01868434 6.17510672 6.67297229 6 10 C5.01 11.485 5.01 11.485 4 13 C2.68 12.67 1.36 12.34 0 12 C0 8.04 0 4.08 0 0 Z " fill="#EEEEEE" transform="translate(247,120)"/>
<path d="M0 0 C0.66 0.33 1.32 0.66 2 1 C2 1.66 2 2.32 2 3 C3.65 3 5.3 3 7 3 C6.67 3.66 6.34 4.32 6 5 C5.22785156 5.12632812 4.45570313 5.25265625 3.66015625 5.3828125 C0.3637925 6.14760761 -0.49315906 7.25351473 -2.5625 9.875 C-4.83673822 12.72173699 -7.0023393 14.91410043 -10 17 C-10.66 16.67 -11.32 16.34 -12 16 C-11.01 15.67 -10.02 15.34 -9 15 C-8.7525 14.175 -8.505 13.35 -8.25 12.5 C-6.4860121 7.56083389 -3.32539785 4.00114715 0 0 Z " fill="#254A6D" transform="translate(273,220)"/>
<path d="M0 0 C4.7632312 4.51253482 4.7632312 4.51253482 6.0625 7.1875 C7.28310909 9.54734425 8.6406599 9.89405933 11 11 C11.99 12.485 11.99 12.485 13 14 C9.875 14.4375 9.875 14.4375 6 14 C3.61317961 11.93418366 1.79950957 9.58391118 0 7 C1.32 7.33 2.64 7.66 4 8 C4 7.34 4 6.68 4 6 C2.68 5.67 1.36 5.34 0 5 C0 3.35 0 1.7 0 0 Z " fill="#2C8DC2" transform="translate(228,221)"/>
<path d="M0 0 C3.46225633 0.84632933 5.50406796 1.40146133 7.8125 4.1875 C9.19537289 7.46272526 9.65422087 10.47305285 10 14 C10.99 14.33 11.98 14.66 13 15 C13 15.66 13 16.32 13 17 C8.72363107 15.86163209 6.98774279 14.06163748 4.71679688 10.30078125 C4.37712891 9.70652344 4.03746094 9.11226562 3.6875 8.5 C3.32849609 7.90574219 2.96949219 7.31148437 2.59960938 6.69921875 C0 2.31206845 0 2.31206845 0 0 Z " fill="#1D88C6" transform="translate(219,212)"/>
<path d="M0 0 C7.26 0 14.52 0 22 0 C22 0.66 22 1.32 22 2 C19.59940183 3.20029908 18.10639351 3.11459743 15.4296875 3.09765625 C14.53378906 3.09443359 13.63789063 3.09121094 12.71484375 3.08789062 C11.77769531 3.07951172 10.84054687 3.07113281 9.875 3.0625 C8.93011719 3.05798828 7.98523438 3.05347656 7.01171875 3.04882812 C4.67441613 3.03702357 2.33723939 3.02055759 0 3 C0 2.01 0 1.02 0 0 Z " fill="#285277" transform="translate(247,215)"/>
<path d="M0 0 C1.65 0 3.3 0 5 0 C6.50662097 3.01324195 6.17770373 5.68286377 6 9 C5.34 9.66 4.68 10.32 4 11 C2.68 11 1.36 11 0 11 C0 7.37 0 3.74 0 0 Z " fill="#F2F2F2" transform="translate(265,353)"/>
<path d="M0 0 C5.85983633 0.51665968 10.60893883 1.75281077 16 4.0625 C16.67933594 4.34416016 17.35867188 4.62582031 18.05859375 4.91601562 C19.70939787 5.60191311 21.35525469 6.29969829 23 7 C23 7.99 23 8.98 23 10 C15.08090444 7.54234965 7.58014704 4.33181427 0 1 C0 0.67 0 0.34 0 0 Z " fill="#E7E7E7" transform="translate(287,107)"/>
<path d="M0 0 C-1 3 -1 3 -2.671875 3.94921875 C-6.56333025 5.33170943 -9.80183483 6.39357798 -14 6 C-14 5.34 -14 4.68 -14 4 C-14.66 3.67 -15.32 3.34 -16 3 C-5.62642369 -0.44419134 -5.62642369 -0.44419134 0 0 Z " fill="#2D6793" transform="translate(225,167)"/>
<path d="M0 0 C0.66 0 1.32 0 2 0 C5 6.625 5 6.625 5 10 C2.36 10 -0.28 10 -3 10 C-2.39009109 6.44219804 -1.4216319 3.3171411 0 0 Z " fill="#E7E9EA" transform="translate(261,268)"/>
<path d="M0 0 C6.75479274 -0.7342166 11.18524285 1.72408048 17 5 C13.7498086 6.91826441 13.06464009 7.0092343 9.0625 6.4375 C4.9932282 5.28897656 2.73276311 3.2451562 0 0 Z " fill="#1C6CA8" transform="translate(235,235)"/>
<path d="M0 0 C1.32 0.33 2.64 0.66 4 1 C5.34516765 7.35897436 5.34516765 7.35897436 3.6875 10.4375 C2 12 2 12 0 12 C0 8.04 0 4.08 0 0 Z " fill="#F5F5F5" transform="translate(247,105)"/>
<path d="M0 0 C0.33 0.66 0.66 1.32 1 2 C3.64 1.67 6.28 1.34 9 1 C6.64046906 3.35953094 5.22104383 3.49141413 2 4 C1.67 6.97 1.34 9.94 1 13 C0.67 12.01 0.34 11.02 0 10 C-2.01508358 9.26676204 -2.01508358 9.26676204 -4 9 C-4 7.68 -4 6.36 -4 5 C-3.01 5 -2.02 5 -1 5 C-0.67 3.35 -0.34 1.7 0 0 Z " fill="#105E96" transform="translate(212,173)"/>
<path d="M0 0 C2.64 1.98 5.28 3.96 8 6 C5 7 5 7 1.1875 6.8125 C-3.35441073 6.72015061 -5.50616035 8.20492828 -9 11 C-7.48761903 6.76533329 -4.64130156 5.40170954 -1 3 C-0.67 2.01 -0.34 1.02 0 0 Z " fill="#1E1E1E" transform="translate(163,135)"/>
<path d="M0 0 C1.41791408 0.45445964 2.83428046 0.91374944 4.25 1.375 C5.43335938 1.75785156 5.43335938 1.75785156 6.640625 2.1484375 C8.86627958 2.95173667 10.90931672 3.89711662 13 5 C12.40138258 7.35171131 11.73075648 9.6859378 11 12 C10.01 12.495 10.01 12.495 9 13 C8.814375 11.906875 8.62875 10.81375 8.4375 9.6875 C7.42483472 6.0509502 7.42483472 6.0509502 5.30859375 4.8671875 C3.16349857 3.94073788 3.16349857 3.94073788 0 3 C0 2.01 0 1.02 0 0 Z " fill="#1D1D1D" transform="translate(297,112)"/>
<path d="M0 0 C-0.33 0.99 -0.66 1.98 -1 3 C-2.07314453 3.16822266 -2.07314453 3.16822266 -3.16796875 3.33984375 C-6.19115998 4.04456005 -8.56322688 5.13287798 -11.3125 6.5625 C-12.19550781 7.01753906 -13.07851562 7.47257812 -13.98828125 7.94140625 C-14.65214844 8.29074219 -15.31601563 8.64007813 -16 9 C-16 7.68 -16 6.36 -16 5 C-13.90163996 3.96728358 -11.79609109 2.94916283 -9.6875 1.9375 C-8.51574219 1.36902344 -7.34398437 0.80054687 -6.13671875 0.21484375 C-3 -1 -3 -1 0 0 Z " fill="#DFDFDF" transform="translate(197,113)"/>
<path d="M0 0 C0.33 0.66 0.66 1.32 1 2 C0.22265625 3.7265625 0.22265625 3.7265625 -0.9375 5.625 C-1.618125 6.73875 -2.29875 7.8525 -3 9 C-7.72065967 7.45730076 -12.41664092 5.92205381 -17 4 C-17 3.67 -17 3.34 -17 3 C-16.10796875 3.11859375 -15.2159375 3.2371875 -14.296875 3.359375 C-12.54117187 3.55273438 -12.54117187 3.55273438 -10.75 3.75 C-9.58984375 3.88921875 -8.4296875 4.0284375 -7.234375 4.171875 C-3.89646013 4.3144384 -3.89646013 4.3144384 -1.578125 2.015625 C-1.05734375 1.35046875 -0.5365625 0.6853125 0 0 Z " fill="#1D1D1D" transform="translate(302,138)"/>
<path d="M0 0 C-0.33 1.32 -0.66 2.64 -1 4 C-4.3 4.33 -7.6 4.66 -11 5 C-10.67 4.34 -10.34 3.68 -10 3 C-12.64 2.67 -15.28 2.34 -18 2 C-18 1.67 -18 1.34 -18 1 C-11.95170514 0.10395632 -6.1105424 -0.11269443 0 0 Z " fill="#347FB1" transform="translate(254,162)"/>
<path d="M0 0 C0.66 0.33 1.32 0.66 2 1 C1.67 1.66 1.34 2.32 1 3 C0.84995027 4.3734635 0.75161994 5.7528526 0.68359375 7.1328125 C0.64169922 7.93847656 0.59980469 8.74414062 0.55664062 9.57421875 C0.49766602 10.83685547 0.49766602 10.83685547 0.4375 12.125 C0.39431641 12.97449219 0.35113281 13.82398437 0.30664062 14.69921875 C0.20045764 16.79928223 0.09971503 18.89961948 0 21 C-0.33 21 -0.66 21 -1 21 C-1.90413673 17.16275828 -2.10576898 13.62497726 -2.0625 9.6875 C-2.05347656 8.61886719 -2.04445312 7.55023438 -2.03515625 6.44921875 C-2.01775391 5.23685547 -2.01775391 5.23685547 -2 4 C-3.32 3.67 -4.64 3.34 -6 3 C-4.03533587 1.93224776 -2.03144641 0.93446535 0 0 Z " fill="#242424" transform="translate(209,108)"/>
<path d="M0 0 C0.33 0.66 0.66 1.32 1 2 C-1.06172613 2.33808686 -3.1244203 2.67027361 -5.1875 3 C-6.91033203 3.2784375 -6.91033203 3.2784375 -8.66796875 3.5625 C-11.50415393 3.93489477 -14.14719564 4.08596021 -17 4 C-15 1 -15 1 -12.4375 0.3125 C-8.27705498 -0.06572227 -4.17383087 -0.08347662 0 0 Z " fill="#1789CD" transform="translate(241,168)"/>
<path d="M0 0 C0.33 0 0.66 0 1 0 C2.48379445 5.93517779 3.01835968 10.92556361 0.3125 16.4375 C-2.19915015 19.22067989 -3.3226295 19.79570164 -7 20 C-7.33 19.34 -7.66 18.68 -8 18 C-7.21625 17.71125 -6.4325 17.4225 -5.625 17.125 C-2.90328368 16.15087746 -2.90328368 16.15087746 -1 14 C-0.69940057 11.63490639 -0.50484988 9.25558119 -0.375 6.875 C-0.30023438 5.59367187 -0.22546875 4.31234375 -0.1484375 2.9921875 C-0.09945312 2.00476563 -0.05046875 1.01734375 0 0 Z " fill="#3F3F3F" transform="translate(244,359)"/>
<path d="M0 0 C0 3.57575896 -1.08840607 5.05295935 -3 8 C-4.43931117 7.54738642 -5.87638999 7.08767021 -7.3125 6.625 C-8.11300781 6.36976563 -8.91351563 6.11453125 -9.73828125 5.8515625 C-12 5 -12 5 -15 3 C-13.75283203 3.05220703 -13.75283203 3.05220703 -12.48046875 3.10546875 C-11.39378906 3.13253906 -10.30710938 3.15960938 -9.1875 3.1875 C-8.10855469 3.22230469 -7.02960938 3.25710938 -5.91796875 3.29296875 C-2.98051156 3.26536952 -2.98051156 3.26536952 -1.11328125 1.48828125 C-0.74589844 0.99714844 -0.37851563 0.50601562 0 0 Z " fill="#2A2A2A" transform="translate(184,360)"/>
<path d="M0 0 C0 0.66 0 1.32 0 2 C1.32 2.66 2.64 3.32 4 4 C-2.625 8 -2.625 8 -6 8 C-6 7.34 -6 6.68 -6 6 C-5.34 6 -4.68 6 -4 6 C-4.33 4.68 -4.66 3.36 -5 2 C-2 0 -2 0 0 0 Z " fill="#2B4D6E" transform="translate(255,247)"/>
<path d="M0 0 C0.33 0.66 0.66 1.32 1 2 C0.00390625 4.6015625 0.00390625 4.6015625 -1.4375 7.625 C-1.91058594 8.62789062 -2.38367188 9.63078125 -2.87109375 10.6640625 C-3.24363281 11.43492187 -3.61617188 12.20578125 -4 13 C-4.33 13 -4.66 13 -5 13 C-7.125 6.25 -7.125 6.25 -6 4 C-4.35178756 2.96986723 -2.68496298 1.96885372 -1 1 C-0.67 0.67 -0.34 0.34 0 0 Z " fill="#1A1A1A" transform="translate(300,122)"/>
<path d="M0 0 C0.33 0.66 0.66 1.32 1 2 C0.00390625 4.6015625 0.00390625 4.6015625 -1.4375 7.625 C-1.91058594 8.62789063 -2.38367188 9.63078125 -2.87109375 10.6640625 C-3.24363281 11.43492187 -3.61617187 12.20578125 -4 13 C-4.33 13 -4.66 13 -5 13 C-5.185625 11.576875 -5.185625 11.576875 -5.375 10.125 C-5.71687177 6.91332809 -5.71687177 6.91332809 -8 5 C-7.05125 4.731875 -6.1025 4.46375 -5.125 4.1875 C-1.74732727 3.25013412 -1.74732727 3.25013412 0 0 Z " fill="#323232" transform="translate(182,346)"/>
<path d="M0 0 C0.66 0.33 1.32 0.66 2 1 C1.34 6.28 0.68 11.56 0 17 C-0.33 17 -0.66 17 -1 17 C-1 12.71 -1 8.42 -1 4 C-2.32 3.67 -3.64 3.34 -5 3 C-2.625 1.4375 -2.625 1.4375 0 0 Z " fill="#494949" transform="translate(352,321)"/>
<path d="M0 0 C3.97229531 1.5067327 8.07755019 4.15510037 10 8 C8.68 9.65 7.36 11.3 6 13 C5.896875 11.906875 5.79375 10.81375 5.6875 9.6875 C4.95357956 5.55275364 4.95357956 5.55275364 2 3 C-0.09989652 1.82425289 -0.09989652 1.82425289 -2 1 C-1.34 0.67 -0.68 0.34 0 0 Z " fill="#1E1E1E" transform="translate(154,325)"/>
<path d="M0 0 C1.32 0 2.64 0 4 0 C4.66 1.65 5.32 3.3 6 5 C4.68 5.33 3.36 5.66 2 6 C2 8.31 2 10.62 2 13 C1.67 13 1.34 13 1 13 C0.67 8.71 0.34 4.42 0 0 Z " fill="#1C6198" transform="translate(213,186)"/>
<path d="M0 0 C1.125 4.75 1.125 4.75 0 7 C-3 6 -3 6 -5 5 C-5.625 2.9375 -5.625 2.9375 -6 1 C-4 0 -4 0 0 0 Z " fill="#255076" transform="translate(211,171)"/>
<path d="M0 0 C3.3 0 6.6 0 10 0 C8.02 0.99 8.02 0.99 6 2 C5.01 3.485 5.01 3.485 4 5 C2.68 5 1.36 5 0 5 C0 3.35 0 1.7 0 0 Z " fill="#3B6081" transform="translate(225,201)"/>
<path d="M0 0 C0.33 0 0.66 0 1 0 C1.33 2.97 1.66 5.94 2 9 C0.35 8.67 -1.3 8.34 -3 8 C-2.67 6.02 -2.34 4.04 -2 2 C-1.34 2 -0.68 2 0 2 C0 1.34 0 0.68 0 0 Z " fill="#2C587D" transform="translate(268,180)"/>
<path d="M0 0 C2.64 0.99 5.28 1.98 8 3 C7.625 5.9375 7.625 5.9375 7 9 C6.01 9.495 6.01 9.495 5 10 C4.62875 8.6078125 4.62875 8.6078125 4.25 7.1875 C2.93545755 3.83541675 2.02036616 2.8122197 -1 1 C-0.67 0.67 -0.34 0.34 0 0 Z " fill="#202020" transform="translate(182,339)"/>
<path d="M0 0 C0.33 0.66 0.66 1.32 1 2 C-3.625 7.875 -3.625 7.875 -7 9 C-7.99 8.34 -8.98 7.68 -10 7 C-6.7 4.69 -3.4 2.38 0 0 Z " fill="#345878" transform="translate(264,231)"/>
<path d="M0 0 C0 2.97 0 5.94 0 9 C-0.99 9.495 -0.99 9.495 -2 10 C-4.06878307 5.61904762 -4.06878307 5.61904762 -3.75 2.75 C-2.92836547 0.83285276 -2.22029759 0 0 0 Z " fill="#335577" transform="translate(212,203)"/>
<path d="M0 0 C0.66 0.33 1.32 0.66 2 1 C2 1.66 2 2.32 2 3 C3.65 3 5.3 3 7 3 C6.67 3.66 6.34 4.32 6 5 C4.33499557 5.34153937 2.66821323 5.67449498 1 6 C0.34 6.66 -0.32 7.32 -1 8 C-1 7.34 -1 6.68 -1 6 C-1.66 6 -2.32 6 -3 6 C-2 4 -1 2 0 0 Z " fill="#294D70" transform="translate(273,220)"/>
<path d="M0 0 C0.66 0.66 1.32 1.32 2 2 C0.7934375 2.309375 0.7934375 2.309375 -0.4375 2.625 C-1.7059375 3.305625 -1.7059375 3.305625 -3 4 C-3.89830839 7.05272465 -3.89830839 7.05272465 -4 10 C-6.35953094 7.64046906 -6.49141413 6.22104383 -7 3 C-4.69 2.01 -2.38 1.02 0 0 Z " fill="#242424" transform="translate(311,341)"/>
<path d="M0 0 C2.74277578 3.19990508 4.6302836 6.00499382 6 10 C3.525 9.01 3.525 9.01 1 8 C1 7.34 1 6.68 1 6 C0.34 6 -0.32 6 -1 6 C-0.67 4.02 -0.34 2.04 0 0 Z " fill="#15598C" transform="translate(220,216)"/>
<path d="M0 0 C2.475 0.495 2.475 0.495 5 1 C5.98120464 4.05263664 5.98120464 5.94736336 5 9 C4.34 9 3.68 9 3 9 C2.690625 7.88625 2.38125 6.7725 2.0625 5.625 C1.17673517 2.2054845 1.17673517 2.2054845 0 0 Z " fill="#3A3A3A" transform="translate(213,348)"/>
<path d="M0 0 C2.475 0.99 2.475 0.99 5 2 C5 4.31 5 6.62 5 9 C0.57142857 3.85714286 0.57142857 3.85714286 0 0 Z " fill="#1381C5" transform="translate(219,212)"/>
<path d="M0 0 C0.28571429 7.42857143 0.28571429 7.42857143 -2 11 C-2 9.02 -2 7.04 -2 5 C-2.99 4.67 -3.98 4.34 -5 4 C-1.125 0 -1.125 0 0 0 Z " fill="#1E5E8F" transform="translate(295,191)"/>
<path d="M0 0 C0.66 1.98 1.32 3.96 2 6 C1.34 6 0.68 6 0 6 C-0.33 5.34 -0.66 4.68 -1 4 C-2.97888961 3.27306096 -4.97954558 2.60183749 -7 2 C-4 0 -4 0 0 0 Z " fill="#2D2D2D" transform="translate(328,336)"/>
<path d="M0 0 C1.98 0 3.96 0 6 0 C6.33 0.66 6.66 1.32 7 2 C6.01 3.485 6.01 3.485 5 5 C5 4.34 5 3.68 5 3 C2.69 3 0.38 3 -2 3 C-1.34 2.67 -0.68 2.34 0 2 C0 1.34 0 0.68 0 0 Z " fill="#264467" transform="translate(269,215)"/>
<path d="M0 0 C4.95 0.99 4.95 0.99 10 2 C10 2.33 10 2.66 10 3 C7.03 3.66 4.06 4.32 1 5 C0.67 3.35 0.34 1.7 0 0 Z " fill="#32597E" transform="translate(235,213)"/>
<path d="M0 0 C2.375 1.1875 2.375 1.1875 3.375 3.1875 C0 3.375 0 3.375 -3.625 3.1875 C-4.285 2.1975 -4.945 1.2075 -5.625 0.1875 C-2.625 -0.8125 -2.625 -0.8125 0 0 Z " fill="#1F7FB9" transform="translate(237.625,231.8125)"/>
<path d="M0 0 C1.98 0.495 1.98 0.495 4 1 C3.67 2.32 3.34 3.64 3 5 C1.68 4.67 0.36 4.34 -1 4 C-0.67 2.68 -0.34 1.36 0 0 Z " fill="#4D6078" transform="translate(250,221)"/>
<path d="M0 0 C0.66 0.33 1.32 0.66 2 1 C1.67 1.99 1.34 2.98 1 4 C-2.0625 5.1875 -2.0625 5.1875 -5 6 C-4.75 4.125 -4.75 4.125 -4 2 C-2.0625 0.6875 -2.0625 0.6875 0 0 Z " fill="#1D81BD" transform="translate(222,174)"/>
<path d="M0 0 C0 1.32 0 2.64 0 4 C-4.455 3.01 -4.455 3.01 -9 2 C-5.23312136 0.11656068 -3.97041037 -0.22057835 0 0 Z " fill="#2D81B8" transform="translate(279,175)"/>
<path d="M0 0 C2.97 0 5.94 0 9 0 C8.01 1.485 8.01 1.485 7 3 C3.875 3.1875 3.875 3.1875 1 3 C0.67 2.01 0.34 1.02 0 0 Z " fill="#1B6EA7" transform="translate(236,164)"/>
<path d="M0 0 C0.33 0.66 0.66 1.32 1 2 C3.52733235 2.65555119 3.52733235 2.65555119 6 3 C5.67 3.99 5.34 4.98 5 6 C1.34683329 4.75023244 0.21934164 4.32901247 -2 1 C-1.34 0.67 -0.68 0.34 0 0 Z " fill="#30557E" transform="translate(237,244)"/>
<path d="M0 0 C0 4.07746885 -1.52068051 5.83198065 -4 9 C-6.140625 9.6796875 -6.140625 9.6796875 -8 10 C-7.04367001 8.70684939 -6.08486149 7.41553147 -5.125 6.125 C-4.59132813 5.40570313 -4.05765625 4.68640625 -3.5078125 3.9453125 C-2 2 -2 2 0 0 Z " fill="#175180" transform="translate(276,229)"/>
<path d="M0 0 C0.66 0.66 1.32 1.32 2 2 C-0.97 4.475 -0.97 4.475 -4 7 C-4.66 6.67 -5.32 6.34 -6 6 C-5.01 5.67 -4.02 5.34 -3 5 C-2.6278958 3.67696283 -2.29369827 2.34262065 -2 1 C-1.34 0.67 -0.68 0.34 0 0 Z " fill="#14436C" transform="translate(267,230)"/>
<path d="M0 0 C0.66 0.66 1.32 1.32 2 2 C1.625 4.625 1.625 4.625 1 7 C-0.32 5.35 -1.64 3.7 -3 2 C-2.01 1.34 -1.02 0.68 0 0 Z " fill="#305C84" transform="translate(219,223)"/>
<path d="M0 0 C1.485 0.99 1.485 0.99 3 2 C3.1875 5.125 3.1875 5.125 3 8 C2.01 8 1.02 8 0 8 C0 5.36 0 2.72 0 0 Z " fill="#254B6C" transform="translate(252,188)"/>
</svg>
