<?xml version="1.0" encoding="UTF-8"?>
<svg version="1.1" xmlns="http://www.w3.org/2000/svg" width="375" height="666">
<path d="M0 0 C2.9375 0.1875 2.9375 0.1875 3.9375 1.1875 C3.80924317 7.55101193 3.05949072 13.86547283 1.9375 20.125 C-0.62922699 34.75132944 -0.35156144 49.75887145 -0.625 64.5625 C-0.66829066 66.76302733 -0.71190791 68.96354827 -0.75585938 71.1640625 C-0.86183661 76.50514042 -0.96378861 81.8462831 -1.0625 87.1875 C-0.35673828 85.90552734 -0.35673828 85.90552734 0.36328125 84.59765625 C0.98589844 83.49292969 1.60851562 82.38820313 2.25 81.25 C2.86488281 80.14785156 3.47976562 79.04570312 4.11328125 77.91015625 C5.9375 75.1875 5.9375 75.1875 8.9375 74.1875 C11.29859128 69.8100023 11.8881138 64.77452493 12.8125 59.9375 C14.1497651 53.21985234 15.71507549 47.28708926 18.9375 41.1875 C20.9175 41.6825 20.9175 41.6825 22.9375 42.1875 C22.3321472 49.08852194 21.07583937 55.76762121 19.65625 62.5390625 C18.47047632 68.5581528 17.81349432 74.29417746 17.83984375 80.43359375 C17.8412587 81.08957047 17.84267365 81.74554718 17.84413147 82.42140198 C17.84966969 84.48931702 17.86220998 86.55711842 17.875 88.625 C17.88002301 90.03840988 17.8845845 91.45182148 17.88867188 92.86523438 C17.89961874 96.30602568 17.91683962 99.74675172 17.9375 103.1875 C19.08863281 102.81238281 20.23976563 102.43726563 21.42578125 102.05078125 C61.74256174 89.0393012 61.74256174 89.0393012 72.9375 90.1875 C74.9375 92.1875 74.9375 92.1875 74.9375 95.1875 C72.15467028 96.57891486 69.53400229 96.60667711 66.4375 96.9375 C58.20046955 97.94829489 50.4209622 100.01297302 42.49121094 102.41503906 C40.67652481 102.96395559 38.85916269 103.50405942 37.04003906 104.03808594 C34.02150678 104.92566081 31.01021215 105.83464123 28 106.75 C26.56901978 107.17091919 26.56901978 107.17091919 25.10913086 107.6003418 C24.21846924 107.87789307 23.32780762 108.15544434 22.41015625 108.44140625 C21.61875244 108.68189697 20.82734863 108.9223877 20.01196289 109.17016602 C17.49517253 110.4044211 16.44121624 111.85777759 14.9375 114.1875 C14.11507812 113.97351563 13.29265625 113.75953125 12.4453125 113.5390625 C8.023838 113.09593031 4.94970094 114.11946887 0.8125 115.5625 C-0.58568074 116.0294154 -1.98411082 116.49558496 -3.3828125 116.9609375 C-4.59710938 117.36570312 -5.81140625 117.77046875 -7.0625 118.1875 C-8.39309918 118.53158532 -9.72583086 118.86780562 -11.0625 119.1875 C-10.9078125 120.12722656 -10.753125 121.06695312 -10.59375 122.03515625 C-9.90165233 126.88105846 -9.75005647 131.73811205 -9.5625 136.625 C-9.29104553 144.00575215 -9.29104553 144.00575215 -8.53515625 151.34765625 C-8.03909844 155.37761354 -7.96376381 159.12904662 -8 163.1875 C-8.00451172 163.86683594 -8.00902344 164.54617188 -8.01367188 165.24609375 C-8.0252717 166.89326874 -8.04319801 168.54039726 -8.0625 170.1875 C-9.7125 170.5175 -11.3625 170.8475 -13.0625 171.1875 C-13.80693359 169.59421875 -13.80693359 169.59421875 -14.56640625 167.96875 C-20.02448408 154.89911089 -20.02448408 154.89911089 -30.39453125 146.34375 C-32.76938249 145.78211102 -32.76938249 145.78211102 -35.046875 145.5390625 C-37.0625 145.1875 -37.0625 145.1875 -40.0625 143.1875 C-42.55832505 142.74501885 -44.98584518 142.39695117 -47.5 142.125 C-48.20850098 142.04193604 -48.91700195 141.95887207 -49.64697266 141.87329102 C-55.02265025 141.25804635 -60.40576468 140.7940123 -65.8046875 140.43359375 C-68.0625 140.1875 -68.0625 140.1875 -70.0625 139.1875 C-69.8828125 136.37890625 -69.8828125 136.37890625 -69.0625 133.1875 C-62.41652506 127.97242002 -53.12327912 125.68111541 -45.1171875 123.16796875 C-42.18590033 122.31272781 -42.18590033 122.31272781 -40.0625 121.1875 C-41.27678988 119.74361429 -41.27678988 119.74361429 -44.87890625 120.08984375 C-46.46096682 120.09651911 -48.04301159 120.10848125 -49.625 120.125 C-50.43130859 120.12951172 -51.23761719 120.13402344 -52.06835938 120.13867188 C-54.06643756 120.15049482 -56.06447783 120.16843086 -58.0625 120.1875 C-59.125 118.3125 -59.125 118.3125 -60.0625 116.1875 C-59.5675 115.1975 -59.5675 115.1975 -59.0625 114.1875 C-57.03922014 113.65382328 -54.99182646 113.21026253 -52.9375 112.8125 C-48.95919522 111.96559014 -45.61111225 111.22220704 -42.1875 109 C-38.53059199 106.87899335 -36.22070366 106.8480548 -32.0625 107.1875 C-32.18947266 106.60266846 -32.31644531 106.01783691 -32.44726562 105.4152832 C-34.05109055 97.75882122 -35.01602045 90.08012889 -35.91796875 82.31445312 C-36.03785156 81.33798828 -36.15773437 80.36152344 -36.28125 79.35546875 C-36.38373047 78.48172607 -36.48621094 77.6079834 -36.59179688 76.70776367 C-37.31189883 72.85215556 -38.42198603 69.95611677 -40.9375 66.9375 C-45.92878362 60.47819178 -47.93722031 52.66731048 -50.1328125 44.91015625 C-50.87577281 42.08044506 -50.87577281 42.08044506 -53.0625 40.1875 C-53.36925232 37.28782243 -53.57423371 34.46966822 -53.6875 31.5625 C-53.72617188 30.76070313 -53.76484375 29.95890625 -53.8046875 29.1328125 C-53.89903931 27.15142444 -53.98186215 25.16949355 -54.0625 23.1875 C-52.4125 22.8575 -50.7625 22.5275 -49.0625 22.1875 C-46.72255911 25.69741134 -46.42308195 28.15838683 -45.75 32.3125 C-44.68561003 38.44194253 -43.30541953 44.40244774 -41.5625 50.375 C-41.36100342 51.08092285 -41.15950684 51.7868457 -40.9519043 52.51416016 C-39.77466656 56.44143659 -38.34066744 59.77687141 -36.0625 63.1875 C-33.47023091 55.83325697 -31.45847112 48.36324152 -29.52807617 40.81323242 C-29.00165886 38.75648127 -28.46896449 36.70142974 -27.93554688 34.64648438 C-26.2661789 28.16973514 -24.6678258 21.73800285 -23.65454102 15.12084961 C-22.91451282 12.70423796 -22.1398971 11.62971202 -20.0625 10.1875 C-17.875 10.5 -17.875 10.5 -16.0625 11.1875 C-16.51193401 17.93077617 -17.65961365 23.96006478 -19.75 30.375 C-22.15338482 38.05786684 -24.34752744 45.77175472 -26.375 53.5625 C-26.75628052 55.01499146 -26.75628052 55.01499146 -27.14526367 56.49682617 C-28.93736626 63.42698012 -30.36105905 69.47960396 -29.50390625 76.6796875 C-29.29604492 78.47792969 -29.29604492 78.47792969 -29.08398438 80.3125 C-28.85678711 82.16875 -28.85678711 82.16875 -28.625 84.0625 C-28.47740234 85.32320313 -28.32980469 86.58390625 -28.17773438 87.8828125 C-27.81342306 90.98533465 -27.44143987 94.08673634 -27.0625 97.1875 C-26.67578125 96.06730469 -26.2890625 94.94710937 -25.890625 93.79296875 C-25.36526016 92.32007091 -24.83918095 90.84742774 -24.3125 89.375 C-23.93351562 88.26801758 -23.93351562 88.26801758 -23.546875 87.13867188 C-23.2890625 86.42646484 -23.03125 85.71425781 -22.765625 84.98046875 C-22.53520508 84.3258667 -22.30478516 83.67126465 -22.06738281 82.99682617 C-21.0625 81.1875 -21.0625 81.1875 -19.00341797 79.98266602 C-16.42015721 77.59339351 -16.50641754 75.54020589 -16.35568237 72.13372803 C-16.33885406 71.32131653 -16.32202576 70.50890503 -16.3046875 69.671875 C-16.25370407 68.39984222 -16.25370407 68.39984222 -16.20169067 67.10211182 C-16.09544567 64.38088097 -16.01509772 61.65968573 -15.9375 58.9375 C-15.81981479 55.39022334 -15.69133319 51.84347057 -15.5546875 48.296875 C-15.52148407 47.43175797 -15.48828064 46.56664093 -15.45407104 45.67530823 C-13.52451021 0.82803124 -13.52451021 0.82803124 0 0 Z M-4.0625 12.1875 C-3.0625 15.1875 -3.0625 15.1875 -3.0625 15.1875 Z M-5.0625 15.1875 C-10.87034757 38.22529537 -10.32238338 61.60808131 -10.0625 85.1875 C-6.81188237 81.27032466 -6.52359084 78.02204983 -6.375 73.0625 C-6.34011475 72.26626221 -6.30522949 71.47002441 -6.26928711 70.6496582 C-6.02737464 64.48665018 -6.07714648 58.33718399 -6.15161133 52.17163086 C-6.17793567 45.24080651 -5.53986097 38.41398545 -4.77368164 31.5300293 C-4.17369014 26.04339872 -3.97354518 20.70825877 -4.0625 15.1875 C-4.3925 15.1875 -4.7225 15.1875 -5.0625 15.1875 Z M6.9375 87.1875 C5.75346536 88.74247281 4.6155059 90.33265575 3.5 91.9375 C2.57380859 93.26007813 2.57380859 93.26007813 1.62890625 94.609375 C-0.07942582 97.06048162 -0.07942582 97.06048162 -1.05859375 99.4375 C-2.0625 101.1875 -2.0625 101.1875 -5.6875 102.4375 C-6.80125 102.685 -7.915 102.9325 -9.0625 103.1875 C-9.3925 106.1575 -9.7225 109.1275 -10.0625 112.1875 C-7.10346103 111.37750044 -4.14526689 110.56462017 -1.1875 109.75 C-0.34574219 109.51990234 0.49601562 109.28980469 1.36328125 109.05273438 C2.16894531 108.83037109 2.97460938 108.60800781 3.8046875 108.37890625 C4.54831543 108.17467041 5.29194336 107.97043457 6.05810547 107.76000977 C8.0011295 107.22533733 8.0011295 107.22533733 9.9375 106.1875 C10.15182579 99.54340042 9.44983701 93.65544133 7.9375 87.1875 C7.6075 87.1875 7.2775 87.1875 6.9375 87.1875 Z M-20.0625 95.1875 C-20.3925 97.4975 -20.7225 99.8075 -21.0625 102.1875 C-19.7425 101.5275 -18.4225 100.8675 -17.0625 100.1875 C-17.7225 98.5375 -18.3825 96.8875 -19.0625 95.1875 C-19.3925 95.1875 -19.7225 95.1875 -20.0625 95.1875 Z M-29.0625 111.1875 C-29.7225 111.8475 -30.3825 112.5075 -31.0625 113.1875 C-29.4125 112.8575 -27.7625 112.5275 -26.0625 112.1875 C-27.0525 111.8575 -28.0425 111.5275 -29.0625 111.1875 Z M-17.0625 112.1875 C-17.3925 112.8475 -17.7225 113.5075 -18.0625 114.1875 C-17.4025 114.1875 -16.7425 114.1875 -16.0625 114.1875 C-16.3925 113.5275 -16.7225 112.8675 -17.0625 112.1875 Z M-36.0625 113.1875 C-32.0625 114.1875 -32.0625 114.1875 -32.0625 114.1875 Z M-27.9375 123.375 C-29.26943829 123.83490472 -30.60147242 124.29453196 -31.93359375 124.75390625 C-32.61405762 124.99125488 -33.29452148 125.22860352 -33.99560547 125.47314453 C-36.67816644 126.40028526 -39.37275316 127.28867257 -42.06860352 128.17626953 C-47.78396644 130.05899432 -53.4520875 132.01203393 -59.0625 134.1875 C-59.0625 134.5175 -59.0625 134.8475 -59.0625 135.1875 C-58.45365967 135.28772461 -57.84481934 135.38794922 -57.2175293 135.49121094 C-26.65952509 140.59047491 -26.65952509 140.59047491 -15.0625 152.1875 C-15.3925 141.9575 -15.7225 131.7275 -16.0625 121.1875 C-20.8475571 121.1875 -23.5006623 121.8244922 -27.9375 123.375 Z " fill="#403F44" transform="translate(185.0625,251.8125)"/>
<path d="M0 0 C0.99 0.495 0.99 0.495 2 1 C2.59355614 3.64860427 2.74209269 6.29197322 3 9 C3.66 9 4.32 9 5 9 C5 15.6 5 22.2 5 29 C2.69 29.33 0.38 29.66 -2 30 C-4.24239183 30.6207313 -6.47269577 31.28706893 -8.6875 32 C-15.55861244 34.19617225 -15.55861244 34.19617225 -19 35 C-18.8453125 35.93972656 -18.690625 36.87945312 -18.53125 37.84765625 C-17.83915233 42.69355846 -17.68755647 47.55061205 -17.5 52.4375 C-17.22854553 59.81825215 -17.22854553 59.81825215 -16.47265625 67.16015625 C-15.97659844 71.19011354 -15.90126381 74.94154662 -15.9375 79 C-15.94201172 79.67933594 -15.94652344 80.35867188 -15.95117188 81.05859375 C-15.9627717 82.70576874 -15.98069801 84.35289726 -16 86 C-18.475 86.495 -18.475 86.495 -21 87 C-21.49628906 85.9378125 -21.99257812 84.875625 -22.50390625 83.78125 C-27.96198408 70.71161089 -27.96198408 70.71161089 -38.33203125 62.15625 C-40.70688249 61.59461102 -40.70688249 61.59461102 -42.984375 61.3515625 C-45 61 -45 61 -48 59 C-50.49582505 58.55751885 -52.92334518 58.20945117 -55.4375 57.9375 C-56.14600098 57.85443604 -56.85450195 57.77137207 -57.58447266 57.68579102 C-62.96015025 57.07054635 -68.34326468 56.6065123 -73.7421875 56.24609375 C-76 56 -76 56 -78 55 C-77.8203125 52.19140625 -77.8203125 52.19140625 -77 49 C-70.35402506 43.78492002 -61.06077912 41.49361541 -53.0546875 38.98046875 C-50.12340033 38.12522781 -50.12340033 38.12522781 -48 37 C-49.21428988 35.55611429 -49.21428988 35.55611429 -52.81640625 35.90234375 C-54.39846682 35.90901911 -55.98051159 35.92098125 -57.5625 35.9375 C-58.36880859 35.94201172 -59.17511719 35.94652344 -60.00585938 35.95117188 C-62.00393756 35.96299482 -64.00197783 35.98093086 -66 36 C-67.0625 34.125 -67.0625 34.125 -68 32 C-67.67 31.34 -67.34 30.68 -67 30 C-64.97672014 29.46632328 -62.92932646 29.02276253 -60.875 28.625 C-56.89669522 27.77809014 -53.54861225 27.03470704 -50.125 24.8125 C-46.46809199 22.69149335 -44.15820366 22.6605548 -40 23 C-40 23.33 -40 23.66 -40 24 C-40.969375 24.12375 -41.93875 24.2475 -42.9375 24.375 C-43.948125 24.58125 -44.95875 24.7875 -46 25 C-46.33 25.66 -46.66 26.32 -47 27 C-41.81116848 26.53671147 -37.6453327 25.58851289 -32.83203125 23.6328125 C-30.50023488 22.82737324 -28.44425031 22.77085153 -26 23 C-26.33 23.66 -26.66 24.32 -27 25 C-27.66 25 -28.32 25 -29 25 C-29 25.66 -29 26.32 -29 27 C-30.269553 27.64834654 -31.54069706 28.29357815 -32.8125 28.9375 C-33.52019531 29.29714844 -34.22789062 29.65679687 -34.95703125 30.02734375 C-37 31 -37 31 -40 32 C-34.7806288 32.6524214 -31.97090821 31.12076053 -27.734375 28.38671875 C-25.73594728 26.93267515 -25.73594728 26.93267515 -24 24 C-23.34 23.87625 -22.68 23.7525 -22 23.625 C-21.34 23.41875 -20.68 23.2125 -20 23 C-19.7525 22.21625 -19.505 21.4325 -19.25 20.625 C-18 18 -18 18 -16.20703125 17.21484375 C-15.49933594 16.99957031 -14.79164063 16.78429687 -14.0625 16.5625 C-10.5466252 15.45984546 -10.5466252 15.45984546 -8.4375 12.375 C-7.963125 11.26125 -7.48875 10.1475 -7 9 C-4.77197673 5.91504471 -2.39686378 2.95503754 0 0 Z M-1 3 C-2.18403464 4.55497281 -3.3219941 6.14515575 -4.4375 7.75 C-5.36369141 9.07257813 -5.36369141 9.07257813 -6.30859375 10.421875 C-8.01692582 12.87298162 -8.01692582 12.87298162 -8.99609375 15.25 C-10 17 -10 17 -13.625 18.25 C-14.73875 18.4975 -15.8525 18.745 -17 19 C-17.33 21.97 -17.66 24.94 -18 28 C-15.04096103 27.19000044 -12.08276689 26.37712017 -9.125 25.5625 C-8.28324219 25.33240234 -7.44148438 25.10230469 -6.57421875 24.86523438 C-5.76855469 24.64287109 -4.96289062 24.42050781 -4.1328125 24.19140625 C-3.38918457 23.98717041 -2.64555664 23.78293457 -1.87939453 23.57250977 C0.0636295 23.03783733 0.0636295 23.03783733 2 22 C2.21432579 15.35590042 1.51233701 9.46794133 0 3 C-0.33 3 -0.66 3 -1 3 Z M-37 27 C-37.66 27.66 -38.32 28.32 -39 29 C-37.35 28.67 -35.7 28.34 -34 28 C-34.99 27.67 -35.98 27.34 -37 27 Z M-25 28 C-25.33 28.66 -25.66 29.32 -26 30 C-25.34 30 -24.68 30 -24 30 C-24.33 29.34 -24.66 28.68 -25 28 Z M-44 29 C-40 30 -40 30 -40 30 Z M-35.875 39.1875 C-37.20693829 39.64740472 -38.53897242 40.10703196 -39.87109375 40.56640625 C-40.55155762 40.80375488 -41.23202148 41.04110352 -41.93310547 41.28564453 C-44.61566644 42.21278526 -47.31025316 43.10117257 -50.00610352 43.98876953 C-55.72146644 45.87149432 -61.3895875 47.82453393 -67 50 C-67 50.33 -67 50.66 -67 51 C-66.39115967 51.10022461 -65.78231934 51.20044922 -65.1550293 51.30371094 C-34.59702509 56.40297491 -34.59702509 56.40297491 -23 68 C-23.33 57.77 -23.66 47.54 -24 37 C-28.7850571 37 -31.4381623 37.6369922 -35.875 39.1875 Z " fill="#8E8A8D" transform="translate(193,336)"/>
<path d="M0 0 C2.9375 0.1875 2.9375 0.1875 3.9375 1.1875 C3.80924317 7.55101193 3.05949072 13.86547283 1.9375 20.125 C-0.76345263 35.56901015 -0.36549967 51.43528431 -0.625 67.0625 C-0.66827826 69.50391233 -0.71189522 71.94531868 -0.75585938 74.38671875 C-0.86197966 80.32024918 -0.9639123 86.25383988 -1.0625 92.1875 C-2.5475 92.6825 -2.5475 92.6825 -4.0625 93.1875 C-3.99316757 92.58553802 -3.92383514 91.98357605 -3.85240173 91.3633728 C-3.18137009 85.1794084 -2.8891739 79.06872082 -2.81640625 72.8515625 C-2.78343161 70.87890242 -2.75022065 68.90624627 -2.71679688 66.93359375 C-2.66984388 63.88919069 -2.62542148 60.84479916 -2.58569336 57.80029297 C-2.39980456 44.16028503 -1.68942117 30.73386815 -0.0625 17.1875 C0.03571045 16.36830078 0.1339209 15.54910156 0.23510742 14.70507812 C0.78007243 10.1961627 1.34630584 5.69063846 1.9375 1.1875 C-1.77218581 2.33920122 -1.77218581 2.33920122 -4.390625 5.0703125 C-6.49184001 10.18089476 -7.66105499 14.66763113 -8.0625 20.1875 C-7.85753906 19.48882812 -7.65257812 18.79015625 -7.44140625 18.0703125 C-7.17199219 17.16023438 -6.90257812 16.25015625 -6.625 15.3125 C-6.35816406 14.40757812 -6.09132812 13.50265625 -5.81640625 12.5703125 C-5.0625 10.1875 -5.0625 10.1875 -4.0625 8.1875 C-3.0725 8.1875 -2.0825 8.1875 -1.0625 8.1875 C-1.18610256 9.72927933 -1.31156723 11.27090925 -1.4375 12.8125 C-1.52773437 13.93398438 -1.61796875 15.05546875 -1.7109375 16.2109375 C-1.95525006 18.97438402 -2.22802162 21.72110628 -2.5390625 24.4765625 C-4.60847502 43.64791244 -4.71431887 62.92430797 -5.0625 82.1875 C-6.0525 82.6825 -6.0525 82.6825 -7.0625 83.1875 C-8.11602843 85.49715848 -9.11969096 87.8304774 -10.0625 90.1875 C-10.7225 90.1875 -11.3825 90.1875 -12.0625 90.1875 C-12.16521234 83.23572642 -12.23450629 76.28415341 -12.28222656 69.33178711 C-12.30215223 66.97429086 -12.32930278 64.61684279 -12.36425781 62.25952148 C-12.56544233 48.32749343 -12.22136623 35.55846593 -8.0625 22.1875 C-8.7225 22.5175 -9.3825 22.8475 -10.0625 23.1875 C-10.71846525 26.18744257 -11.22506601 29.10054458 -11.64453125 32.13671875 C-11.84004326 33.53491096 -11.84004326 33.53491096 -12.039505 34.96134949 C-13.5372216 46.60787645 -13.62916851 58.27413008 -13.75 70 C-13.78328245 72.26499226 -13.81778152 74.52996697 -13.85351562 76.79492188 C-13.93713934 82.25899296 -14.00598879 87.72308458 -14.0625 93.1875 C-16.0625 92.1875 -16.0625 92.1875 -16.6875 90.5625 C-17.18345645 87.4214425 -17.12353811 84.36148169 -17.0625 81.1875 C-18.0525 81.6825 -18.0525 81.6825 -19.0625 82.1875 C-19.79325648 84.5015622 -20.46388258 86.83578869 -21.0625 89.1875 C-20.0725 89.1875 -19.0825 89.1875 -18.0625 89.1875 C-17.0725 95.6225 -17.0725 95.6225 -16.0625 102.1875 C-19.0625 104.1875 -19.0625 104.1875 -23.0625 104.1875 C-22.7325 100.2275 -22.4025 96.2675 -22.0625 92.1875 C-22.51625 93.981875 -22.97 95.77625 -23.4375 97.625 C-24.2109375 100.68359375 -24.2109375 100.68359375 -25.0625 103.1875 C-26.0525 103.6825 -26.0525 103.6825 -27.0625 104.1875 C-32.6388745 94.32340897 -31.29929631 81.1722179 -31.0625 70.1875 C-30.7325 70.1875 -30.4025 70.1875 -30.0625 70.1875 C-29.0725 79.0975 -28.0825 88.0075 -27.0625 97.1875 C-25.25372013 92.06198925 -25.25372013 92.06198925 -23.47363281 86.92651367 C-23.12316895 85.96322144 -23.12316895 85.96322144 -22.765625 84.98046875 C-22.53520508 84.3258667 -22.30478516 83.67126465 -22.06738281 82.99682617 C-21.0625 81.1875 -21.0625 81.1875 -19.00341797 79.98266602 C-16.42015721 77.59339351 -16.50641754 75.54020589 -16.35568237 72.13372803 C-16.33885406 71.32131653 -16.32202576 70.50890503 -16.3046875 69.671875 C-16.25370407 68.39984222 -16.25370407 68.39984222 -16.20169067 67.10211182 C-16.09544567 64.38088097 -16.01509772 61.65968573 -15.9375 58.9375 C-15.81981479 55.39022334 -15.69133319 51.84347057 -15.5546875 48.296875 C-15.52148407 47.43175797 -15.48828064 46.56664093 -15.45407104 45.67530823 C-13.52451021 0.82803124 -13.52451021 0.82803124 0 0 Z M-4.0625 12.1875 C-3.0625 15.1875 -3.0625 15.1875 -3.0625 15.1875 Z M-5.0625 15.1875 C-10.87034757 38.22529537 -10.32238338 61.60808131 -10.0625 85.1875 C-6.81188237 81.27032466 -6.52359084 78.02204983 -6.375 73.0625 C-6.34011475 72.26626221 -6.30522949 71.47002441 -6.26928711 70.6496582 C-6.02737464 64.48665018 -6.07714648 58.33718399 -6.15161133 52.17163086 C-6.17793567 45.24080651 -5.53986097 38.41398545 -4.77368164 31.5300293 C-4.17369014 26.04339872 -3.97354518 20.70825877 -4.0625 15.1875 C-4.3925 15.1875 -4.7225 15.1875 -5.0625 15.1875 Z M-20.0625 95.1875 C-20.3925 97.4975 -20.7225 99.8075 -21.0625 102.1875 C-19.7425 101.5275 -18.4225 100.8675 -17.0625 100.1875 C-17.7225 98.5375 -18.3825 96.8875 -19.0625 95.1875 C-19.3925 95.1875 -19.7225 95.1875 -20.0625 95.1875 Z " fill="#98969B" transform="translate(185.0625,251.8125)"/>
<path d="M0 0 C0.598125 0.226875 1.19625 0.45375 1.8125 0.6875 C1.36307759 7.43060211 0.21596003 13.46033745 -1.875 19.875 C-4.58632903 28.51839834 -6.95368783 37.21722355 -9.18237305 45.99682617 C-10.36307114 50.62560227 -11.58953395 55.18002972 -13.1875 59.6875 C-14.5075 59.6875 -15.8275 59.6875 -17.1875 59.6875 C-16.99414062 60.76644531 -16.80078125 61.84539062 -16.6015625 62.95703125 C-14.63916864 74.16602306 -13.25495414 85.35992783 -12.1875 96.6875 C-12.8475 96.6875 -13.5075 96.6875 -14.1875 96.6875 C-15.97740119 88.4432787 -17.07030348 80.18899417 -18.04296875 71.81445312 C-18.16285156 70.83798828 -18.28273437 69.86152344 -18.40625 68.85546875 C-18.50873047 67.98172607 -18.61121094 67.1079834 -18.71679688 66.20776367 C-19.43689883 62.35215556 -20.54698603 59.45611677 -23.0625 56.4375 C-28.05378362 49.97819178 -30.06222031 42.16731048 -32.2578125 34.41015625 C-33.00077281 31.58044506 -33.00077281 31.58044506 -35.1875 29.6875 C-35.49425232 26.78782243 -35.69923371 23.96966822 -35.8125 21.0625 C-35.85117188 20.26070313 -35.88984375 19.45890625 -35.9296875 18.6328125 C-36.02403931 16.65142444 -36.10686215 14.66949355 -36.1875 12.6875 C-34.5375 12.3575 -32.8875 12.0275 -31.1875 11.6875 C-28.84755911 15.19741134 -28.54808195 17.65838683 -27.875 21.8125 C-26.81061003 27.94194253 -25.43041953 33.90244774 -23.6875 39.875 C-23.48600342 40.58092285 -23.28450684 41.2868457 -23.0769043 42.01416016 C-21.89966656 45.94143659 -20.46566744 49.27687141 -18.1875 52.6875 C-15.59523091 45.33325697 -13.58347112 37.86324152 -11.65307617 30.31323242 C-11.12665886 28.25648127 -10.59396449 26.20142974 -10.06054688 24.14648438 C-8.3911789 17.66973514 -6.7928258 11.23800285 -5.77954102 4.62084961 C-4.78714906 1.38012719 -3.54422329 -0.50631761 0 0 Z " fill="#6A686C" transform="translate(167.1875,262.3125)"/>
<path d="M0 0 C0.66 0 1.32 0 2 0 C1.69095829 2.27130656 1.37765093 4.54203305 1.0625 6.8125 C0.80146484 8.70935547 0.80146484 8.70935547 0.53515625 10.64453125 C0 14 0 14 -1 17 C-1.11513832 18.67150987 -1.17636784 20.3469963 -1.20532227 22.0222168 C-1.22526749 23.04304855 -1.24521271 24.06388031 -1.26576233 25.11564636 C-1.29083107 26.76576469 -1.29083107 26.76576469 -1.31640625 28.44921875 C-1.33718735 29.5769722 -1.35796844 30.70472565 -1.37937927 31.86665344 C-1.44482847 35.4735396 -1.50373844 39.08049929 -1.5625 42.6875 C-1.60568961 45.13086702 -1.64930404 47.57422656 -1.69335938 50.01757812 C-1.80050516 56.01164074 -1.90228029 62.00577671 -2 68 C-1.34 68 -0.68 68 0 68 C0.66 65.69 1.32 63.38 2 61 C3.32 61.33 4.64 61.66 6 62 C6 62.66 6 63.32 6 64 C5.34 64 4.68 64 4 64 C4.15597656 64.67546875 4.31195313 65.3509375 4.47265625 66.046875 C4.76462891 67.38492188 4.76462891 67.38492188 5.0625 68.75 C5.25972656 69.63171875 5.45695312 70.5134375 5.66015625 71.421875 C6.00363127 74.02754757 5.97910911 75.5737461 5 78 C4.195625 78.474375 3.39125 78.94875 2.5625 79.4375 C-0.53859995 81.3284146 -0.707993 82.72691561 -2 86 C-3.32488113 86.36548445 -4.66018514 86.6937566 -6 87 C-7.68816933 88.64488294 -9.35353315 90.31337542 -11 92 C-15.16901104 95.17174761 -18.74522314 95.37661368 -23.8125 95.1875 C-24.85180664 95.16719727 -24.85180664 95.16719727 -25.91210938 95.14648438 C-27.60841265 95.11138845 -29.30431136 95.05758943 -31 95 C-31 94.67 -31 94.34 -31 94 C-29.80503906 93.83564453 -29.80503906 93.83564453 -28.5859375 93.66796875 C-22.84431803 92.80882131 -18.09051083 91.94713785 -13 89 C-12.34 89 -11.68 89 -11 89 C-11 88.34 -11 87.68 -11 87 C-10.01 86.505 -10.01 86.505 -9 86 C-13.83995095 86.55234761 -13.83995095 86.55234761 -18.4375 88.0625 C-22.05654665 89.38654146 -25.15804997 89.13023559 -29 89 C-28.67 88.01 -28.34 87.02 -28 86 C-25.36 85.67 -22.72 85.34 -20 85 C-20.44472656 83.10121094 -20.44472656 83.10121094 -20.8984375 81.1640625 C-22.05946841 75.93225656 -22.87596233 70.6794096 -23.625 65.375 C-23.7590625 64.47265625 -23.893125 63.5703125 -24.03125 62.640625 C-24.73643259 57.70434684 -25.15025165 52.9856229 -25 48 C-23.68 48 -22.36 48 -21 48 C-20.95101562 49.07636719 -20.90203125 50.15273438 -20.8515625 51.26171875 C-20.85374843 66.84565332 -20.85374843 66.84565332 -16 81 C-14.68 76.71 -13.36 72.42 -12 68 C-11.67 68 -11.34 68 -11 68 C-10.8200072 73.21979128 -11.02905192 77.07262981 -13 82 C-10.03 81.01 -10.03 81.01 -7 80 C-7.495 73.565 -7.495 73.565 -8 67 C-8.99 67 -9.98 67 -11 67 C-10.67 64.69 -10.34 62.38 -10 60 C-8.515 59.505 -8.515 59.505 -7 59 C-6.34 62.63 -5.68 66.26 -5 70 C-4.98541748 68.65591064 -4.97083496 67.31182129 -4.95581055 65.92700195 C-4.89685491 60.83301082 -4.81965031 55.73941813 -4.73754883 50.64575195 C-4.70474848 48.46124851 -4.67658495 46.27666941 -4.65356445 44.09204102 C-4.22249273 4.22249273 -4.22249273 4.22249273 0 0 Z " fill="#403E43" transform="translate(175,274)"/>
<path d="M0 0 C1.32 0.33 2.64 0.66 4 1 C3.3946472 7.90102194 2.13833937 14.58012121 0.71875 21.3515625 C-0.46702368 27.3706528 -1.12400568 33.10667746 -1.09765625 39.24609375 C-1.09553383 40.23005882 -1.09553383 40.23005882 -1.09336853 41.23390198 C-1.08783031 43.30181702 -1.07529002 45.36961842 -1.0625 47.4375 C-1.05747699 48.85090988 -1.0529155 50.26432148 -1.04882812 51.67773438 C-1.03788126 55.11852568 -1.02066038 58.55925172 -1 62 C0.15113281 61.62488281 1.30226562 61.24976563 2.48828125 60.86328125 C42.80506174 47.8518012 42.80506174 47.8518012 54 49 C56 51 56 51 56 54 C53.21717028 55.39141486 50.59650229 55.41917711 47.5 55.75 C38.37672501 56.86954907 29.77227416 59.32093173 21 62 C20.03852051 62.29132813 19.07704102 62.58265625 18.08642578 62.8828125 C15.05409617 63.80672922 12.02624266 64.74384884 9 65.6875 C8.03763428 65.98487061 7.07526855 66.28224121 6.08374023 66.58862305 C5.18985596 66.87261963 4.29597168 67.15661621 3.375 67.44921875 C2.57835937 67.70018311 1.78171875 67.95114746 0.9609375 68.2097168 C-1.18807202 68.92704996 -1.18807202 68.92704996 -3 71 C-2.67 69.68 -2.34 68.36 -2 67 C-0.02 66.505 -0.02 66.505 2 66 C2 65.34 2 64.68 2 64 C0.35 64 -1.3 64 -3 64 C-4.08794502 59.61433929 -4.12897314 55.34417235 -4.09765625 50.85546875 C-4.0962413 50.08568192 -4.09482635 49.31589508 -4.09336853 48.52278137 C-4.08779606 46.07764712 -4.07524871 43.63260632 -4.0625 41.1875 C-4.05748144 39.52408987 -4.05291915 37.8606783 -4.04882812 36.19726562 C-4.03783566 32.13147472 -4.0205901 28.06575317 -4 24 C-5.32 27.63 -6.64 31.26 -8 35 C-7.01 35.33 -6.02 35.66 -5 36 C-5.33 38.97 -5.66 41.94 -6 45 C-6.66 45 -7.32 45 -8 45 C-8 42.03 -8 39.06 -8 36 C-10.97 36.495 -10.97 36.495 -14 37 C-13.67 36.01 -13.34 35.02 -13 34 C-11.515 33.505 -11.515 33.505 -10 33 C-7.63890872 28.6225023 -7.0493862 23.58702493 -6.125 18.75 C-4.7877349 12.03235234 -3.22242451 6.09958926 0 0 Z " fill="#343339" transform="translate(204,293)"/>
<path d="M0 0 C1.65 0 3.3 0 5 0 C3.02 0.99 3.02 0.99 1 2 C1.1546875 2.93972656 1.309375 3.87945312 1.46875 4.84765625 C2.16084767 9.69355846 2.31244353 14.55061205 2.5 19.4375 C2.77145447 26.81825215 2.77145447 26.81825215 3.52734375 34.16015625 C4.02340156 38.19011354 4.09873619 41.94154662 4.0625 46 C4.05798828 46.67933594 4.05347656 47.35867188 4.04882812 48.05859375 C4.0372283 49.70576874 4.01930199 51.35289726 4 53 C1.525 53.495 1.525 53.495 -1 54 C-1.49628906 52.9378125 -1.99257812 51.875625 -2.50390625 50.78125 C-7.96198408 37.71161089 -7.96198408 37.71161089 -18.33203125 29.15625 C-20.70688249 28.59461102 -20.70688249 28.59461102 -22.984375 28.3515625 C-25 28 -25 28 -28 26 C-29.65549531 25.61500109 -31.3222433 25.27206865 -33 25 C-33 24.34 -33 23.68 -33 23 C-40.26 22.67 -47.52 22.34 -55 22 C-55.33 20.68 -55.66 19.36 -56 18 C-52.55930376 15.70620251 -51.27709699 15 -47 15 C-47 15.99 -47 16.98 -47 18 C-46.12601563 18.07347656 -46.12601563 18.07347656 -45.234375 18.1484375 C-31.18999581 19.42921422 -16.72627441 20.91891502 -6 31 C-5.34 31.99 -4.68 32.98 -4 34 C-3.67 23.44 -3.34 12.88 -3 2 C-2.67 2 -2.34 2 -2 2 C-1.97494385 2.74459473 -1.9498877 3.48918945 -1.92407227 4.25634766 C-1.30160106 23.64672644 -1.30160106 23.64672644 0 43 C-0.66 43 -1.32 43 -2 43 C-2.66 42.01 -3.32 41.02 -4 40 C-3.79503906 40.61488281 -3.59007812 41.22976563 -3.37890625 41.86328125 C-2.25260417 45.2421875 -1.12630208 48.62109375 0 52 C0.66 52 1.32 52 2 52 C1.85924795 49.06217531 1.7126162 46.12484829 1.5625 43.1875 C1.52318359 42.35412109 1.48386719 41.52074219 1.44335938 40.66210938 C1.40146484 39.85966797 1.35957031 39.05722656 1.31640625 38.23046875 C1.27974854 37.49207764 1.24309082 36.75368652 1.20532227 35.99291992 C1.05157859 33.792505 1.05157859 33.792505 0 31 C-0.08397157 28.64319787 -0.10728187 26.28405919 -0.09765625 23.92578125 C-0.0962413 23.2419487 -0.09482635 22.55811615 -0.09336853 21.8535614 C-0.08777876 19.67316278 -0.07522822 17.49286749 -0.0625 15.3125 C-0.05748367 13.83268378 -0.052921 12.35286594 -0.04882812 10.87304688 C-0.03781271 7.24866443 -0.02055512 3.6243423 0 0 Z " fill="#747075" transform="translate(173,369)"/>
<path d="M0 0 C0.66 0.33 1.32 0.66 2 1 C2.59355614 3.64860427 2.74209269 6.29197322 3 9 C3.66 9 4.32 9 5 9 C5 15.6 5 22.2 5 29 C2.69 29.33 0.38 29.66 -2 30 C-4.74305906 30.72721209 -7.44396991 31.54527899 -10.15625 32.37890625 C-13.49384684 33.10785941 -16.59240459 33.03981538 -20 33 C-19.88168573 37.3601282 -19.75743287 41.72003451 -19.62768555 46.07983398 C-19.5843867 47.56286015 -19.54270801 49.04593454 -19.50268555 50.52905273 C-19.44486042 52.66144339 -19.38120168 54.79359242 -19.31640625 56.92578125 C-19.27974854 58.20880127 -19.24309082 59.49182129 -19.20532227 60.8137207 C-19.13438766 64.02111551 -19.13438766 64.02111551 -18 67 C-17.91978001 68.40824893 -17.89234023 69.81997231 -17.90234375 71.23046875 C-17.90556641 72.03291016 -17.90878906 72.83535156 -17.91210938 73.66210938 C-17.92048828 74.49548828 -17.92886719 75.32886719 -17.9375 76.1875 C-17.94201172 77.03248047 -17.94652344 77.87746094 -17.95117188 78.74804688 C-17.96294597 80.83206155 -17.9808811 82.91603977 -18 85 C-18.66 85 -19.32 85 -20 85 C-20.86627399 83.40233897 -21.71766465 81.79660056 -22.5625 80.1875 C-23.03816406 79.29417969 -23.51382813 78.40085937 -24.00390625 77.48046875 C-25 75 -25 75 -24 72 C-23.34 73.32 -22.68 74.64 -22 76 C-21.34 76 -20.68 76 -20 76 C-20.33 75.34 -20.66 74.68 -21 74 C-22.17965813 65.29234479 -22.12438251 56.51827561 -22.0625 47.75 C-22.05798828 46.51636719 -22.05347656 45.28273438 -22.04882812 44.01171875 C-22.03718487 41.00775931 -22.02083376 38.00390734 -22 35 C-24.31 35 -26.62 35 -29 35 C-28.01 34.505 -28.01 34.505 -27 34 C-27 33.34 -27 32.68 -27 32 C-26.01 31.67 -25.02 31.34 -24 31 C-23.67 29.35 -23.34 27.7 -23 26 C-23.66 25.67 -24.32 25.34 -25 25 C-23.824375 24.6596875 -23.824375 24.6596875 -22.625 24.3125 C-21.75875 23.879375 -20.8925 23.44625 -20 23 C-19.731875 22.195625 -19.46375 21.39125 -19.1875 20.5625 C-18 18 -18 18 -16.2109375 17.21875 C-15.50195312 17.0021875 -14.79296875 16.785625 -14.0625 16.5625 C-10.5466252 15.45984546 -10.5466252 15.45984546 -8.4375 12.375 C-7.963125 11.26125 -7.48875 10.1475 -7 9 C-4.77197673 5.91504471 -2.39686378 2.95503754 0 0 Z M-1 3 C-2.18403464 4.55497281 -3.3219941 6.14515575 -4.4375 7.75 C-5.36369141 9.07257813 -5.36369141 9.07257813 -6.30859375 10.421875 C-8.01692582 12.87298162 -8.01692582 12.87298162 -8.99609375 15.25 C-10 17 -10 17 -13.625 18.25 C-14.73875 18.4975 -15.8525 18.745 -17 19 C-17.33 21.97 -17.66 24.94 -18 28 C-15.04096103 27.19000044 -12.08276689 26.37712017 -9.125 25.5625 C-8.28324219 25.33240234 -7.44148438 25.10230469 -6.57421875 24.86523438 C-5.76855469 24.64287109 -4.96289062 24.42050781 -4.1328125 24.19140625 C-3.38918457 23.98717041 -2.64555664 23.78293457 -1.87939453 23.57250977 C0.0636295 23.03783733 0.0636295 23.03783733 2 22 C2.21432579 15.35590042 1.51233701 9.46794133 0 3 C-0.33 3 -0.66 3 -1 3 Z " fill="#4D4B4F" transform="translate(193,336)"/>
<path d="M0 0 C1.67542976 0.28604898 3.34385343 0.61781233 5 1 C5.28101563 2.28003906 5.56203125 3.56007813 5.8515625 4.87890625 C9.64381741 22.84554549 9.64381741 22.84554549 16 40 C16.99 40 17.98 40 19 40 C18.67 41.32 18.34 42.64 18 44 C16.1875 43.5 16.1875 43.5 14 42 C12.14053309 38.39776912 11 35.06166652 11 31 C10.34 31 9.68 31 9 31 C8.67 30.01 8.34 29.02 8 28 C8.45178998 33.72267312 10.56466983 39.39353454 14 44 C16.58264259 44.86265846 16.58264259 44.86265846 19 45 C19.66 44.01 20.32 43.02 21 42 C21.66 42 22.32 42 23 42 C22.67 43.98 22.34 45.96 22 48 C20.68 48 19.36 48 18 48 C18.19335938 49.07894531 18.38671875 50.15789062 18.5859375 51.26953125 C20.54833136 62.47852306 21.93254586 73.67242783 23 85 C22.34 85 21.68 85 21 85 C19.21009881 76.7557787 18.11719652 68.50149417 17.14453125 60.12695312 C17.02464844 59.15048828 16.90476563 58.17402344 16.78125 57.16796875 C16.67876953 56.29422607 16.57628906 55.4204834 16.47070312 54.52026367 C15.75060117 50.66465556 14.64051397 47.76861677 12.125 44.75 C7.13371638 38.29069178 5.12527969 30.47981048 2.9296875 22.72265625 C2.18672719 19.89294506 2.18672719 19.89294506 0 18 C-0.3336795 15.11875009 -0.5577274 12.32788982 -0.6875 9.4375 C-0.73455078 8.64408203 -0.78160156 7.85066406 -0.83007812 7.03320312 C-0.93473876 5.0240621 -0.97273009 3.01168035 -1 1 C-0.67 0.67 -0.34 0.34 0 0 Z " fill="#8E8A8F" transform="translate(132,274)"/>
<path d="M0 0 C0 0.33 0 0.66 0 1 C-0.969375 1.12375 -1.93875 1.2475 -2.9375 1.375 C-4.4534375 1.684375 -4.4534375 1.684375 -6 2 C-6.33 2.66 -6.66 3.32 -7 4 C-1.81116848 3.53671147 2.3546673 2.58851289 7.16796875 0.6328125 C9.49976512 -0.17262676 11.55574969 -0.22914847 14 0 C13.67 0.66 13.34 1.32 13 2 C12.34 2 11.68 2 11 2 C11 2.66 11 3.32 11 4 C9.730447 4.64834654 8.45930294 5.29357815 7.1875 5.9375 C6.47980469 6.29714844 5.77210938 6.65679687 5.04296875 7.02734375 C3 8 3 8 0 9 C0.66 9.66 1.32 10.32 2 11 C-5.26 11 -12.52 11 -20 11 C-20 11.66 -20 12.32 -20 13 C-21.98 13 -23.96 13 -26 13 C-27.0625 11.125 -27.0625 11.125 -28 9 C-27.67 8.34 -27.34 7.68 -27 7 C-24.97672014 6.46632328 -22.92932646 6.02276253 -20.875 5.625 C-16.89669522 4.77809014 -13.54861225 4.03470704 -10.125 1.8125 C-6.46809199 -0.30850665 -4.15820366 -0.3394452 0 0 Z M3 4 C2.34 4.66 1.68 5.32 1 6 C2.65 5.67 4.3 5.34 6 5 C5.01 4.67 4.02 4.34 3 4 Z M-4 6 C0 7 0 7 0 7 Z " fill="#747174" transform="translate(153,359)"/>
<path d="M0 0 C0.33 0 0.66 0 1 0 C1 11.55 1 23.1 1 35 C-1 34 -1 34 -1.625 32.375 C-2.12095645 29.2339425 -2.06103811 26.17398169 -2 23 C-2.66 23.33 -3.32 23.66 -4 24 C-4.73075648 26.3140622 -5.40138258 28.64828869 -6 31 C-5.01 31 -4.02 31 -3 31 C-2.34 35.29 -1.68 39.58 -1 44 C-4 46 -4 46 -8 46 C-7.67 42.04 -7.34 38.08 -7 34 C-7.45375 35.794375 -7.9075 37.58875 -8.375 39.4375 C-9.1484375 42.49609375 -9.1484375 42.49609375 -10 45 C-10.99 45.495 -10.99 45.495 -12 46 C-17.5763745 36.13590897 -16.23679631 22.9847179 -16 12 C-15.67 12 -15.34 12 -15 12 C-14.01 20.91 -13.02 29.82 -12 39 C-10.19122013 33.87448925 -10.19122013 33.87448925 -8.41113281 28.73901367 C-6.43394177 23.30446548 -6.43394177 23.30446548 -3.83984375 21.484375 C-1.58161336 20.00229415 -1.58161336 20.00229415 -1.42578125 16.34765625 C-1.36877743 14.91990931 -1.33168651 13.49125562 -1.3125 12.0625 C-1.05145689 3.2740487 -1.05145689 3.2740487 0 0 Z M-5 37 C-5.33 39.31 -5.66 41.62 -6 44 C-4.68 43.34 -3.36 42.68 -2 42 C-2.66 40.35 -3.32 38.7 -4 37 C-4.33 37 -4.66 37 -5 37 Z " fill="#706E71" transform="translate(170,310)"/>
<path d="M0 0 C1.32 0 2.64 0 4 0 C4.04898438 1.07636719 4.09796875 2.15273438 4.1484375 3.26171875 C4.14625157 18.84565332 4.14625157 18.84565332 9 33 C10.32 28.71 11.64 24.42 13 20 C13.33 20 13.66 20 14 20 C14.1799928 25.21979128 13.97094808 29.07262981 12 34 C16.41522109 32.73025028 16.41522109 32.73025028 20 30 C19.74438677 32.3431213 19.40729228 34.67843403 19 37 C16.40394157 38.29802921 13.86358073 38.36224505 11.01171875 38.6796875 C8.86535783 38.93839318 8.86535783 38.93839318 6.5 40.0625 C2.9169038 41.40616107 -0.18631635 41.12927741 -4 41 C-3.67 40.01 -3.34 39.02 -3 38 C-0.36 37.67 2.28 37.34 5 37 C4.70351562 35.73414063 4.40703125 34.46828125 4.1015625 33.1640625 C2.94053159 27.93225656 2.12403767 22.6794096 1.375 17.375 C1.2409375 16.47265625 1.106875 15.5703125 0.96875 14.640625 C0.26356741 9.70434684 -0.15025165 4.9856229 0 0 Z " fill="#464246" transform="translate(150,322)"/>
<path d="M0 0 C2 2 2 2 2 5 C-1.95031747 6.97515874 -6.75930859 6.88669763 -11.10546875 7.40234375 C-14.87440181 7.98072565 -18.34350797 8.93996065 -22 10 C-23.68172765 10.21731576 -25.37036485 10.38994243 -27.0625 10.5 C-30.99028586 10.82731549 -34.26984279 11.69878237 -38 13 C-40.875 13.125 -40.875 13.125 -43 13 C-42.34 12.34 -41.68 11.68 -41 11 C-41.33 10.34 -41.66 9.68 -42 9 C-33.2252517 6.00972265 -24.46977563 3.5145304 -15.375 1.6875 C-14.11478027 1.43081543 -14.11478027 1.43081543 -12.82910156 1.16894531 C-8.52411149 0.33700468 -4.40190214 -0.39955727 0 0 Z " fill="#87878D" transform="translate(258,342)"/>
<path d="M0 0 C0.66 0.33 1.32 0.66 2 1 C2 14.2 2 27.4 2 41 C3.65 41 5.3 41 7 41 C7 41.66 7 42.32 7 43 C6.071875 43.3403125 6.071875 43.3403125 5.125 43.6875 C2.38589791 45.37929835 1.94975528 46.99244161 1 50 C0.34 50 -0.32 50 -1 50 C-1.98600987 45.89162554 -2.13389122 42.03138166 -2.125 37.8125 C-2.12757813 36.58144531 -2.13015625 35.35039062 -2.1328125 34.08203125 C-2 31 -2 31 -1 29 C-1.66 29 -2.32 29 -3 29 C-3.66 26.36 -4.32 23.72 -5 21 C-6.32 21.99 -7.64 22.98 -9 24 C-9.02688151 22.35425434 -9.04634123 20.70838587 -9.0625 19.0625 C-9.07410156 18.14597656 -9.08570313 17.22945313 -9.09765625 16.28515625 C-9 14 -9 14 -8 13 C-6.33382885 12.95936168 -4.66611905 12.957279 -3 13 C-3 15.97 -3 18.94 -3 22 C-2.34 22 -1.68 22 -1 22 C-1 19.03 -1 16.06 -1 13 C-1.66 12.67 -2.32 12.34 -3 12 C-2.40075776 7.80530429 -1.42500059 3.99000166 0 0 Z " fill="#3C3B42" transform="translate(199,316)"/>
<path d="M0 0 C0.66 0.33 1.32 0.66 2 1 C2.59355614 3.64860427 2.74209269 6.29197322 3 9 C3.66 9 4.32 9 5 9 C5 15.6 5 22.2 5 29 C2.69 29.33 0.38 29.66 -2 30 C-4.31807177 30.49544613 -6.63102473 31.0156038 -8.9375 31.5625 C-10.08089844 31.83191406 -11.22429687 32.10132813 -12.40234375 32.37890625 C-13.25957031 32.58386719 -14.11679688 32.78882813 -15 33 C-12.7991151 30.52140092 -10.93627031 29.38789634 -7.8125 28.3125 C-7.09707031 28.06113281 -6.38164062 27.80976563 -5.64453125 27.55078125 C-5.10183594 27.36902344 -4.55914062 27.18726563 -4 27 C-4.90363281 27.2165625 -5.80726563 27.433125 -6.73828125 27.65625 C-8.50751953 28.07390625 -8.50751953 28.07390625 -10.3125 28.5 C-11.48425781 28.7784375 -12.65601563 29.056875 -13.86328125 29.34375 C-17 30 -17 30 -20 30 C-20.33333333 21.5 -20.33333333 21.5 -18 18 C-16.19140625 17.23828125 -16.19140625 17.23828125 -14.0625 16.5625 C-10.5466252 15.45984546 -10.5466252 15.45984546 -8.4375 12.375 C-7.963125 11.26125 -7.48875 10.1475 -7 9 C-4.77197673 5.91504471 -2.39686378 2.95503754 0 0 Z M-1 3 C-2.18403464 4.55497281 -3.3219941 6.14515575 -4.4375 7.75 C-5.36369141 9.07257813 -5.36369141 9.07257813 -6.30859375 10.421875 C-8.01692582 12.87298162 -8.01692582 12.87298162 -8.99609375 15.25 C-10 17 -10 17 -13.625 18.25 C-14.73875 18.4975 -15.8525 18.745 -17 19 C-17.33 21.97 -17.66 24.94 -18 28 C-15.04096103 27.19000044 -12.08276689 26.37712017 -9.125 25.5625 C-8.28324219 25.33240234 -7.44148437 25.10230469 -6.57421875 24.86523438 C-5.76855469 24.64287109 -4.96289062 24.42050781 -4.1328125 24.19140625 C-3.38918457 23.98717041 -2.64555664 23.78293457 -1.87939453 23.57250977 C0.0636295 23.03783733 0.0636295 23.03783733 2 22 C2.21432579 15.35590042 1.51233701 9.46794133 0 3 C-0.33 3 -0.66 3 -1 3 Z " fill="#706D72" transform="translate(193,336)"/>
<path d="M0 0 C3.33569803 3.33569803 3.35260947 4.36621214 3.39118958 8.87709045 C3.38197983 9.66143967 3.37277008 10.44578888 3.36328125 11.25390625 C3.36377975 12.06939438 3.36427826 12.88488251 3.36479187 13.7250824 C3.36245061 15.45419748 3.352719 17.18331593 3.33618164 18.91235352 C3.31280403 21.5284771 3.31559354 24.14356561 3.32226562 26.75976562 C3.30702462 35.08464247 3.10106259 42.8887265 1 51 C3.16993333 50.19827807 3.16993333 50.19827807 3.7109375 48.109375 C3.93007812 47.33078125 4.14921875 46.5521875 4.375 45.75 C5.60717428 41.78808579 7.12891143 39.06909468 10 36 C11.55298138 41.12483855 10.4232833 45.1232791 8.078125 49.86328125 C7.10713465 51.60732931 6.05507018 53.30549334 5 55 C4.525625 55.804375 4.05125 56.60875 3.5625 57.4375 C2 59 2 59 -0.6875 59.25 C-1.450625 59.1675 -2.21375 59.085 -3 59 C-1.515 58.505 -1.515 58.505 0 58 C-0.33 53.38 -0.66 48.76 -1 44 C-0.34 44 0.32 44 1 44 C0.01 42.68 -0.98 41.36 -2 40 C-1.34 40 -0.68 40 0 40 C0 26.8 0 13.6 0 0 Z " fill="#59575D" transform="translate(180,294)"/>
<path d="M0 0 C1.32 0.33 2.64 0.66 4 1 C4 1.66 4 2.32 4 3 C3.34 3 2.68 3 2 3 C2.15597656 3.67546875 2.31195313 4.3509375 2.47265625 5.046875 C2.66730469 5.93890625 2.86195313 6.8309375 3.0625 7.75 C3.35833984 9.07257813 3.35833984 9.07257813 3.66015625 10.421875 C4.00363127 13.02754757 3.97910911 14.5737461 3 17 C2.195625 17.474375 1.39125 17.94875 0.5625 18.4375 C-2.53859995 20.3284146 -2.707993 21.72691561 -4 25 C-5.32488113 25.36548445 -6.66018514 25.6937566 -8 26 C-9.68816933 27.64488294 -11.35353315 29.31337542 -13 31 C-17.16901104 34.17174761 -20.74522314 34.37661368 -25.8125 34.1875 C-26.85180664 34.16719727 -26.85180664 34.16719727 -27.91210938 34.14648438 C-29.60841265 34.11138845 -31.30431136 34.05758943 -33 34 C-33 33.67 -33 33.34 -33 33 C-32.20335937 32.89042969 -31.40671875 32.78085937 -30.5859375 32.66796875 C-24.84431803 31.80882131 -20.09051083 30.94713785 -15 28 C-14.34 28 -13.68 28 -13 28 C-13 27.34 -13 26.68 -13 26 C-12.35546875 25.77570313 -11.7109375 25.55140625 -11.046875 25.3203125 C-8.75611148 24.17110544 -8.75611148 24.17110544 -8.390625 21.6171875 C-8.32101563 20.25980469 -8.32101563 20.25980469 -8.25 18.875 C-8.19328125 17.96492188 -8.1365625 17.05484375 -8.078125 16.1171875 C-8.05234375 15.41851562 -8.0265625 14.71984375 -8 14 C-7.01 13.67 -6.02 13.34 -5 13 C-4.34 12.34 -3.68 11.68 -3 11 C-3 12.32 -3 13.64 -3 15 C-2.34 15 -1.68 15 -1 15 C-1.01160156 14.16855469 -1.02320313 13.33710938 -1.03515625 12.48046875 C-1.04417969 11.39378906 -1.05320313 10.30710937 -1.0625 9.1875 C-1.07410156 8.10855469 -1.08570313 7.02960938 -1.09765625 5.91796875 C-1 3 -1 3 0 0 Z " fill="#353336" transform="translate(177,335)"/>
<path d="M0 0 C1.65 0 3.3 0 5 0 C3.02 0.99 3.02 0.99 1 2 C1.1546875 2.93972656 1.309375 3.87945312 1.46875 4.84765625 C2.16084767 9.69355846 2.31244353 14.55061205 2.5 19.4375 C2.77145447 26.81825215 2.77145447 26.81825215 3.52734375 34.16015625 C4.02340156 38.19011354 4.09873619 41.94154662 4.0625 46 C4.05798828 46.67933594 4.05347656 47.35867188 4.04882812 48.05859375 C4.0372283 49.70576874 4.01930199 51.35289726 4 53 C1.525 53.495 1.525 53.495 -1 54 C-1.49628906 52.9378125 -1.99257812 51.875625 -2.50390625 50.78125 C-6.20210948 43.03333115 -9.68391082 36.00028472 -16 30 C-15.34 29.67 -14.68 29.34 -14 29 C-7.5516924 34.89559552 -3.66027283 42.13719169 0 50 C0 50.66 0 51.32 0 52 C0.66 52 1.32 52 2 52 C1.85924795 49.06217531 1.7126162 46.12484829 1.5625 43.1875 C1.52318359 42.35412109 1.48386719 41.52074219 1.44335938 40.66210938 C1.40146484 39.85966797 1.35957031 39.05722656 1.31640625 38.23046875 C1.27974854 37.49207764 1.24309082 36.75368652 1.20532227 35.99291992 C1.05157859 33.792505 1.05157859 33.792505 0 31 C-0.08397157 28.64319787 -0.10728187 26.28405919 -0.09765625 23.92578125 C-0.0962413 23.2419487 -0.09482635 22.55811615 -0.09336853 21.8535614 C-0.08777876 19.67316278 -0.07522822 17.49286749 -0.0625 15.3125 C-0.05748367 13.83268378 -0.052921 12.35286594 -0.04882812 10.87304688 C-0.03781271 7.24866443 -0.02055512 3.6243423 0 0 Z " fill="#9F9BA1" transform="translate(173,369)"/>
<path d="M0 0 C0 1.65 0 3.3 0 5 C-1.32 5.33 -2.64 5.66 -4 6 C-4 6.66 -4 7.32 -4 8 C-2.68 8.33 -1.36 8.66 0 9 C0 19.23 0 29.46 0 40 C-0.33 40 -0.66 40 -1 40 C-1.33 30.76 -1.66 21.52 -2 12 C-4.31 12 -6.62 12 -9 12 C-8.67 11.34 -8.34 10.68 -8 10 C-8.66902344 10.09539062 -9.33804688 10.19078125 -10.02734375 10.2890625 C-19.26350187 11.35524988 -27.86174763 10.3101049 -37 9 C-37 8.67 -37 8.34 -37 8 C-36.3702124 7.98541748 -35.7404248 7.97083496 -35.09155273 7.95581055 C-32.20628679 7.88081006 -29.32211277 7.78432361 -26.4375 7.6875 C-25.44685547 7.66494141 -24.45621094 7.64238281 -23.43554688 7.61914062 C-14.76545998 7.3022936 -7.20350728 0 0 0 Z M-2 2 C-2.33 2.66 -2.66 3.32 -3 4 C-2.34 4 -1.68 4 -1 4 C-1.33 3.34 -1.66 2.68 -2 2 Z " fill="#908E91" transform="translate(170,362)"/>
<path d="M0 0 C0.33 0 0.66 0 1 0 C1.33 9.9 1.66 19.8 2 30 C4.97 29.01 7.94 28.02 11 27 C15.5625 26.8125 15.5625 26.8125 19 27 C18.01 27.66 17.02 28.32 16 29 C16.58007812 28.855625 17.16015625 28.71125 17.7578125 28.5625 C22.26659675 27.49110572 26.33054247 26.76054064 31 27 C31 27.33 31 27.66 31 28 C30.2471875 28.23074219 29.494375 28.46148437 28.71875 28.69921875 C26.46154367 29.39226875 24.20509674 30.08779463 21.94921875 30.78515625 C19.18466013 31.63886542 16.41582429 32.47702145 13.64453125 33.30859375 C12.20048135 33.74726588 10.75647028 34.18606585 9.3125 34.625 C8.27029297 34.93377075 8.27029297 34.93377075 7.20703125 35.2487793 C3.23024782 36.4577741 3.23024782 36.4577741 0 39 C0.33 37.68 0.66 36.36 1 35 C2.98 34.505 2.98 34.505 5 34 C5 33.34 5 32.68 5 32 C3.35 32 1.7 32 0 32 C0 21.44 0 10.88 0 0 Z " fill="#6F6E74" transform="translate(201,325)"/>
<path d="M0 0 C-0.5390625 1.83984375 -0.5390625 1.83984375 -2 4 C-4.50020847 5.05319044 -6.78021038 5.84645885 -9.375 6.5625 C-10.09163818 6.77156982 -10.80827637 6.98063965 -11.54663086 7.19604492 C-13.69320606 7.81512515 -15.84527607 8.40999796 -18 9 C-19.72283203 9.48726563 -19.72283203 9.48726563 -21.48046875 9.984375 C-26.79093256 11.41126768 -31.5005005 12.37496587 -37 12 C-33.74390194 8.88547142 -30.54662269 8.36880157 -26.28515625 7.5234375 C-22.99291875 6.76931814 -20.07777948 5.37969425 -17 4 C-5.63508204 -0.60919806 -5.63508204 -0.60919806 0 0 Z " fill="#746F75" transform="translate(163,371)"/>
<path d="M0 0 C0.62519531 0.185625 1.25039062 0.37125 1.89453125 0.5625 C1.4473383 7.64667927 0.12006979 14.00152725 -2.04296875 20.75 C-2.57322621 22.45172649 -3.10317992 24.15354767 -3.6328125 25.85546875 C-3.88401855 26.65259277 -4.13522461 27.4497168 -4.39404297 28.27099609 C-5.35122855 31.35409283 -6.23474715 34.45398183 -7.10546875 37.5625 C-7.43546875 37.5625 -7.76546875 37.5625 -8.10546875 37.5625 C-7.79178504 30.61440579 -6.31049233 24.50246288 -4.16015625 17.90234375 C-2.56446251 12.84931356 -1.33109941 7.7157198 -0.10546875 2.5625 C-1.09546875 2.5625 -2.08546875 2.5625 -3.10546875 2.5625 C-3.11964844 3.18253906 -3.13382813 3.80257813 -3.1484375 4.44140625 C-3.61271706 13.06194835 -6.16772659 20.52978066 -9.10546875 28.5625 C-10.70526565 24.56300776 -9.40739374 21.18217655 -8.23046875 17.25 C-7.10772377 13.4133094 -6.12172788 9.67631393 -5.5546875 5.70703125 C-5.10546875 2.5625 -5.10546875 2.5625 -3.79296875 0.5625 C-2.10546875 -0.4375 -2.10546875 -0.4375 0 0 Z " fill="#8C8A8E" transform="translate(167.10546875,262.4375)"/>
<path d="M0 0 C0.33 0 0.66 0 1 0 C0.60963142 6.36917149 0.13644894 12.65310699 -1 18.9375 C-3.70239883 34.38091061 -3.30300719 50.24823688 -3.5625 65.875 C-3.60577826 68.31641233 -3.64939522 70.75781868 -3.69335938 73.19921875 C-3.79947966 79.13274918 -3.9014123 85.06633988 -4 91 C-5.485 91.495 -5.485 91.495 -7 92 C-6.89600136 91.09705704 -6.89600136 91.09705704 -6.78990173 90.1758728 C-6.11887009 83.9919084 -5.8266739 77.88122082 -5.75390625 71.6640625 C-5.72093161 69.69140242 -5.68772065 67.71874627 -5.65429688 65.74609375 C-5.60734388 62.70169069 -5.56292148 59.65729916 -5.52319336 56.61279297 C-5.26184346 37.43565748 -3.93683828 18.79184138 0 0 Z " fill="#97959A" transform="translate(188,253)"/>
<path d="M0 0 C0 0.33 0 0.66 0 1 C-0.969375 1.12375 -1.93875 1.2475 -2.9375 1.375 C-4.4534375 1.684375 -4.4534375 1.684375 -6 2 C-6.33 2.66 -6.66 3.32 -7 4 C-1.81116848 3.53671147 2.3546673 2.58851289 7.16796875 0.6328125 C9.49976512 -0.17262676 11.55574969 -0.22914847 14 0 C13.67 0.66 13.34 1.32 13 2 C12.34 2 11.68 2 11 2 C11 2.66 11 3.32 11 4 C4.20780865 8.17981006 -1.11397658 8.4731614 -9 8 C-9 7.01 -9 6.02 -9 5 C-9.99 5.495 -9.99 5.495 -11 6 C-12.99960012 6.039992 -15.00047242 6.04346799 -17 6 C-7.12727273 -0.58181818 -7.12727273 -0.58181818 0 0 Z M3 4 C2.34 4.66 1.68 5.32 1 6 C2.65 5.67 4.3 5.34 6 5 C5.01 4.67 4.02 4.34 3 4 Z M-4 6 C0 7 0 7 0 7 Z " fill="#838184" transform="translate(153,359)"/>
<path d="M0 0 C2.28120896 3.42181343 2.15690671 5.03589432 1.546875 9.015625 C0.73617268 11.95731626 -0.98683587 13.74999303 -3 16 C-4.03041427 17.98450156 -5.03685937 19.98199105 -6 22 C-7 23 -7 23 -9.5625 23.0625 C-10.366875 23.041875 -11.17125 23.02125 -12 23 C-11.01 22.67 -10.02 22.34 -9 22 C-9 20.02 -9 18.04 -9 16 C-8.01 16 -7.02 16 -6 16 C-5.90203125 15.43152344 -5.8040625 14.86304688 -5.703125 14.27734375 C-4.63676081 8.77085969 -3.01715751 4.7268801 0 0 Z " fill="#3C3A3F" transform="translate(189,330)"/>
<path d="M0 0 C0 0.66 0 1.32 0 2 C-0.99 2.33 -1.98 2.66 -3 3 C-3.33 3.66 -3.66 4.32 -4 5 C-3.30962646 5.0501123 -2.61925293 5.10022461 -1.90795898 5.15185547 C1.24947159 5.38534702 4.40593632 5.63007844 7.5625 5.875 C9.19155273 5.99294922 9.19155273 5.99294922 10.85351562 6.11328125 C16.49410312 6.55904196 21.63753034 7.1689128 27 9 C27 9.99 27 10.98 27 12 C23.89114947 11.54504626 20.99447899 10.99821717 18 10.03125 C12.95513834 8.56314383 7.77939884 8.28909347 2.5625 7.875 C1.54478516 7.78863281 0.52707031 7.70226562 -0.52148438 7.61328125 C-3.01387442 7.40265674 -5.5066121 7.19839929 -8 7 C-8.33 5.68 -8.66 4.36 -9 3 C-5.55930376 0.70620251 -4.27709699 0 0 0 Z " fill="#565156" transform="translate(126,384)"/>
<path d="M0 0 C0.66 0 1.32 0 2 0 C1.67 1.98 1.34 3.96 1 6 C-0.32 6 -1.64 6 -3 6 C-2.80664062 7.07894531 -2.61328125 8.15789062 -2.4140625 9.26953125 C-0.45166864 20.47852306 0.93254586 31.67242783 2 43 C1.34 43 0.68 43 0 43 C-1.90864078 34.69165485 -2.80100461 26.35038114 -3.625 17.875 C-3.75996609 16.52339243 -3.89537976 15.17182948 -4.03125 13.8203125 C-4.35855278 10.54728473 -4.68136017 7.27388054 -5 4 C-4.360625 3.71125 -3.72125 3.4225 -3.0625 3.125 C-0.84793921 2.17176549 -0.84793921 2.17176549 0 0 Z " fill="#8A8689" transform="translate(153,316)"/>
<path d="M0 0 C1.28372733 4.27830015 0.55212793 7.93949942 -0.25 12.25 C-0.37246094 12.97574219 -0.49492187 13.70148438 -0.62109375 14.44921875 C-1.54368812 19.57372809 -3.05505499 24.17041745 -5 29 C-4.01 29.33 -3.02 29.66 -2 30 C-2.33 32.97 -2.66 35.94 -3 39 C-3.66 39 -4.32 39 -5 39 C-5 36.03 -5 33.06 -5 30 C-6.98 30.33 -8.96 30.66 -11 31 C-10.505 29.515 -10.505 29.515 -10 28 C-9.01 27.67 -8.02 27.34 -7 27 C-4.58806981 22.53214407 -3.92095918 17.31099284 -2.9375 12.375 C-2.59401253 10.67416244 -2.24902308 8.97362734 -1.90234375 7.2734375 C-1.75273193 6.52497559 -1.60312012 5.77651367 -1.44897461 5.00537109 C-1 3 -1 3 0 0 Z " fill="#818085" transform="translate(201,299)"/>
<path d="M0 0 C31.8538327 3.92130574 31.8538327 3.92130574 37 10 C36.45214844 9.80664062 35.90429688 9.61328125 35.33984375 9.4140625 C28.89976694 7.29878524 22.57162003 6.28700131 15.8515625 5.47265625 C10.21371179 4.78079019 4.60953656 3.88920141 -1 3 C-0.67 2.01 -0.34 1.02 0 0 Z " fill="#888488" transform="translate(123,386)"/>
<path d="M0 0 C0 0.66 0 1.32 0 2 C-3.55960564 3.01050337 -7.12310522 4.00653404 -10.6875 5 C-11.69490234 5.28617187 -12.70230469 5.57234375 -13.74023438 5.8671875 C-14.71669922 6.13789063 -15.69316406 6.40859375 -16.69921875 6.6875 C-18.04246216 7.06455078 -18.04246216 7.06455078 -19.4128418 7.44921875 C-22.02189378 8.00466098 -24.34127842 8.1005663 -27 8 C-26.34 7.34 -25.68 6.68 -25 6 C-24.01 6 -23.02 6 -22 6 C-22 5.34 -22 4.68 -22 4 C-21.21496094 3.80664062 -20.42992187 3.61328125 -19.62109375 3.4140625 C-18.57050781 3.15367187 -17.51992187 2.89328125 -16.4375 2.625 C-14.7978125 2.21894531 -14.7978125 2.21894531 -13.125 1.8046875 C-10.70017013 1.18029381 -8.32424813 0.50100265 -5.9375 -0.25 C-3 -1 -3 -1 0 0 Z " fill="#4B4A50" transform="translate(242,347)"/>
<path d="M0 0 C0.99 0.33 1.98 0.66 3 1 C5.50276829 8.09117681 5.602073 15.54410462 6 23 C4 20 4 20 4 16 C2.68 16 1.36 16 0 16 C0 10.72 0 5.44 0 0 Z " fill="#4B464C" transform="translate(133,275)"/>
<path d="M0 0 C0.33 0 0.66 0 1 0 C1.33 3.96 1.66 7.92 2 12 C1.34 12 0.68 12 0 12 C0 24.54 0 37.08 0 50 C0.66 50 1.32 50 2 50 C1.67 51.32 1.34 52.64 1 54 C0.34 54 -0.32 54 -1 54 C-1.02531626 46.79175566 -1.04285262 39.58352275 -1.05493164 32.37524414 C-1.0599662 29.92211478 -1.06679424 27.46898843 -1.07543945 25.01586914 C-1.08754332 21.4936448 -1.09323703 17.97146006 -1.09765625 14.44921875 C-1.10281754 13.34913986 -1.10797882 12.24906097 -1.11329651 11.11564636 C-1.11337204 10.09481461 -1.11344757 9.07398285 -1.11352539 8.0222168 C-1.115746 7.12286911 -1.11796661 6.22352142 -1.12025452 5.29692078 C-1 3 -1 3 0 0 Z " fill="#6F6D71" transform="translate(174,288)"/>
<path d="M0 0 C0.33 0 0.66 0 1 0 C1 11.55 1 23.1 1 35 C0.34 34.67 -0.32 34.34 -1 34 C-1 30.04 -1 26.08 -1 22 C-1.99 21.67 -2.98 21.34 -4 21 C-3.34 20.67 -2.68 20.34 -2 20 C-1.71177001 17.3702728 -1.53211675 14.82523025 -1.4375 12.1875 C-1.06895206 3.36587385 -1.06895206 3.36587385 0 0 Z " fill="#848286" transform="translate(170,310)"/>
<path d="M0 0 C1.32 0 2.64 0 4 0 C4.1953125 6.0546875 4.1953125 6.0546875 4 8 C3.34 8.66 2.68 9.32 2 10 C2 8.02 2 6.04 2 4 C-1.64287779 7.31170708 -2.91180918 10.46357087 -4 15.1875 C-4.33 16.445625 -4.66 17.70375 -5 19 C-5.66 19.33 -6.32 19.66 -7 20 C-6.53727528 12.71208571 -5.3692824 5.3692824 0 0 Z " fill="#19181D" transform="translate(183,253)"/>
<path d="M0 0 C1.65 0 3.3 0 5 0 C3.02 0.99 3.02 0.99 1 2 C1.15082031 2.92296875 1.30164063 3.8459375 1.45703125 4.796875 C2.18681823 9.92734207 2.43162456 15.07790439 2.6875 20.25 C2.74744141 21.24257813 2.80738281 22.23515625 2.86914062 23.2578125 C2.9397168 24.68480469 2.9397168 24.68480469 3.01171875 26.140625 C3.05772217 27.00204102 3.10372559 27.86345703 3.15112305 28.75097656 C3 31 3 31 1 34 C-0.17942085 30.46173745 -0.11289189 27.65851274 -0.09765625 23.92578125 C-0.0962413 23.2419487 -0.09482635 22.55811615 -0.09336853 21.8535614 C-0.08777876 19.67316278 -0.07522822 17.49286749 -0.0625 15.3125 C-0.05748367 13.83268378 -0.052921 12.35286594 -0.04882812 10.87304688 C-0.03781271 7.24866443 -0.02055512 3.6243423 0 0 Z " fill="#959296" transform="translate(173,369)"/>
<path d="M0 0 C1.485 0.495 1.485 0.495 3 1 C2.34 1 1.68 1 1 1 C1 1.66 1 2.32 1 3 C-6.4889906 7.69483359 -11.39696482 8.41403479 -20 7 C-22.06107946 6.797481 -24.12364856 6.60948762 -26.1875 6.4375 C-27.79166667 6.29166667 -29.39583333 6.14583333 -31 6 C-31 5.67 -31 5.34 -31 5 C-30.3702124 4.98541748 -29.7404248 4.97083496 -29.09155273 4.95581055 C-26.20628679 4.88081006 -23.32211277 4.78432361 -20.4375 4.6875 C-19.44685547 4.66494141 -18.45621094 4.64238281 -17.43554688 4.61914062 C-11.54985943 4.40404906 -7.23317664 3.73249089 -2 1 C-1.34 0.67 -0.68 0.34 0 0 Z " fill="#A7A4A7" transform="translate(164,365)"/>
<path d="M0 0 C2 2 2 2 2 5 C-3.61 5 -9.22 5 -15 5 C-14.01 4.67 -13.02 4.34 -12 4 C-12 3.01 -12 2.02 -12 1 C-7.94638511 0.22788288 -4.12876411 -0.28150664 0 0 Z " fill="#66646C" transform="translate(258,342)"/>
<path d="M0 0 C0.66 0.33 1.32 0.66 2 1 C3.21883656 8.31301936 3.10289063 15.60330657 3 23 C-0.55642961 24.51820693 -3.11346173 25.2220879 -7 25 C-4 23 -4 23 2 22 C1.34 16.72 0.68 11.44 0 6 C-0.66 6 -1.32 6 -2 6 C-3.35712166 7.55855981 -3.35712166 7.55855981 -4.625 9.5 C-5.07101563 10.1496875 -5.51703125 10.799375 -5.9765625 11.46875 C-6.48316406 12.22671875 -6.48316406 12.22671875 -7 13 C-7.33 12.01 -7.66 11.02 -8 10 C-6.34765625 7.51953125 -6.34765625 7.51953125 -4.0625 4.8125 C-3.31097656 3.91144531 -2.55945313 3.01039063 -1.78515625 2.08203125 C-0.90150391 1.05142578 -0.90150391 1.05142578 0 0 Z " fill="#969498" transform="translate(193,336)"/>
<path d="M0 0 C2 3 2 3 2 6 C2.66 6 3.32 6 4 6 C5.32 9.63 6.64 13.26 8 17 C9.32 17 10.64 17 12 17 C13.77409808 15.07977297 13.77409808 15.07977297 15 13 C14.25 18.75 14.25 18.75 12 21 C9.625 21 9.625 21 7 20 C2.21845473 14.23401893 -0.56382122 7.51761627 0 0 Z " fill="#47454A" transform="translate(139,299)"/>
<path d="M0 0 C0.33 0 0.66 0 1 0 C1.33 9.9 1.66 19.8 2 30 C4.97 29.01 7.94 28.02 11 27 C12.32 27.33 13.64 27.66 15 28 C12.69 28.33 10.38 28.66 8 29 C8 29.66 8 30.32 8 31 C4.04 31.495 4.04 31.495 0 32 C0 21.44 0 10.88 0 0 Z " fill="#94939B" transform="translate(201,325)"/>
<path d="M0 0 C1.98 0.495 1.98 0.495 4 1 C4 1.66 4 2.32 4 3 C3.34 3 2.68 3 2 3 C2.23396484 4.01320313 2.23396484 4.01320313 2.47265625 5.046875 C2.66730469 5.93890625 2.86195313 6.8309375 3.0625 7.75 C3.25972656 8.63171875 3.45695313 9.5134375 3.66015625 10.421875 C3.99825872 12.98679028 3.81158635 14.57091639 3 17 C1.68 16.67 0.36 16.34 -1 16 C-1.02701408 13.89590361 -1.04640223 11.79170822 -1.0625 9.6875 C-1.07410156 8.51574219 -1.08570313 7.34398437 -1.09765625 6.13671875 C-1 3 -1 3 0 0 Z " fill="#2E2C31" transform="translate(177,335)"/>
<path d="M0 0 C0.33 0 0.66 0 1 0 C1.08564209 0.78125244 1.17128418 1.56250488 1.25952148 2.36743164 C1.65100892 5.93258425 2.04423892 9.49754262 2.4375 13.0625 C2.57220703 14.29162109 2.70691406 15.52074219 2.84570312 16.78710938 C3.48136606 22.53908373 4.12445427 28.27920118 5 34 C-2.34902154 25.52345735 -0.22888751 10.61783718 0 0 Z " fill="#9B979A" transform="translate(154,322)"/>
<path d="M0 0 C0.33 0.99 0.66 1.98 1 3 C-1.5654594 5.5654594 -3.47686668 5.54046087 -7 6 C-7.33 8.64 -7.66 11.28 -8 14 C-7.0925 13.649375 -6.185 13.29875 -5.25 12.9375 C-1.99408687 11.99829429 -1.07250006 12.04485324 2 13 C0.39850114 13.67305018 -1.20631029 14.33822227 -2.8125 15 C-3.70582031 15.37125 -4.59914062 15.7425 -5.51953125 16.125 C-8 17 -8 17 -11 17 C-11.33333333 8.5 -11.33333333 8.5 -9 5 C-6.95779194 4.01923064 -4.9497825 3.31612034 -2.77734375 2.67578125 C-0.7933802 2.15100735 -0.7933802 2.15100735 0 0 Z " fill="#908F92" transform="translate(184,349)"/>
<path d="M0 0 C0.66 0.99 1.32 1.98 2 3 C-4.63809859 9.0444475 -10.41044134 9.56712042 -19.03515625 9.2109375 C-20.01355469 9.14132812 -20.99195313 9.07171875 -22 9 C-22 8.67 -22 8.34 -22 8 C-20.80503906 7.83564453 -20.80503906 7.83564453 -19.5859375 7.66796875 C-13.84431803 6.80882131 -9.09051083 5.94713785 -4 3 C-3.34 3 -2.68 3 -2 3 C-2 2.34 -2 1.68 -2 1 C-1.34 0.67 -0.68 0.34 0 0 Z " fill="#4E4B4E" transform="translate(166,360)"/>
<path d="M0 0 C0.33 0 0.66 0 1 0 C0.67 4.29 0.34 8.58 0 13 C-0.66 13 -1.32 13 -2 13 C-2 21.91 -2 30.82 -2 40 C-2.33 40 -2.66 40 -3 40 C-3.02922653 35.50001382 -3.04687482 31.00005235 -3.0625 26.5 C-3.07087891 25.2315625 -3.07925781 23.963125 -3.08789062 22.65625 C-3.10434137 16.33916501 -3.00091014 10.24189628 -2 4 C-1.34 4 -0.68 4 0 4 C0 2.68 0 1.36 0 0 Z " fill="#727177" transform="translate(203,312)"/>
<path d="M0 0 C0.66 0.33 1.32 0.66 2 1 C1.67 9.25 1.34 17.5 1 26 C0.67 26 0.34 26 0 26 C-0.04898438 25.07316406 -0.09796875 24.14632813 -0.1484375 23.19140625 C-0.22320312 21.99386719 -0.29796875 20.79632813 -0.375 19.5625 C-0.44460937 18.36753906 -0.51421875 17.17257812 -0.5859375 15.94140625 C-0.72257813 14.97074219 -0.85921875 14.00007813 -1 13 C-1.66 12.67 -2.32 12.34 -3 12 C-2.40075776 7.80530429 -1.42500059 3.99000166 0 0 Z " fill="#323136" transform="translate(199,316)"/>
<path d="M0 0 C1.90608098 3.21182149 2.22266247 5.53882603 2.125 9.25 C2.10695312 10.14203125 2.08890625 11.0340625 2.0703125 11.953125 C2.03550781 12.96632813 2.03550781 12.96632813 2 14 C1.34 14 0.68 14 0 14 C-0.86627399 12.40233897 -1.71766465 10.79660056 -2.5625 9.1875 C-3.03816406 8.29417969 -3.51382813 7.40085937 -4.00390625 6.48046875 C-5 4 -5 4 -4 1 C-3.34 2.32 -2.68 3.64 -2 5 C-1.34 5 -0.68 5 0 5 C0 3.35 0 1.7 0 0 Z " fill="#413F43" transform="translate(173,407)"/>
<path d="M0 0 C0.66 0 1.32 0 2 0 C1.67 3.63 1.34 7.26 1 11 C0.34 11 -0.32 11 -1 11 C-1.04898438 11.71027344 -1.09796875 12.42054688 -1.1484375 13.15234375 C-1.22320312 14.07144531 -1.29796875 14.99054688 -1.375 15.9375 C-1.47941406 17.31228516 -1.47941406 17.31228516 -1.5859375 18.71484375 C-1.72257813 19.46894531 -1.85921875 20.22304688 -2 21 C-2.66 21.33 -3.32 21.66 -4 22 C-3.5697663 14.3299717 -2.25768639 7.34103058 0 0 Z " fill="#474349" transform="translate(158,289)"/>
<path d="M0 0 C0.33 0 0.66 0 1 0 C1 7.26 1 14.52 1 22 C1.66 22 2.32 22 3 22 C3.33 21.34 3.66 20.68 4 20 C5.125 27.75 5.125 27.75 4 30 C3.34 30 2.68 30 2 30 C-0.28487759 23.65811536 -0.23299776 17.75420732 -0.125 11.0625 C-0.11597656 9.99708984 -0.10695312 8.93167969 -0.09765625 7.83398438 C-0.07423414 5.22241966 -0.04143452 2.61133063 0 0 Z " fill="#4D4B4F" transform="translate(172,320)"/>
<path d="M0 0 C6.03816988 1.96163894 8.04250254 5.61168271 11 11 C12.48099327 14.28552662 13.79481538 17.6042151 15 21 C12 20 12 20 10.3515625 17.05078125 C9.76609723 15.80932876 9.19095981 14.56296526 8.625 13.3125 C6.30037356 8.19509318 3.75906604 4.2047285 0 0 Z " fill="#989599" transform="translate(157,398)"/>
<path d="M0 0 C1.54461372 3.9648365 0.40115597 6.85418036 -0.8125 10.8125 C-1.16957031 11.99457031 -1.52664062 13.17664063 -1.89453125 14.39453125 C-2.25933594 15.58433594 -2.62414062 16.77414062 -3 18 C-3.6768031 20.33058139 -4.3392084 22.66480435 -5 25 C-5.33 25 -5.66 25 -6 25 C-5.76919007 16.08234348 -2.99681008 8.29375483 0 0 Z " fill="#959397" transform="translate(165,275)"/>
<path d="M0 0 C0.66 0.33 1.32 0.66 2 1 C2.6328125 3.06640625 2.6328125 3.06640625 3.125 5.5625 C3.29257813 6.38878906 3.46015625 7.21507812 3.6328125 8.06640625 C3.75398437 8.70449219 3.87515625 9.34257812 4 10 C1 12 1 12 -3 12 C-2.40075776 7.80530429 -1.42500059 3.99000166 0 0 Z M0 3 C-0.33 5.31 -0.66 7.62 -1 10 C0.32 9.34 1.64 8.68 3 8 C2.34 6.35 1.68 4.7 1 3 C0.67 3 0.34 3 0 3 Z " fill="#949295" transform="translate(165,344)"/>
<path d="M0 0 C0.79921875 0.01804687 1.5984375 0.03609375 2.421875 0.0546875 C3.02515625 0.07789063 3.6284375 0.10109375 4.25 0.125 C4.25 1.115 4.25 2.105 4.25 3.125 C-2.185 3.62 -2.185 3.62 -8.75 4.125 C-8.75 3.465 -8.75 2.805 -8.75 2.125 C-5.68753253 0.34090198 -3.52920727 -0.10380021 0 0 Z " fill="#494448" transform="translate(135.75,365.875)"/>
<path d="M0 0 C1.2077558 3.62326739 0.54311128 4.64146369 -1 8 C-3.97 8 -6.94 8 -10 8 C-9.34 6.02 -8.68 4.04 -8 2 C-7.67 2.66 -7.34 3.32 -7 4 C-4.97954558 3.39816251 -2.97888961 2.72693904 -1 2 C-0.67 1.34 -0.34 0.68 0 0 Z " fill="#575558" transform="translate(169,352)"/>
<path d="M0 0 C0.99 0 1.98 0 3 0 C3 0.66 3 1.32 3 2 C1.02 2.33 -0.96 2.66 -3 3 C-3 3.66 -3 4.32 -3 5 C-6.67410785 6.17571451 -10.16929183 6.07366746 -14 6 C-10.68545325 2.82956397 -7.28816393 2.24361815 -2.92578125 1.4296875 C-1.00249079 1.18120767 -1.00249079 1.18120767 0 0 Z " fill="#534E54" transform="translate(140,377)"/>
<path d="M0 0 C0 0.66 0 1.32 0 2 C-1.55966218 2.508783 -3.12289241 3.00663469 -4.6875 3.5 C-5.99267578 3.91765625 -5.99267578 3.91765625 -7.32421875 4.34375 C-9.99391677 4.99850805 -12.26396684 5.11831495 -15 5 C-14.34 4.34 -13.68 3.68 -13 3 C-12.01 3 -11.02 3 -10 3 C-10 2.34 -10 1.68 -10 1 C-6.52674819 -0.1577506 -3.63932552 -0.06866652 0 0 Z " fill="#444349" transform="translate(230,350)"/>
<path d="M0 0 C0.33 0 0.66 0 1 0 C1.12375 1.216875 1.2475 2.43375 1.375 3.6875 C1.78891306 7.06479059 2.54573451 9.89756695 4 13 C3.34 13 2.68 13 2 13 C1.67 13.99 1.34 14.98 1 16 C-0.98 16.33 -2.96 16.66 -5 17 C-2 15 -2 15 0 15 C-0.185625 13.824375 -0.37125 12.64875 -0.5625 11.4375 C-1.08230996 7.38731406 -0.7502354 4.00125547 0 0 Z " fill="#5F5C60" transform="translate(155,344)"/>
<path d="M0 0 C1.32 0.33 2.64 0.66 4 1 C3.48517081 6.852795 2.54642808 12.3297637 1 18 C0.67 18 0.34 18 0 18 C0.57021934 12.6496441 1.20734361 7.32212148 2 2 C1.34 2 0.68 2 0 2 C-0.33 2.99 -0.66 3.98 -1 5 C-1.33 4.34 -1.66 3.68 -2 3 C-1.34 2.01 -0.68 1.02 0 0 Z " fill="#969599" transform="translate(204,293)"/>
<path d="M0 0 C1.8272911 2.74093665 2.93698178 5.13825324 4.125 8.1875 C4.47820312 9.08855469 4.83140625 9.98960937 5.1953125 10.91796875 C5.46085938 11.60503906 5.72640625 12.29210937 6 13 C6.99 13 7.98 13 9 13 C8.67 14.32 8.34 15.64 8 17 C5.11430024 15.96939294 4.16051422 15.31211099 2.734375 12.5390625 C2.40953125 11.57742188 2.0846875 10.61578125 1.75 9.625 C1.41484375 8.66851562 1.0796875 7.71203125 0.734375 6.7265625 C0 4 0 4 0 0 Z " fill="#A19FA2" transform="translate(142,301)"/>
<path d="M0 0 C0.33 0 0.66 0 1 0 C0.54775239 5.91492272 -0.1582605 11.35199888 -2 17 C-3.1171875 15.421875 -3.1171875 15.421875 -4 13 C-3.3203125 9.765625 -3.3203125 9.765625 -2.125 6.25 C-1.73570312 5.07953125 -1.34640625 3.9090625 -0.9453125 2.703125 C-0.63335937 1.81109375 -0.32140625 0.9190625 0 0 Z " fill="#838186" transform="translate(162,338)"/>
<path d="M0 0 C0.66 0 1.32 0 2 0 C2.33 4.29 2.66 8.58 3 13 C2.01 13.33 1.02 13.66 0 14 C0 9.38 0 4.76 0 0 Z " fill="#2F2A30" transform="translate(134,276)"/>
<path d="M0 0 C4.45549507 1.36140127 6.25434405 3.30756614 9 7 C9.66 7.33 10.32 7.66 11 8 C11 9.65 11 11.3 11 13 C10.484375 12.319375 9.96875 11.63875 9.4375 10.9375 C6.9183496 7.9016008 4.22408896 5.19134647 1.390625 2.453125 C0 1 0 1 0 0 Z " fill="#9F9FA0" transform="translate(160,396)"/>
<path d="M0 0 C0.33 0 0.66 0 1 0 C1.2226746 1.43534841 1.42761906 2.87345525 1.625 4.3125 C1.74101562 5.11300781 1.85703125 5.91351563 1.9765625 6.73828125 C2 9 2 9 0 12 C-0.66 11.67 -1.32 11.34 -2 11 C-2.40729228 8.67843403 -2.74438677 6.3431213 -3 4 C-2.01 4 -1.02 4 0 4 C0 2.68 0 1.36 0 0 Z " fill="#444247" transform="translate(198,334)"/>
<path d="M0 0 C0.66 0 1.32 0 2 0 C2 3.63 2 7.26 2 11 C1.67 10.01 1.34 9.02 1 8 C0.01 8 -0.98 8 -2 8 C-1.125 1.125 -1.125 1.125 0 0 Z " fill="#363336" transform="translate(166,333)"/>
<path d="M0 0 C0.6875 1.75 0.6875 1.75 1 4 C-0.4375 6.25 -0.4375 6.25 -2 8 C-4.375 7.75 -4.375 7.75 -7 7 C-8.3125 4.9375 -8.3125 4.9375 -9 3 C-7.02 3.66 -5.04 4.32 -3 5 C-2.01 3.35 -1.02 1.7 0 0 Z " fill="#3D3B40" transform="translate(153,312)"/>
<path d="M0 0 C5.94 0.99 5.94 0.99 12 2 C12 2.33 12 2.66 12 3 C7.71 3 3.42 3 -1 3 C-0.67 2.01 -0.34 1.02 0 0 Z " fill="#A09BA0" transform="translate(123,386)"/>
<path d="M0 0 C-6.5 3 -6.5 3 -11 3 C-11 2.34 -11 1.68 -11 1 C-11.66 0.67 -12.32 0.34 -13 0 C-11.58456585 -0.19658808 -10.16755969 -0.38187546 -8.75 -0.5625 C-7.96109375 -0.66691406 -7.1721875 -0.77132813 -6.359375 -0.87890625 C-3.99467126 -1.00027349 -2.2488963 -0.69633257 0 0 Z " fill="#817D81" transform="translate(137,383)"/>
<path d="M0 0 C1.64826111 2.96687001 2.44271087 5.65626525 3 9 C2.34 9 1.68 9 1 9 C0.67 9.66 0.34 10.32 0 11 C-1.28571429 3.57142857 -1.28571429 3.57142857 0 0 Z " fill="#4B494C" transform="translate(168,340)"/>
<path d="M0 0 C0.66 0.99 1.32 1.98 2 3 C2.66 2.67 3.32 2.34 4 2 C3.67 3.98 3.34 5.96 3 8 C2.01 8.33 1.02 8.66 0 9 C-0.84454356 5.62182575 -1.10844919 3.32534757 0 0 Z " fill="#46454B" transform="translate(200,308)"/>
<path d="M0 0 C0.99 0 1.98 0 3 0 C3 2.64 3 5.28 3 8 C2.01 7.67 1.02 7.34 0 7 C0 4.69 0 2.38 0 0 Z " fill="#312C32" transform="translate(150,322)"/>
<path d="M0 0 C0.33 0 0.66 0 1 0 C1.125 7.75 1.125 7.75 0 10 C-0.99 10 -1.98 10 -3 10 C-2.01 6.7 -1.02 3.4 0 0 Z " fill="#474548" transform="translate(163,342)"/>
<path d="M0 0 C0.66 0 1.32 0 2 0 C4.83022097 3.99560608 3.76210446 7.42737323 3 12 C2.67 12 2.34 12 2 12 C1.67 9.03 1.34 6.06 1 3 C0.34 3 -0.32 3 -1 3 C-0.67 2.01 -0.34 1.02 0 0 Z " fill="#605F64" transform="translate(183,257)"/>
<path d="M0 0 C1.65 0 3.3 0 5 0 C4.67 0.66 4.34 1.32 4 2 C3.34 2 2.68 2 2 2 C2 2.66 2 3.32 2 4 C1.01 4.66 0.02 5.32 -1 6 C-1.99 5.67 -2.98 5.34 -4 5 C-3.01 4.67 -2.02 4.34 -1 4 C-0.26676204 1.98491642 -0.26676204 1.98491642 0 0 Z " fill="#969298" transform="translate(162,359)"/>
<path d="M0 0 C0.99 0 1.98 0 3 0 C2.67 2.64 2.34 5.28 2 8 C1.34 8 0.68 8 0 8 C0 5.36 0 2.72 0 0 Z " fill="#1A181D" transform="translate(164,265)"/>
<path d="M0 0 C1.32 0 2.64 0 4 0 C4.1953125 6.0546875 4.1953125 6.0546875 4 8 C3.34 8.66 2.68 9.32 2 10 C2 8.02 2 6.04 2 4 C1.34 3.67 0.68 3.34 0 3 C0.66 2.67 1.32 2.34 2 2 C1.34 1.34 0.68 0.68 0 0 Z " fill="#3C3B41" transform="translate(183,253)"/>
<path d="M0 0 C1.125 3.75 1.125 3.75 0 6 C-0.66 6 -1.32 6 -2 6 C-2.66 7.98 -3.32 9.96 -4 12 C-5 9 -5 9 -4.00390625 6.73828125 C-3.52824219 5.93777344 -3.05257812 5.13726562 -2.5625 4.3125 C-2.08941406 3.50425781 -1.61632812 2.69601562 -1.12890625 1.86328125 C-0.75636719 1.24839844 -0.38382813 0.63351562 0 0 Z " fill="#8D8D8F" transform="translate(189,330)"/>
<path d="M0 0 C1.32 0 2.64 0 4 0 C4 2.97 4 5.94 4 9 C2.00902154 6.01353231 1.05875074 3.40312738 0 0 Z " fill="#2E2C31" transform="translate(192,329)"/>
<path d="M0 0 C-0.99 1.485 -0.99 1.485 -2 3 C-5.125 3.1875 -5.125 3.1875 -8 3 C-8 2.34 -8 1.68 -8 1 C-5.29120665 -0.35439668 -2.99066732 -0.06501451 0 0 Z " fill="#514D51" transform="translate(163,371)"/>
<path d="M0 0 C0.99 0.33 1.98 0.66 3 1 C2.34 1 1.68 1 1 1 C1 1.66 1 2.32 1 3 C-2 5 -2 5 -4.1875 4.625 C-4.785625 4.41875 -5.38375 4.2125 -6 4 C-3.1875 1.9375 -3.1875 1.9375 0 0 Z " fill="#A9A7A9" transform="translate(164,365)"/>
<path d="M0 0 C0 0.33 0 0.66 0 1 C-3.98060777 2.17076699 -7.91621717 3.25749403 -12 4 C-8.07829422 -0.09996514 -5.68430095 -0.10526483 0 0 Z " fill="#969296" transform="translate(153,359)"/>
<path d="M0 0 C0.66 0 1.32 0 2 0 C2 2.31 2 4.62 2 7 C1.67 6.34 1.34 5.68 1 5 C0.01 5.33 -0.98 5.66 -2 6 C-1.49396008 3.83125748 -1.00016187 2.00032373 0 0 Z " fill="#3E3D43" transform="translate(204,295)"/>
<path d="M0 0 C-2.8125 1.5625 -2.8125 1.5625 -6 3 C-6.99 2.67 -7.98 2.34 -9 2 C-5.96271914 -1.03728086 -4.06215635 -1.35405212 0 0 Z " fill="#7E7D7F" transform="translate(162,361)"/>
<path d="M0 0 C0.66 0 1.32 0 2 0 C2.33 2.97 2.66 5.94 3 9 C0.90250005 6.64031256 0.03094296 5.45383006 -0.1875 2.25 C-0.125625 1.5075 -0.06375 0.765 0 0 Z " fill="#1A181D" transform="translate(176,338)"/>
<path d="M0 0 C0.33 0 0.66 0 1 0 C0.25 6.625 0.25 6.625 -2 10 C-1.85950482 8.52031676 -1.71245174 7.04125484 -1.5625 5.5625 C-1.48128906 4.73878906 -1.40007812 3.91507812 -1.31640625 3.06640625 C-1 1 -1 1 0 0 Z " fill="#848286" transform="translate(162,271)"/>
<path d="M0 0 C0.66 0.66 1.32 1.32 2 2 C1.75 5.0625 1.75 5.0625 1 8 C0.01 8.495 0.01 8.495 -1 9 C-0.67 6.03 -0.34 3.06 0 0 Z " fill="#3E3D42" transform="translate(177,264)"/>
<path d="" fill="#FFFFFF" transform="translate(0,0)"/>
<path d="" fill="#FFFFFF" transform="translate(0,0)"/>
<path d="" fill="#FFFFFF" transform="translate(0,0)"/>
<path d="" fill="#FFFFFF" transform="translate(0,0)"/>
<path d="" fill="#FFFFFF" transform="translate(0,0)"/>
<path d="" fill="#FFFFFF" transform="translate(0,0)"/>
<path d="" fill="#FFFFFF" transform="translate(0,0)"/>
<path d="" fill="#FFFFFF" transform="translate(0,0)"/>
<path d="" fill="#FFFFFF" transform="translate(0,0)"/>
<path d="" fill="#FFFFFF" transform="translate(0,0)"/>
<path d="" fill="#FFFFFF" transform="translate(0,0)"/>
<path d="" fill="#FFFFFF" transform="translate(0,0)"/>
<path d="" fill="#FFFFFF" transform="translate(0,0)"/>
<path d="" fill="#FFFFFF" transform="translate(0,0)"/>
<path d="" fill="#FFFFFF" transform="translate(0,0)"/>
<path d="" fill="#FFFFFF" transform="translate(0,0)"/>
<path d="" fill="#FFFFFF" transform="translate(0,0)"/>
<path d="" fill="#FFFFFF" transform="translate(0,0)"/>
<path d="" fill="#FFFFFF" transform="translate(0,0)"/>
<path d="" fill="#FFFFFF" transform="translate(0,0)"/>
<path d="" fill="#FFFFFF" transform="translate(0,0)"/>
<path d="" fill="#FFFFFF" transform="translate(0,0)"/>
<path d="" fill="#FFFFFF" transform="translate(0,0)"/>
<path d="" fill="#FFFFFF" transform="translate(0,0)"/>
<path d="" fill="#FFFFFF" transform="translate(0,0)"/>
<path d="" fill="#FFFFFF" transform="translate(0,0)"/>
<path d="" fill="#FFFFFF" transform="translate(0,0)"/>
<path d="" fill="#FFFFFF" transform="translate(0,0)"/>
<path d="" fill="#FFFFFF" transform="translate(0,0)"/>
<path d="" fill="#FFFFFF" transform="translate(0,0)"/>
<path d="" fill="#FFFFFF" transform="translate(0,0)"/>
<path d="" fill="#FFFFFF" transform="translate(0,0)"/>
<path d="" fill="#FFFFFF" transform="translate(0,0)"/>
<path d="" fill="#FFFFFF" transform="translate(0,0)"/>
<path d="" fill="#FFFFFF" transform="translate(0,0)"/>
<path d="" fill="#FFFFFF" transform="translate(0,0)"/>
<path d="" fill="#FFFFFF" transform="translate(0,0)"/>
<path d="" fill="#FFFFFF" transform="translate(0,0)"/>
<path d="" fill="#FFFFFF" transform="translate(0,0)"/>
<path d="" fill="#FFFFFF" transform="translate(0,0)"/>
<path d="" fill="#FFFFFF" transform="translate(0,0)"/>
<path d="" fill="#FFFFFF" transform="translate(0,0)"/>
<path d="" fill="#FFFFFF" transform="translate(0,0)"/>
<path d="" fill="#FFFFFF" transform="translate(0,0)"/>
<path d="" fill="#FFFFFF" transform="translate(0,0)"/>
<path d="" fill="#FFFFFF" transform="translate(0,0)"/>
<path d="" fill="#FFFFFF" transform="translate(0,0)"/>
<path d="" fill="#FFFFFF" transform="translate(0,0)"/>
<path d="" fill="#FFFFFF" transform="translate(0,0)"/>
<path d="" fill="#FFFFFF" transform="translate(0,0)"/>
<path d="" fill="#FFFFFF" transform="translate(0,0)"/>
<path d="" fill="#FFFFFF" transform="translate(0,0)"/>
<path d="" fill="#FFFFFF" transform="translate(0,0)"/>
<path d="" fill="#FFFFFF" transform="translate(0,0)"/>
<path d="" fill="#FFFFFF" transform="translate(0,0)"/>
<path d="" fill="#FFFFFF" transform="translate(0,0)"/>
<path d="" fill="#FFFFFF" transform="translate(0,0)"/>
<path d="" fill="#FFFFFF" transform="translate(0,0)"/>
<path d="" fill="#FFFFFF" transform="translate(0,0)"/>
<path d="" fill="#FFFFFF" transform="translate(0,0)"/>
<path d="" fill="#FFFFFF" transform="translate(0,0)"/>
<path d="" fill="#FFFFFF" transform="translate(0,0)"/>
<path d="" fill="#FFFFFF" transform="translate(0,0)"/>
<path d="" fill="#FFFFFF" transform="translate(0,0)"/>
<path d="" fill="#FFFFFF" transform="translate(0,0)"/>
<path d="" fill="#FFFFFF" transform="translate(0,0)"/>
<path d="" fill="#FFFFFF" transform="translate(0,0)"/>
<path d="" fill="#FFFFFF" transform="translate(0,0)"/>
<path d="" fill="#FFFFFF" transform="translate(0,0)"/>
<path d="" fill="#FFFFFF" transform="translate(0,0)"/>
<path d="" fill="#FFFFFF" transform="translate(0,0)"/>
<path d="" fill="#FFFFFF" transform="translate(0,0)"/>
<path d="" fill="#FFFFFF" transform="translate(0,0)"/>
<path d="" fill="#FFFFFF" transform="translate(0,0)"/>
<path d="" fill="#FFFFFF" transform="translate(0,0)"/>
<path d="" fill="#FFFFFF" transform="translate(0,0)"/>
<path d="" fill="#FFFFFF" transform="translate(0,0)"/>
<path d="" fill="#FFFFFF" transform="translate(0,0)"/>
<path d="" fill="#FFFFFF" transform="translate(0,0)"/>
<path d="" fill="#FFFFFF" transform="translate(0,0)"/>
<path d="" fill="#FFFFFF" transform="translate(0,0)"/>
<path d="" fill="#FFFFFF" transform="translate(0,0)"/>
</svg>
